<?xml version="1.0" encoding="utf-8"?>
<!-- Generator: Adobe Illustrator 16.0.0, SVG Export Plug-In . SVG Version: 6.00 Build 0)  -->
<!DOCTYPE svg PUBLIC "-//W3C//DTD SVG 1.1//EN" "http://www.w3.org/Graphics/SVG/1.1/DTD/svg11.dtd">
<svg version="1.1" id="b759170a-51c3-4e2f-999d-77dec9fd6d11"
	 xmlns="http://www.w3.org/2000/svg" xmlns:xlink="http://www.w3.org/1999/xlink" x="0px" y="0px" width="1140.561px"
	 height="787.27px" viewBox="0 0 1140.561 787.27" enable-background="new 0 0 1140.561 787.27" xml:space="preserve">
<title>maker launch</title>
<g>
	<path fill="#E8F1FF" d="M978.912,606.925c0.266,1.648,0.486,3.323,0.667,4.897c-0.083-1.579-0.134-3.156-0.152-4.731
		C979.271,607.041,979.099,606.985,978.912,606.925 M720.524,596.62l-1.304,0.133c12.356,4.467,35.152,12.963,36.2,15.217
		c0.434,0.934,1.87,1.764,3.884,2.58c0.06-0.649,0.155-1.471,0.278-2.433c-0.544-0.345-0.862-0.648-0.912-0.897
		c-0.131-0.646,0.267-3.701,0.857-7.86l-1.388-0.22l-16.601-2.64C741.54,600.5,732.152,599.538,720.524,596.62 M1072.83,581.194
		c-0.968,0.585-1.93,1.179-2.888,1.782l0.007-0.004c-19.828,12.69-35.138,31.296-43.779,53.154c0.778-0.106,1.556-0.248,2.33-0.427
		c8.46-1.97,15.551-8.22,21.811-14.83c0.94-1,1.87-2,2.78-3C1062.853,606.996,1069.339,594.388,1072.83,581.194 M231.766,571.116
		c-0.934,0.292-1.856,0.62-2.766,0.983c-15.928,6.36-27.073,23.136-34.873,43.623c16.143,0.741,32.287,1.473,48.429,2.207
		c-1.849-7.127-3.809-15.075-5.807-23.779C235.1,586.971,233.427,579.286,231.766,571.116 M401.821,570.178
		c-1.645,7.137-3.388,14.341-5.23,21.603c-2.735,10.789-5.7,21.715-8.894,32.778c19.805,0.863,39.616,1.706,59.422,2.528
		c-8.332-27.099-21.532-50.262-42.437-56.245c-0.003,0.015-0.008,0.033-0.011,0.048
		C403.732,570.608,402.781,570.371,401.821,570.178 M776.497,544.669L760.8,568.583l1.541,0.377l1.52,0.34
		c-0.049-0.452-0.229-0.88-0.52-1.229c0,0,9.02,0.367,18.188,1.058c-0.053-2.373-0.223-3.997-0.527-4.567
		C778.963,560.753,776.709,546.072,776.497,544.669 M123.311,530.451c1.962,6.518,4.099,12.565,6.314,18.12
		c0.364-0.877,1.043-2.26,2.169-3.698c0.734-4.314,1.71-8.565,2.894-12.75c-0.221,0.006-0.443,0.008-0.67,0.008
		C130.93,532.131,127.381,531.64,123.311,530.451 M976.425,513.445c-0.34,1.8-0.704,3.104-0.704,3.104
		c-1.581,2.287-1.676,5.289-0.24,7.67c2.4,4.28-0.479,22.28-0.479,22.28l0.239,18.69c0,0-2.64,11.75,0.48,12.229
		c3.12,0.48-0.48,5.75-0.48,5.75s-0.001,0.002-0.002,0.007c1.85,6.391,3.342,13.701,4.252,18.609
		c0.718-20.376,6.888-40.25,17.947-57.512c-4.18-4.67-19.438-22.123-20.827-29.555C976.531,514.294,976.469,513.869,976.425,513.445
		 M148.107,500.053c-3.253,2.671-9.415,6.454-18.217,6.454c-3.81,0-8.115-0.709-12.893-2.523c1.204,6.731,2.645,13.136,4.253,19.188
		c1.756-2.394,6.93-8.222,15.653-8.223c1.187,0,2.438,0.107,3.757,0.347C142.889,510.059,145.395,504.975,148.107,500.053
		 M1049.19,490.698c-0.127,0.393-0.271,0.784-0.43,1.172c-3.016,7.322-23.17,22.279-27.061,25.119l0.174,0.171
		c-8.1,8.264-15.425,17.252-21.882,26.854c-1.86,2.815-3.587,5.704-5.177,8.656c5.664-7.265,16.285-20.145,22.075-22.461
		c1.934-0.772,3.929-1.139,5.891-1.139c6.306,0,12.271,3.781,14.755,9.994c0.77,1.925,1.135,3.911,1.139,5.865
		c0.009,6.314-3.773,12.293-9.994,14.779c-1.91,0.763-4.999,1.055-8.604,1.055c-9.934,0-23.807-2.213-27.886-2.902
		c-7.075,14.95-10.771,31.32-10.771,47.935c0,2.218,0.065,4.439,0.198,6.663l-0.001-0.013l0.002,0.02
		c0.1,1.888,0.148,3.775,0.148,5.66c0,0.644-0.006,1.285-0.017,1.928c4.59-3.31,24.218-17.165,31.92-17.755
		c0.301-0.017,0.601-0.025,0.898-0.025c8.371,0,15.379,6.546,15.851,15.007c0.017,0.299,0.024,0.597,0.025,0.893
		c0.001,8.122-6.166,15.007-14.345,15.807c-0.205,0.016-0.422,0.023-0.646,0.023c-8.257,0-29.056-10.372-33.73-12.759
		c-0.006,0.217-0.013,0.433-0.021,0.648l3.642,5.281c6.447,2.076,12.895,4.09,19.355,5.976c5.726,1.666,11.628,3.24,17.476,3.24
		c0.589,0,1.177-0.016,1.764-0.049c8.725-22.66,24.463-41.953,44.932-55.054h-0.001l0.007-0.005
		c1.531-0.964,3.075-1.905,4.632-2.825C1080.802,547.03,1071.422,512.732,1049.19,490.698 M174.637,452.052
		c0.512,2.864,1.095,5.631,1.735,8.294c2.069-2.363,4.121-4.626,6.138-6.785c-0.034,0-0.068,0-0.103,0
		C180.111,453.561,177.517,453.137,174.637,452.052 M172.879,438.712c0.344,4.01,0.839,7.874,1.455,11.58l-0.054-0.782
		c0,0,3.728-5,10.448-5c1.664,0,3.51,0.306,5.53,1.07c0.958-0.95,1.896-1.867,2.818-2.758
		C186.242,442.336,179.516,440.867,172.879,438.712 M118.121,410.739c-6.692,33.928-5.932,64.58-1.591,90.548l-0.1-1.507
		c0,0,6.162-8.267,17.278-8.268c4.582,0,10.003,1.402,16.186,5.368c4.349-7.542,9.141-14.657,14.09-21.269
		c-2.475-0.217-4.075-1.162-4.075-1.162c2.904-9.643,8.71-11.428,12.612-11.428c0.528,0,1.021,0.033,1.467,0.083
		c0.409-0.479,0.818-0.957,1.227-1.429c-1.754-6.859-2.991-13.85-3.695-20.917c-0.084-0.853-0.16-1.712-0.226-2.575
		C153.122,431.979,135.573,420.787,118.121,410.739 M55.561,390.631c-18.857,0-36.288,6.657-46.801,23.829
		c-25.85,42.24,13.311,96.25,17.67,139.87c4.98,49.811,32.32,54.72,75.24,56.95c12.574,0.644,25.149,1.266,37.726,1.873
		c-1.593-6.95-3.302-14.116-5.134-21.479c-2.836,2.303-5.712,2.603-7.017,2.603c-0.459,0-0.724-0.037-0.724-0.037
		c-0.283-11.432,1.817-17.622,4.215-20.973c-0.585-5.811-0.651-11.551-0.271-17.212c-0.037-0.083-0.075-0.17-0.112-0.253
		c-6.38,8.828-13.218,10.969-18.348,10.969c-4.822,0-8.135-1.892-8.135-1.892c4.982-14.257,12.621-17.211,18.099-17.211
		c2.276,0,4.18,0.511,5.363,0.933c-8.1-20.257-13.312-41.566-15.472-63.302c-2.334-23.751-0.371-49.967,4.807-75.396
		c-3.278-1.875-6.552-3.703-9.827-5.444C91.369,396.234,72.865,390.63,55.561,390.631 M369.37,98.169
		c7.19,16.153,14.358,34.254,21.04,54.261c22.99,68.832,40.234,160.259,32.992,272.843c0.182-0.068,0.365-0.136,0.548-0.203
		c0,0,0.723,0.537,2.037,1.589c0.095,0.074,0.192,0.151,0.293,0.23c0,0.003,0,0.002,0,0.005
		c15.111,12.1,97.597,82.408,77.76,160.926c-3.672,14.517-6.866,28.3-9.639,41.19c37.093,1.479,74.192,2.885,111.289,4.22
		c4.542,0.163,9.088,0.324,13.636,0.468c-2.056-2.852-3.588-5.244-4.206-6.769c-0.984-2.417-1.642-5.74-1.423-9.729
		c-0.407-8.812,3.497-21.84,19.203-35.69c2.921-2.572,6.587-4.167,10.727-5.015l-9.02-10c-2.103-2.331-3.175-5.231-3.245-8.142
		c-1.604-4.727-0.716-10.02,2.488-13.993l5.81-5.221c1.32-3.036,3.181-5.808,5.49-8.18c2.821-3.125,6.519-5.328,10.61-6.32
		l10.6-9.56c1.74-1.569,3.92-2.343,6.093-2.343c2.485,0,4.961,1.013,6.758,3.003l21.59,23.899l10.93-12.55c0,0,2.17-7.92,5.53-9.11
		c1.778-0.63,3.02-2.407,3.793-3.939c0.05-0.919,0.262-2.341,1.014-3.698c0.116-1.575,0.713-4.372,3.363-6.021
		c0.771-0.479,1.339-1.057,1.754-1.672c0.02-0.858-0.097-1.53-0.149-1.786c-0.035-0.046-0.06-0.084-0.074-0.112
		c-0.468-0.935,0.045-2.62,0.942-4.232c-0.213-2.214,2.522-6.432,4.487-7.527c0.089-0.05,0.172-0.099,0.25-0.147
		c-0.018-0.594-0.022-1.294,0.03-2.133c0.083-1.318,0.479-2.608,1.188-3.948c0.338-3.756,3.202-7.347,8.622-12.481
		c1.617-1.532,2.807-3.601,3.786-6.041c1.53-5.191,2.713-11.414,5.053-17.587c0.446-1.452,0.938-2.914,1.491-4.372
		c4.28-11.271,9.08-9.851,11-11.75c1.92-1.9,14.65-4.5,21.14-7.9c1.647-0.862,4.43-1.185,7.668-1.185
		c7.566,0,17.614,1.758,21.421,2.48c-0.002-0.4-0.01-0.801-0.021-1.2c-22.486-6.707-38.896-27.536-38.917-52.206
		c-0.003-3.808,0.393-7.605,1.18-11.33l0,0l0,0l0,0c0.096-0.455,0.198-0.908,0.306-1.358c-2.74-0.489-5.958-0.12-8.315-1.632
		c-2.32-1.49-3.2-4.38-3.85-7.05c-1.24-5.19-2.25-10.62-1.03-15.8c0.266-1.119,0.62-2.213,1.06-3.274
		c0.076-0.48,0.169-0.959,0.28-1.436c0.402-1.679,1.004-3.304,1.79-4.84c-0.04,0.13-0.1,0.26-0.1,0.38
		c3.199-6.64,9.359-11.9,13.56-18.18c4.75-7.09,7.54-16.16,14.561-20.77c3.578-2.35,7.745-3.248,12.04-3.247
		c4.13,0,8.378,0.831,12.329,1.997c3.78,1.13,7.511,2.52,11.421,3c1.194,0.149,2.389,0.211,3.586,0.211
		c5.304,0,10.628-1.213,15.964-1.401c0.45-0.014,0.897-0.021,1.346-0.021c8.766,0,17.326,2.739,24.474,7.852
		c1.689,1.102,3.125,2.55,4.21,4.25c1.311,2.29,1.471,5.03,1.881,7.63c0.768,4.951,2.489,9.706,5.069,14
		c2.021,3.37,4.55,6.43,6.37,9.91s2.9,7.6,1.73,11.35c-0.62,1.98-1.83,3.78-2.301,5.78c-1.06,4.68,2.03,9.15,4.131,13.47
		c2.044,3.936,3.014,8.34,2.81,12.77c-0.189,3.515-1.521,6.843-3.754,9.499c-0.935,2.474-2.505,4.671-4.566,6.361
		c-3.181,2.5-7.321,3.421-11.385,3.631c-0.337,0.615-0.686,1.225-1.045,1.829c0.07,0.36,0.15,0.75,0.22,1.08
		c0.07,0.33,0.15,0.67,0.22,1c0.341,0.051,12.08,1.49,15.931,6.53c3.85,5.04,13.939,5.76,13.939,5.76s11.53,3.83,11.29,4.79
		c-0.239,0.96,3.36,2.391,10.57,4.311s19.21,8.88,19.21,10.55s19,20.36,19,22.28s5.771,9.109,5.05,21.81
		c-0.72,12.7-1.439,28.771,1.44,31.4c0.825,0.753,1.177,2.136,1.26,3.727c1.634-5.553,6.255-10.009,12.335-11.142
		c0.983-0.184,1.963-0.271,2.929-0.271c7.5,0,14.173,5.336,15.597,12.977c0.114,0.599,0.168,1.289,0.169,2.058
		c0.005,7.051-4.45,20.589-7.267,28.441c5.92-8.395,12.51-16.3,19.703-23.64l0.392,0.384c-0.655-4.154-2.6-17.296-2.597-27.055
		c0.001-3.913,0.314-7.281,1.149-9.309c1-2.43,2.534-4.479,4.409-6.067c-1.488-0.62-3.004-1.198-4.549-1.732
		c-3.655-1.258-7.2-2.813-10.601-4.65c-10.31-5.59-19.26-13.91-27.37-22.91c-65.33-72.6-76.92-186.24-131-269.48
		c-15.946-24.484-39.095-47.677-65.833-47.677c-1.515,0-3.041,0.074-4.577,0.227c-27.25,2.65-47.22,28.67-63.6,53
		c-33.67,50.06-67.93,103.71-118.93,130c-10.382,5.36-21.971,9.423-33.273,9.423c-5.713,0-11.355-1.039-16.727-3.473
		c-11.101-5.04-19.49-15.36-26.92-25.8c-36.49-51.28-60.141-113.57-101.881-159.65c-13.029-14.39-28.26-27.29-46.119-32.1
		C371.412,98.619,370.395,98.378,369.37,98.169"/>
	<path fill="#30374E" d="M789.9,711.81c149.111,0,269.99,16.893,269.99,37.73S939.011,787.27,789.9,787.27
		s-269.99-16.892-269.99-37.729S640.789,711.81,789.9,711.81"/>
	<path fill="#2271FF" d="M148.74,586.77c0,0,13.2-3,21.85,5.87c0,0-5.56,5-18.64-0.54L148.74,586.77z"/>
	<path fill="#2271FF" d="M147.28,586.64c0,0-7.82,11.08-2.86,22.45c0,0,6.761-3.25,6.57-17.45L147.28,586.64"/>
	<path fill="#2271FF" d="M138.48,569.94c0,0,4.689-10.15,27,2.119c0,0-2.4,6.78-11.88,6.881
		C144.12,579.04,141.28,574.93,138.48,569.94"/>
	<path fill="#2271FF" d="M137.06,569.32c0,0-11.17-0.521-10.54,24.92c0,0,7.13,1,11.58-7.38
		C142.55,578.48,140.19,574.15,137.06,569.32"/>
	<path fill="#2271FF" d="M129.28,549.52c0,0,5-17.68,28.47-6.88c0,0-4.1,16.19-25.8,12.641L129.28,549.52"/>
	<path fill="#2271FF" d="M120.57,524.18c0,0,10.58-18.239,32.49-3.439c0,0-6.19,16.87-30.29,9.55L120.57,524.18"/>
	<path fill="#2271FF" d="M116.43,499.78c0,0,12.63-16.95,34.359-2.311c0,0-12.06,14.94-34.09,6.4L116.43,499.78"/>
	<path fill="#2271FF" d="M112.69,476.06c0,0,12.76-17.659,33.59-3.149c0,0-14.68,15.83-33.33,7.07L112.69,476.06z"/>
	<path fill="#2271FF" d="M112.51,454.8c0,0,13.15-22.53,32.65-9.17c0,0-14.42,19.57-32.37,13.26L112.51,454.8z"/>
	<path fill="#2271FF" d="M114.28,429.82c0,0,14-22.4,33.09-7.181c0,0-17.1,19.75-32.87,11.15L114.28,429.82z"/>
	<path fill="#2271FF" d="M117.91,407.359c0,0,17-21.31,33.55-14.369c0,0-17.68,22.6-34,19.76L117.91,407.359z"/>
	<path fill="#2271FF" d="M122.91,385.96c0,0,19.54-26,32.37-18.62c0,0-14.31,20.09-33.58,23.35L122.91,385.96z"/>
	<path fill="#2271FF" d="M130.53,361.02c0,0,17.17-21.32,31-17.24c0,0-14.45,21.89-33.1,23.68L130.53,361.02z"/>
	<path fill="#2271FF" d="M137.38,337.71c0,0,19.181-20.6,28.311-17.82c0,0-13.351,22.36-28.92,22.15L137.38,337.71z"/>
	<path fill="#2271FF" d="M144.15,316.15c0,0,16.09-24.15,25.82-23c0,0-9.311,21.19-25.66,25.33L144.15,316.15z"/>
	<path fill="#2271FF" d="M151.14,287.24c0,0,14.39-18.66,22.81-19.18c0,0-10.71,24.34-23.07,25L151.14,287.24z"/>
	<path fill="#2271FF" d="M155.14,268.03l12.58-37.69c0,0,3,33.1-14,44.62L155.14,268.03z"/>
	<path fill="#2271FF" d="M158.53,227.17c0,0,0.44-30.79-1.33-33.17c0,0,12.47,24.74,2.14,46.71L158.53,227.17z"/>
	<path fill="#2271FF" d="M128.64,549.15c0,0-16.261-8.62-24.771,15.729c0,0,14.5,8.28,27-9.81L128.64,549.15"/>
	<path fill="#2271FF" d="M120,523.23c0,0-19.72-7.45-27.35,17.88c0,0,15.47,9.149,29.51-11.761L120,523.23z"/>
	<path fill="#2271FF" d="M115.64,501.31c0,0-14.79-15.109-34.36,2.33c0,0,13.94,13.19,34.63,1.79L115.64,501.31z"/>
	<path fill="#2271FF" d="M112.22,476.1c0,0-15-15.81-33.711,1.36c0,0,16.66,13.73,34.001,2.55L112.22,476.1z"/>
	<path fill="#2271FF" d="M112.55,455.4c0,0-11.359-23.471-31.829-11.67c0,0,12.859,20.63,31.239,15.739L112.55,455.4z"/>
	<path fill="#2271FF" d="M115.45,429.64c0,0-11.33-23.899-32.06-11.069c0,0,14.659,21.609,31.34,14.93L115.45,429.64z"/>
	<path fill="#2271FF" d="M119.98,407.34c0,0-5.641-26.65-23.55-27.87c0,0,5.68,28.129,21.51,32.879L119.98,407.34z"/>
	<path fill="#2271FF" d="M123.37,385.98c0,0-3.67-32.31-18.46-32.46c0,0,2.15,24.57,17.11,37.15L123.37,385.98z"/>
	<path fill="#2271FF" d="M132,359.99c0,0-6.21-26.66-20.47-29c0,0,3.5,26,19.53,35.72L132,359.99z"/>
	<path fill="#2271FF" d="M139.06,337.79c0,0-2-28.07-10.9-31.62c0,0-3.61,25.78,8.65,35.38L139.06,337.79z"/>
	<path fill="#2271FF" d="M144.79,315.8c0,0-3.149-28.85-12.31-32.32c0,0-1.5,23.09,11.1,34.3L144.79,315.8z"/>
	<path fill="#2271FF" d="M152.54,289.46c0,0-1.64-23.51-8.35-28.61c0,0-4.58,26.19,5.35,33.56L152.54,289.46z"/>
	<path fill="#2271FF" d="M154.28,266.92l-8.8-38.74c0,0-6.23,32.64,9.569,45.78L154.28,266.92z"/>
	<path fill="#2271FF" d="M152.91,227.92c0,0-17.63-25.28-17.49-28.22c0,0,3.54,27.48,24.41,39.89L152.91,227.92z"/>
	<path fill="#2271FF" d="M154.28,220.03c0,0-17.46-36.39-24.43-39c0,0,22.09,9.43,25.609,37.8L154.28,220.03z"/>
	<path fill="#444053" d="M150.82,293.25l-1-0.25c9.85-42,11.24-68.48,3.9-74.56l0.68-0.82
		C162.14,224.06,160.92,250.22,150.82,293.25z"/>
	<path fill="#444053" d="M122.54,391.91l-1.55-0.43c1.09-3.86,2.27-7.79,3.53-11.66c11-33.72,20.14-65,25.75-88.94l1.27-0.75
		c-5.62,24-14.51,56.43-25.49,90.18C124.8,384.17,123.62,388.07,122.54,391.91z"/>
	<path fill="#444053" d="M169.59,616.31c-0.22-0.21-22.22-21.869-39.119-60.239c-9.902-22.459-16.184-46.346-18.61-70.771
		c-3-30.53,1.1-65.13,10-96.9l1.28,1.32c-20,71.31-6.19,130.339,9.229,165.4c16.73,38,38.48,59.45,38.7,59.66L169.59,616.31"/>
	<path fill="#2271FF" d="M193.81,502.1c0,0,8-1.83,13.22,3.551c0,0-3.37,3-11.271-0.33L193.81,502.1z"/>
	<path fill="#2271FF" d="M192.94,502.03c0,0-4.72,6.7-1.72,13.569c0,0,4.079-2,4-10.55L192.94,502.03z"/>
	<path fill="#2271FF" d="M187.62,491.92c0,0,2.83-6.13,16.3,1.29c0,0-1.449,4.09-7.18,4.15
		C191.01,497.42,189.33,494.94,187.62,491.92z"/>
	<path fill="#2271FF" d="M186.76,491.55c0,0-6.76-0.31-6.38,15.061c0,0,4.311,0.6,7-4.46C190.07,497.09,188.65,494.47,186.76,491.55
		z"/>
	<path fill="#2271FF" d="M182.03,479.58c0,0,3.07-10.69,17.229-4.18c0,0-2.47,9.79-15.59,7.64L182.03,479.58z"/>
	<path fill="#2271FF" d="M176.79,464.26c0,0,6.391-11,19.641-2.08c0,0-3.75,10.2-18.311,5.771L176.79,464.26"/>
	<path fill="#2271FF" d="M174.28,449.51c0,0,7.64-10.25,20.77-1.399c0,0-7.279,9-20.6,3.87L174.28,449.51"/>
	<path fill="#2271FF" d="M172.02,435.17c0,0,7.72-10.68,20.31-1.9c0,0-8.87,9.57-20.149,4.271L172.02,435.17z"/>
	<path fill="#2271FF" d="M171.92,422.31c0,0,8-13.609,19.73-5.54c0,0-8.72,11.83-19.57,8L171.92,422.31z"/>
	<path fill="#2271FF" d="M172.96,407.221c0,0,8.49-13.551,20-4.381c0,0-10.34,11.939-19.88,6.74L172.96,407.221z"/>
	<path fill="#2271FF" d="M175.18,393.64c0,0,10.27-12.88,20.279-8.68c0,0-10.689,13.66-20.529,11.94L175.18,393.64z"/>
	<path fill="#2271FF" d="M178.2,380.7c0,0,11.81-15.71,19.57-11.26c0,0-8.65,12.15-20.3,14.12L178.2,380.7z"/>
	<path fill="#2271FF" d="M182.81,365.64c0,0,10.38-12.89,18.76-10.42c0,0-8.73,13.23-20,14.31L182.81,365.64z"/>
	<path fill="#2271FF" d="M186.95,351.53c0,0,11.59-12.45,17.11-10.77c0,0-8.061,13.51-17.48,13.39L186.95,351.53z"/>
	<path fill="#2271FF" d="M191.04,338.5c0,0,9.73-14.6,15.61-13.92c0,0-5.62,12.81-15.51,15.32L191.04,338.5z"/>
	<path fill="#2271FF" d="M195.28,321.02c0,0,8.7-11.28,13.79-11.6c0,0-6.48,14.72-13.95,15.09L195.28,321.02z"/>
	<path fill="#2271FF" d="M197.69,309.4l7.59-22.76c0,0,1.8,20-8.49,27L197.69,309.4z"/>
	<path fill="#2271FF" d="M199.74,284.7c0,0,0.26-18.61-0.81-20.05c0,0,7.54,14.95,1.29,28.24L199.74,284.7z"/>
	<path fill="#2271FF" d="M181.66,479.36c0,0-9.82-5.221-15,9.5c0,0,8.771,5,16.33-5.92L181.66,479.36z"/>
	<path fill="#2271FF" d="M176.45,463.64c0,0-11.93-4.5-16.54,10.811c0,0,9.351,5.53,17.84-7.101L176.45,463.64"/>
	<path fill="#2271FF" d="M173.8,450.43c0,0-8.93-9.13-20.77,1.4c0,0,8.43,8,20.94,1.08L173.8,450.43z"/>
	<path fill="#2271FF" d="M171.74,435.19c0,0-9.07-9.551-20.38,0.829c0,0,10.07,8.29,20.54,1.54L171.74,435.19z"/>
	<path fill="#2271FF" d="M171.94,422.64c0,0-6.87-14.189-19.25-7.06c0,0,7.78,12.47,18.89,9.52L171.94,422.64z"/>
	<path fill="#2271FF" d="M173.69,407.09c0,0-6.851-14.45-19.41-6.689c0,0,8.86,13.07,18.95,9L173.69,407.09z"/>
	<path fill="#2271FF" d="M176.43,393.64c0,0-3.41-16.12-14.24-16.85c0,0,3.43,17,13,19.87L176.43,393.64z"/>
	<path fill="#2271FF" d="M178.48,380.71c0,0-2.2-19.53-11.2-19.63c0,0,1.3,14.86,10.34,22.47L178.48,380.71z"/>
	<path fill="#2271FF" d="M183.69,365c0,0-3.75-16.12-12.37-17.54c0,0,2.12,15.71,11.81,21.59L183.69,365z"/>
	<path fill="#2271FF" d="M187.96,351.58c0,0-1.229-17-6.58-19.12c0,0-2.189,15.59,5.221,21.39L187.96,351.58z"/>
	<path fill="#2271FF" d="M191.43,338.28c0,0-1.9-17.44-7.44-19.54c0,0-0.91,14,6.71,20.74L191.43,338.28z"/>
	<path fill="#2271FF" d="M196.11,322.36c0,0-1-14.21-5-17.3c0,0-2.771,15.84,3.229,20.29L196.11,322.36z"/>
	<path fill="#2271FF" d="M197.19,308.73l-5.32-23.42c0,0-3.77,19.74,5.78,27.68L197.19,308.73z"/>
	<path fill="#2271FF" d="M196.34,285.16c0,0-10.649-15.27-10.569-17.06c0,0,2.13,16.61,14.75,24.11L196.34,285.16z"/>
	<path fill="#2271FF" d="M197.14,280.38c0,0-10.561-22-14.771-23.55c0,0,13.36,5.7,15.48,22.86L197.14,280.38z"/>
	<path fill="#444053" d="M195.07,324.64l-0.63-0.15c6-25.39,6.8-41.4,2.359-45.07l0.41-0.5
		C201.92,282.82,201.18,298.64,195.07,324.64z"/>
	<path fill="#444053" d="M177.98,384.3l-0.94-0.27c0.66-2.33,1.38-4.7,2.141-7c6.63-20.39,12.17-39.3,15.56-53.77l0.77-0.46
		c-3.399,14.5-8.77,34.12-15.409,54.53C179.34,379.64,178.63,381.97,177.98,384.3z"/>
	<path fill="#444053" d="M206.42,519.96c-0.13-0.13-13.43-13.22-23.649-36.42c-5.982-13.578-9.779-28.016-11.25-42.78
		c-1.83-18.46,0.67-39.38,6.06-58.59l0.771,0.8c-12.09,43.11-3.74,78.799,5.58,100c10.119,23,23.26,35.931,23.399,36.061
		L206.42,519.96"/>
	<path fill="#AFC0E0" d="M236.5,569.96c-2.566,0.456-5.079,1.173-7.5,2.14c-53.939,21.54-53.04,162.54-53.04,162.54h-15.88
		c0,0-5-60.51-26.79-146.84c-19.63-77.67,60.88-147.279,77.23-160.479c1.84-1.471,2.859-2.25,2.859-2.25
		C294.47,454.87,236.5,569.96,236.5,569.96"/>
	<path fill="#BFCDE6" d="M210.522,427.379c-16.459,13.297-96.793,82.848-77.183,160.441c21.725,86.072,26.71,146.457,26.74,146.817
		c0,0.001,0,0.002,0,0.002l0,0h8.931c0,0-4.95-60.51-26.79-146.84c-17.239-68.17,42.718-130.153,68.708-153.194
		C210.784,432.196,210.649,429.789,210.522,427.379"/>
	<path fill="#AFC0E0" d="M504.04,587.82c-21.84,86.33-26.76,146.819-26.76,146.819h-15.91c0,0,1-147.359-56.729-163.81
		c-1.251-0.375-2.522-0.673-3.811-0.89c0,0-58-115.091,23.12-144.87c0,0,0.82,0.609,2.3,1.8
		C441.28,438.9,523.89,509.25,504.04,587.82"/>
	<path fill="#9DACC9" d="M213.76,432.13c-0.89,0.768-1.835,1.593-2.832,2.476c2.767,46.198,8.805,92.145,18.071,137.494
		c0.91-0.363,1.833-0.691,2.766-0.983C224.136,533.587,216.817,486.019,213.76,432.13 M213.38,425.09c0,0-1.02,0.78-2.859,2.25
		c0,0.012,0.001,0.026,0.002,0.039c0.016-0.014,0.032-0.026,0.048-0.039c1.642-1.297,2.613-2.058,2.819-2.218
		c0-0.009-0.001-0.021-0.001-0.029C213.383,425.091,213.385,425.092,213.38,425.09"/>
	<path fill="#ACB8CF" d="M213.389,425.122c-0.206,0.16-1.178,0.921-2.819,2.218c-0.016,0.013-0.032,0.025-0.048,0.039
		c0.126,2.41,0.262,4.817,0.406,7.227c0.997-0.883,1.942-1.708,2.832-2.476C213.629,429.812,213.505,427.464,213.389,425.122"/>
	<path fill="#D1D8E5" d="M401.833,570.126c-0.005,0.023-0.007,0.029-0.012,0.052c0.96,0.193,1.911,0.431,2.85,0.712
		c0.003-0.015,0.008-0.033,0.011-0.048c-0.014-0.004-0.027-0.008-0.042-0.012C403.715,570.553,402.779,570.317,401.833,570.126
		 M425.987,426.659c0.085,0.068,0.173,0.139,0.263,0.211c0.01,0.008,0.02,0.016,0.03,0.024c0-0.003,0-0.002,0-0.005
		C426.179,426.811,426.081,426.733,425.987,426.659"/>
	<path fill="#9DACC9" d="M423.98,425.128c0,0,0,0.001,0,0.002c-0.193,0.071-0.391,0.145-0.583,0.217
		c-2.893,44.921-9.687,93.22-21.564,144.779c0.946,0.191,1.882,0.427,2.807,0.704c0.014,0.004,0.027,0.008,0.042,0.012
		c11.07-47.32,18.292-95.461,21.598-143.947c-0.01-0.009-0.02-0.017-0.03-0.024c-0.09-0.072-0.178-0.143-0.263-0.211
		C424.708,425.656,424,425.128,423.98,425.128"/>
	<path fill="#E3E8F4" d="M396.591,591.78c-5.601,22.093-12.164,44.76-19.69,68c-11.29,34.859-35.72,37.21-122,0
		c0,0-8.62-24.3-18.101-65.61c-20.869-90.83-45.899-263.92,7.431-441.71C260.111,99.013,282.683,47.787,311.41,0
		c0,0,45.561,52.31,79,152.43C423.85,252.55,445.131,400.5,396.591,591.78"/>
	<path fill="#AFC0E0" d="M318.66,221.97c39.561,0,71.63,32.07,71.63,71.63s-32.069,71.63-71.63,71.63
		c-39.56,0-71.63-32.07-71.63-71.63S279.1,221.97,318.66,221.97"/>
	<path fill="#2271FF" d="M369.461,293.64c-0.001,28.056-22.745,50.799-50.802,50.799c-11.74,0-23.118-4.067-32.199-11.509
		c-3.632-2.991-6.835-6.467-9.52-10.33c-1.206-1.726-2.302-3.526-3.28-5.39c-3.81-7.272-5.797-15.36-5.79-23.57
		c0-0.41,0-0.81,0-1.21c0.535-22.299,15.537-41.648,37-47.72c3.993-1.1,8.102-1.725,12.24-1.86h1.521
		c28.056-0.017,50.813,22.714,50.83,50.77V293.64"/>
	<path fill="#AFC0E0" d="M390.4,152.43c-81.27,38.91-146.22,0-146.22,0C260.079,98.991,282.668,47.775,311.41,0
		C311.41,0,356.97,52.31,390.4,152.43"/>
	<path fill="#AFC0E0" d="M396.591,591.78c-3.801,14.96-8.033,30.177-12.7,45.649c-2.214,7.381-4.547,14.82-7,22.32
		c-3.68,11.25-35.72,37.21-122,0c0,0-2.801-7.89-7-22.32c-3.141-10.899-7.051-25.51-11.131-43.29c0,0,32.12,13.71,77.711,13.71
		C342.635,607.946,370.54,602.485,396.591,591.78"/>
	<path fill="#E3E8F4" d="M383.89,637.43c-2.214,7.38-4.547,14.82-7,22.32c-3.68,11.25-35.72,37.21-122,0c0,0-2.801-7.89-7-22.32
		C247.88,637.43,335.82,662.73,383.89,637.43"/>
	<path fill="#BFCDE6" d="M305.424,244.561l-0.523,0.08l-0.11,0.08l-0.013,0.017c0.032-0.009,0.062-0.018,0.093-0.026
		C305.054,244.659,305.239,244.609,305.424,244.561 M317.16,242.78l-0.601,0.091c0.184-0.008,0.367-0.015,0.551-0.021h0.009
		L317.16,242.78"/>
	<path fill="#4E8DFF" d="M317.119,242.85h-0.009c-0.184,0.006-0.368,0.013-0.551,0.021l-11.135,1.689
		c-0.185,0.049-0.37,0.099-0.554,0.149c-0.031,0.009-0.062,0.018-0.093,0.026L267.89,292.36c0,0.4,0,0.8,0,1.21
		c-0.007,8.209,1.979,16.298,5.79,23.57L317.119,242.85"/>
	<path fill="#4E8DFF" d="M312.94,283.92l-36,38.64c2.685,3.863,5.888,7.339,9.52,10.33l30.221-45.25L312.94,283.92"/>
	<path fill="#FFFFFF" d="M242.556,617.93c6.924,26.687,12.294,41.83,12.294,41.83c0.212,0.092,0.425,0.183,0.637,0.273
		c-0.194-0.084-0.392-0.169-0.587-0.253c0,0-0.135-0.38-0.389-1.125c-0.898-2.627-3.33-9.918-6.621-21.226
		c-1.602-5.559-3.403-12.082-5.326-19.5C242.561,617.93,242.56,617.93,242.556,617.93 M311.381,0.01
		c-28.731,47.773-51.311,98.985-67.2,152.42c-28.911,96.382-34.793,191.378-30.793,272.643c0.013,0.004,0.03,0.011,0.05,0.018
		c-3.998-81.257,1.886-176.259,30.793-272.631l0,0c-0.033-0.02-0.05-0.03-0.05-0.03C260.076,99,282.66,47.793,311.394,0.025
		C311.385,0.015,311.381,0.01,311.381,0.01"/>
	<path fill="#EDF3FF" d="M231.808,571.103c-0.014,0.005-0.028,0.009-0.042,0.014c1.661,8.17,3.334,15.854,4.984,23.034
		c1.998,8.704,3.958,16.652,5.807,23.779c0.003,0,0.004,0,0.008,0c-1.847-7.126-3.806-15.078-5.805-23.79
		c0,0,0.012,0.005,0.037,0.016C235.147,586.975,233.469,579.272,231.808,571.103"/>
	<path fill="#BFCDE6" d="M213.387,425.073c0,0.009,0,0.011,0.001,0.02c0.005,0.002,0.021,0.008,0.026,0.01
		c0.011-0.009,0.016-0.013,0.016-0.013c0.002,0.001,0.004,0.001,0.006,0.002v-0.001c-0.02-0.007-0.037-0.014-0.057-0.021"/>
	<path fill="#CCD7EB" d="M213.43,425.09c0,0-0.005,0.004-0.016,0.013c0.01,0.004,0.013,0.005,0.023,0.009c0-0.01,0-0.01-0.001-0.02
		C213.435,425.091,213.432,425.091,213.43,425.09"/>
	<path fill="#B1BDD4" d="M213.807,432.09c-0.016,0.015-0.03,0.026-0.046,0.04c3.056,53.889,10.376,101.457,18.005,138.986
		c0.014-0.005,0.028-0.009,0.042-0.014C224.178,533.567,216.861,485.99,213.807,432.09 M213.388,425.093
		c0,0.009,0.001,0.021,0.001,0.029c0.01-0.008,0.019-0.015,0.025-0.02C213.409,425.101,213.393,425.095,213.388,425.093"/>
	<path fill="#BDC6D9" d="M213.414,425.103c-0.006,0.005-0.015,0.012-0.025,0.02c0.115,2.342,0.24,4.689,0.371,7.008
		c0.016-0.014,0.03-0.025,0.046-0.04c-0.131-2.318-0.254-4.637-0.369-6.979C213.427,425.107,213.424,425.106,213.414,425.103"/>
	<path fill="#E9EDF6" d="M254.511,658.655c0.254,0.745,0.389,1.125,0.389,1.125c0.195,0.084,0.393,0.169,0.587,0.253
		c1.965,0.841,3.903,1.643,5.815,2.407c-2.102-0.856-4.243-1.755-6.412-2.69C254.89,659.75,254.759,659.381,254.511,658.655
		 M244.23,152.46L244.23,152.46c-28.908,96.372-34.791,191.374-30.793,272.631v0.001c0,0.01,0,0.01,0.001,0.02
		c0.115,2.342,0.238,4.66,0.369,6.979c3.054,53.9,10.371,101.478,18.001,139.013l0,0c1.661,8.17,3.338,15.872,4.988,23.053
		c0.586,0.246,8.182,3.401,20.851,6.62c-0.512-2.156-1.028-4.366-1.547-6.625c-20.569-89.531-45.179-258.966,5.175-434.046
		C250.923,156.336,244.836,152.816,244.23,152.46"/>
	<path fill="#BFCDE6" d="M311.394,0.025C282.66,47.793,260.076,99,244.18,152.43c0,0,0.017,0.01,0.05,0.029
		c0.606,0.356,6.693,3.876,17.045,7.645c0.736-2.559,1.486-5.113,2.254-7.674c14.335-48.106,34.078-94.432,58.851-138.09
		C315.834,5.164,311.663,0.334,311.394,0.025"/>
	<path fill="#BFCDE6" d="M236.76,594.14c1.999,8.712,3.958,16.664,5.805,23.79c1.923,7.418,3.725,13.941,5.326,19.5
		c3.291,11.308,5.722,18.599,6.621,21.226c0.248,0.726,0.379,1.095,0.379,1.095c2.169,0.936,4.311,1.834,6.412,2.69l0,0
		c-2.102-0.856-4.243-1.755-6.412-2.69c0,0-2.801-7.89-7-22.32c-0.003,0,8.121,2.338,20.775,4.881
		c-2.97-10.003-6.868-24.059-11.019-41.535c-12.669-3.219-20.265-6.374-20.851-6.62C236.772,594.145,236.76,594.14,236.76,594.14"/>
	<path fill="#E9EDF6" d="M247.89,637.43c4.199,14.431,7,22.32,7,22.32c2.169,0.936,4.311,1.834,6.412,2.69
		c25.801,10.32,46.836,13.846,63.54,13.846c3.343,0,6.508-0.141,9.508-0.396c-16.42-1.25-36.36-5.88-60.15-16.13
		c0,0-2.172-6.125-5.534-17.449C256.011,639.768,247.887,637.43,247.89,637.43"/>
	<path fill="#535461" d="M937.76,729.556c0.026-0.033,11.007-13.697,21.998-34.44c10.986-20.744,22.004-48.568,22.01-76.988
		c0-1.885-0.049-3.772-0.148-5.66l-0.002-0.02l0.001,0.013c-0.133-2.224-0.198-4.445-0.198-6.663
		c0-21.921,6.433-43.416,18.574-61.785l-0.004,0.006c6.458-9.603,13.783-18.593,21.884-26.857l-1.428-1.4
		c-8.187,8.353-15.59,17.437-22.116,27.143l-0.004,0.006c-12.358,18.697-18.906,40.577-18.906,62.889
		c0,2.258,0.067,4.519,0.202,6.782l-0.001-0.007c0.099,1.853,0.146,3.704,0.146,5.555c0.006,27.897-10.87,55.475-21.777,76.052
		c-5.451,10.289-10.905,18.829-14.993,24.792c-2.044,2.981-3.746,5.318-4.936,6.908c-0.595,0.795-1.062,1.403-1.379,1.812
		c-0.159,0.204-0.28,0.358-0.361,0.461s-0.12,0.151-0.12,0.152L937.76,729.556"/>
	<path fill="#2271FF" d="M1019.39,479.78c-3.34,8.109,1.66,37.68,1.66,37.68s24.37-17.479,27.71-25.59
		c3.338-8.11-0.53-17.392-8.641-20.73C1032.01,467.802,1022.729,471.67,1019.39,479.78"/>
	<path fill="#2271FF" d="M976.61,514.72c1.61,8.62,21.88,30.721,21.88,30.721s11-27.91,9.351-36.54
		c-1.607-8.624-9.901-14.313-18.525-12.705C980.691,497.802,975.003,506.096,976.61,514.72"/>
	<path fill="#2271FF" d="M946.07,591.94c5.74,6.63,34.4,15.479,34.4,15.479s-4.641-29.63-10.38-36.27
		c-5.885-6.503-15.928-7.004-22.43-1.119c-6.305,5.705-6.997,15.363-1.57,21.908L946.07,591.94"/>
	<path fill="#2271FF" d="M936.12,655.57c4.53,7.51,31.28,21.069,31.28,21.069s0.44-30-4.09-37.5
		c-4.537-7.508-14.302-9.917-21.81-5.38C933.992,638.297,931.584,648.062,936.12,655.57"/>
	<path fill="#2271FF" d="M1028.68,559.71c-8.141,3.25-37.66-2.05-37.66-2.05s17.72-24.19,25.87-27.45
		c8.146-3.256,17.39,0.709,20.646,8.855C1040.791,547.211,1036.827,556.454,1028.68,559.71"/>
	<path fill="#2271FF" d="M1016.1,633.98c-8.74,0.67-35.32-13.221-35.32-13.221s24.141-17.79,32.891-18.46
		c8.762-0.488,16.261,6.22,16.749,14.981C1030.893,625.786,1024.577,633.151,1016.1,633.98"/>
	<path fill="#2271FF" d="M993.97,704.48c-8.51,2.14-37.05-7.061-37.05-7.061s20.79-21.609,29.3-23.74
		c8.505-2.14,17.135,3.021,19.274,11.525C1007.635,693.71,1002.475,702.34,993.97,704.48"/>
	<path fill="#1955BF" d="M1034.082,469.94c-3.771,0-7.423,1.352-10.282,3.772c-1.875,1.589-3.409,3.638-4.409,6.067
		c-0.835,2.027-1.148,5.396-1.149,9.309c-0.003,11.737,2.81,28.371,2.81,28.371s24.37-17.479,27.71-25.59
		c0.814-1.98,1.2-4.03,1.199-6.046c-0.003-6.242-3.71-12.161-9.84-14.685C1038.143,470.326,1036.095,469.94,1034.082,469.94"/>
	<path fill="#1955BF" d="M992.244,495.924c-0.966,0-1.945,0.088-2.929,0.271c-6.08,1.133-10.701,5.589-12.335,11.142
		c0.104,1.987-0.214,4.299-0.556,6.108c0.045,0.424,0.106,0.849,0.186,1.274c1.61,8.62,21.88,30.721,21.88,30.721
		s9.527-24.174,9.52-34.482c-0.001-0.769-0.055-1.459-0.169-2.058C1006.417,501.26,999.744,495.924,992.244,495.924"/>
	<path fill="#1955BF" d="M975.238,583.177c-0.076,0.286-2.547,9.649,0.723,13.894c1.325,1.722,2.281,5.698,2.951,9.854
		c0.991,0.32,1.559,0.495,1.559,0.495s-0.352-2.244-0.98-5.634C978.58,596.878,977.088,589.567,975.238,583.177"/>
	<path fill="#1955BF" d="M1022.781,529.071c-1.962,0-3.957,0.366-5.891,1.139c-5.79,2.316-16.411,15.196-22.075,22.461
		c-2.31,2.961-3.795,4.989-3.795,4.989s17.291,3.104,29.056,3.104c3.605,0,6.694-0.292,8.604-1.055
		c6.221-2.486,10.003-8.465,9.994-14.779c-0.004-1.954-0.369-3.94-1.139-5.865C1035.052,532.853,1029.087,529.071,1022.781,529.071"
		/>
	<path fill="#1955BF" d="M1014.569,602.274c-0.298,0-0.598,0.009-0.898,0.025c-8.433,0.646-31.157,17.19-32.797,18.392l0.126,0.183
		c2.499,1.292,25.634,13.13,34.454,13.13c0.225,0,0.441-0.008,0.646-0.023c8.179-0.8,14.346-7.685,14.345-15.807
		c-0.001-0.296-0.009-0.594-0.025-0.893C1029.948,608.82,1022.94,602.274,1014.569,602.274"/>
	<path fill="#535461" d="M937.859,727.389c0.039-0.021,16.663-8.607,35.913-24.041c19.244-15.438,41.138-37.716,51.633-65.231
		l0.002-0.007c8.487-22.716,24.117-42.064,44.542-55.137l-0.007,0.004c9.779-6.158,20.102-11.406,30.837-15.678l-0.738-1.857
		c-10.851,4.316-21.282,9.619-31.164,15.842l-0.007,0.005h0.001c-20.79,13.306-36.699,33-45.337,56.122l0.002-0.007
		c-10.276,26.984-31.917,49.076-51.016,64.384c-9.546,7.655-18.451,13.617-24.964,17.662c-3.257,2.022-5.915,3.565-7.757,4.602
		c-0.922,0.519-1.639,0.909-2.124,1.171c-0.242,0.131-0.428,0.229-0.551,0.294c-0.124,0.065-0.184,0.096-0.184,0.096
		L937.859,727.389"/>
	<path fill="#2271FF" d="M1113.7,532.1c-6.34,6.07-13.75,35.131-13.75,35.131s29.36-6.11,35.7-12.17
		c6.352-6.062,6.587-16.124,0.525-22.476s-16.124-6.586-22.476-0.524V532.1z"/>
	<path fill="#2271FF" d="M1060.44,546.71c-2,8.54,7.55,37,7.55,37s21.29-21.07,23.351-29.66c2-8.539-3.302-17.083-11.841-19.083
		C1070.999,532.977,1062.485,538.222,1060.44,546.71z"/>
	<path fill="#2271FF" d="M1001.22,604.93c2.56,8.391,25.18,28.09,25.18,28.09s7.771-29,5.21-37.35
		c-2.557-8.392-11.433-13.122-19.825-10.564C1003.393,587.662,998.663,596.538,1001.22,604.93z"/>
	<path fill="#2271FF" d="M966.341,659.07c1.1,8.71,20.06,31.939,20.06,31.939s12.561-27.229,11.45-35.939
		c-1.104-8.701-9.054-14.859-17.755-13.755S965.236,650.369,966.341,659.07"/>
	<path fill="#2271FF" d="M1089.81,608.94c-8.771-0.32-33.6-17.131-33.6-17.131s26-14.93,34.77-14.609
		c8.765,0.323,15.608,7.69,15.285,16.455S1098.575,609.263,1089.81,608.94z"/>
	<path fill="#2271FF" d="M1048.211,671.74c-8.271-2.931-26.94-26.4-26.94-26.4s29.29-6.47,37.55-3.54
		c8.269,2.93,12.595,12.008,9.665,20.275S1056.478,674.67,1048.211,671.74z"/>
	<path fill="#2271FF" d="M999.4,727.23c-8.64-1.49-31-21.471-31-21.471s27.771-11.319,36.41-9.83
		c8.644,1.491,14.441,9.707,12.95,18.351s-9.707,14.44-18.351,12.95H999.4"/>
	<g>
		<defs>
			<path id="SVGID_1_" d="M806.581,281.983c-4.295,0-8.462,0.897-12.04,3.247c-7.021,4.61-9.811,13.68-14.561,20.77
				c-4.2,6.28-10.36,11.54-13.56,18.18c0-0.12,0.06-0.25,0.1-0.38c-0.786,1.537-1.388,3.162-1.79,4.84
				c-0.111,0.477-0.204,0.956-0.28,1.436c0.217-0.521,0.453-1.033,0.71-1.536c-0.018,0.06-0.035,0.12-0.053,0.18
				c3.204-6.517,9.24-11.696,13.323-17.87c4.71-7.05,7.35-16,14.43-20.64c3.593-2.354,7.704-3.249,11.925-3.249
				c4.097,0,8.295,0.842,12.226,2.009c3.74,1.11,7.439,2.49,11.31,3c1.153,0.142,2.308,0.2,3.462,0.2
				c5.293,0,10.599-1.232,15.918-1.38c0.448-0.015,0.897-0.021,1.345-0.021c8.687,0,17.168,2.719,24.245,7.792
				c1.678,1.098,3.103,2.54,4.181,4.23c1.29,2.28,1.46,5,1.85,7.58c0.757,4.921,2.454,9.651,5,13.93c2,3.35,4.51,6.39,6.32,9.85
				c1.735,3.318,2.781,7.215,1.842,10.81c0.01-0.02,0.019-0.04,0.028-0.06c-0.037,0.169-0.084,0.336-0.141,0.5
				c-0.219,0.684-0.482,1.352-0.79,2c0.006-0.022,0.013-0.044,0.019-0.067c-0.575,1.26-1.217,2.481-1.519,3.827
				c-1.06,4.65,2,9.09,4.091,13.38c2.023,3.913,2.982,8.289,2.779,12.69c-0.092,1.719-0.459,3.393-1.072,4.964
				c-0.01,0.028-0.021,0.057-0.031,0.084c2.232-2.656,3.564-5.984,3.754-9.499c0.204-4.43-0.766-8.834-2.81-12.77
				c-2.101-4.32-5.19-8.79-4.131-13.47c0.471-2,1.681-3.8,2.301-5.78c1.17-3.75,0.09-7.87-1.73-11.35s-4.35-6.54-6.37-9.91
				c-2.58-4.294-4.302-9.049-5.069-14c-0.41-2.6-0.57-5.34-1.881-7.63c-1.085-1.7-2.521-3.148-4.21-4.25
				c-7.147-5.112-15.708-7.851-24.474-7.852c-0.448,0-0.896,0.007-1.346,0.021c-5.336,0.188-10.66,1.401-15.964,1.401
				c-1.197,0-2.392-0.062-3.586-0.211c-3.91-0.48-7.641-1.87-11.421-3C814.959,282.813,810.711,281.983,806.581,281.983"/>
		</defs>
		<clipPath id="SVGID_2_">
			<use xlink:href="#SVGID_1_"  overflow="visible"/>
		</clipPath>
		<g transform="matrix(1 0 0 1 6.103516e-005 3.051758e-005)" clip-path="url(#SVGID_2_)">
			
				<image overflow="visible" width="567" height="421" xlink:href="A8FB6F59.jpg"  transform="matrix(0.24 0 0 -0.24 763.9802 382.6147)">
			</image>
		</g>
	</g>
	<g>
		<defs>
			<path id="SVGID_3_" d="M1011.121,664.558c-0.871,1.239-1.758,2.461-2.663,3.669l19.582,28.413c0,0,0.313,5.921-4.139,9.871
				c8.208-3.376,7.77-12.15,7.77-12.15L1011.121,664.558 M981.497,625.929c-0.065,0.95-0.142,1.898-0.229,2.846l11.231,16.298
				c2.004,1.736,3.582,3.978,4.52,6.558l10.239,14.857c0.902-1.215,1.784-2.441,2.65-3.688l-24.564-35.625
				C984.063,626.763,982.778,626.346,981.497,625.929 M978.671,625.006l0.806,1.169c0.021-0.295,0.041-0.59,0.06-0.886
				C979.248,625.195,978.96,625.101,978.671,625.006"/>
		</defs>
		<clipPath id="SVGID_4_">
			<use xlink:href="#SVGID_3_"  overflow="visible"/>
		</clipPath>
		<g transform="matrix(1 0 0 1 6.103516e-005 0)" clip-path="url(#SVGID_4_)">
			
				<image overflow="visible" width="226" height="343" xlink:href="A8FB6F5B.jpg"  transform="matrix(0.24 0 0 -0.24 978.2996 706.8545)">
			</image>
		</g>
	</g>
	<g>
		<defs>
			<path id="SVGID_5_" d="M981.703,621.894c-0.045,1.347-0.114,2.693-0.206,4.035c1.281,0.417,2.566,0.834,3.848,1.246
				L981.703,621.894 M974.893,605.592c1.63,6.959,2.146,17.048,2.146,17.048l1.631,2.366c0.289,0.095,0.577,0.189,0.865,0.283
				c0.152-2.382,0.232-4.771,0.231-7.162c0-1.851-0.048-3.702-0.146-5.555l0.001,0.007c-0.016-0.252-0.029-0.505-0.043-0.757
				c-0.181-1.574-0.401-3.249-0.667-4.897C977.937,606.611,976.552,606.156,974.893,605.592 M879.895,392.271
				c-0.078,0.004-0.157,0.008-0.235,0.011c-0.209,0.485-0.425,0.966-0.649,1.448c-0.022,0-0.045,0.001-0.067,0.001
				c-0.728,1.541-1.527,3.045-2.392,4.503c0.077,0.409,0.157,0.817,0.238,1.226c0.07,0.338,0.142,0.676,0.215,1.013
				c1.134,0.152,12.104,1.738,15.706,6.478c3.8,5,13.81,5.69,13.81,5.69s11.43,3.81,11.19,4.76c-0.24,0.949,3.329,2.39,10.479,4.29
				c7.15,1.899,19,8.81,19,10.479s18.811,20.23,18.811,22.141c0,1.909,5.72,9,5,21.659c-0.721,12.66-1.431,28.57,1.43,31.19
				c2.859,2.62,0,12.859,0,12.859c-1.55,2.288-1.608,5.273-0.15,7.62c2.38,4.29-0.47,22.15-0.47,22.15l0.229,18.57
				c0,0-0.464,2.063-0.77,4.489c1.432,2.463,2.774,6.203,3.968,10.327c0.001-0.005,0.002-0.007,0.002-0.007s3.601-5.27,0.48-5.75
				c-3.12-0.479-0.48-12.229-0.48-12.229l-0.239-18.69c0,0,2.88-18,0.479-22.28c-1.436-2.381-1.341-5.383,0.24-7.67
				c0,0,0.364-1.305,0.704-3.104c-0.057-0.548-0.086-1.094-0.086-1.635c-0.002-1.538,0.221-3.043,0.642-4.474
				c-0.083-1.591-0.435-2.974-1.26-3.727c-2.88-2.63-2.16-18.7-1.44-31.4c0.721-12.7-5.05-19.89-5.05-21.81s-19-20.61-19-22.28
				s-12-8.63-19.21-10.55s-10.81-3.351-10.57-4.311c0.24-0.96-11.29-4.79-11.29-4.79s-10.09-0.72-13.939-5.76
				c-3.851-5.04-15.59-6.479-15.931-6.53c-0.069-0.33-0.149-0.67-0.22-1c-0.069-0.33-0.149-0.72-0.22-1.08
				C879.21,393.496,879.558,392.886,879.895,392.271"/>
		</defs>
		<clipPath id="SVGID_6_">
			<use xlink:href="#SVGID_5_"  overflow="visible"/>
		</clipPath>
		<g transform="matrix(1 0 0 1 6.103516e-005 6.103516e-005)" clip-path="url(#SVGID_6_)">
			
				<image overflow="visible" width="456" height="982" xlink:href="A8FB6F5E.jpg"  transform="matrix(0.24 0 0 -0.24 876.2996 627.6543)">
			</image>
		</g>
	</g>
	<g>
		<defs>
			<path id="SVGID_7_" d="M979.579,611.822c0.014,0.252,0.027,0.505,0.043,0.757l-0.001-0.007c0.099,1.853,0.146,3.704,0.146,5.555
				c0.001,2.391-0.079,4.78-0.231,7.162c-0.019,0.296-0.039,0.591-0.06,0.886l1.792,2.6c0.087-0.947,0.163-1.896,0.229-2.846
				c0.092-1.342,0.161-2.688,0.206-4.035l-0.703-1.02c-0.145-0.074-0.22-0.114-0.22-0.114l0,0l0,0c0,0,0.032-0.023,0.094-0.068
				l-0.594-0.861C980.28,619.83,980.085,616.221,979.579,611.822"/>
		</defs>
		<clipPath id="SVGID_8_">
			<use xlink:href="#SVGID_7_"  overflow="visible"/>
		</clipPath>
		<g transform="matrix(1 0 0 1 6.103516e-005 0)" clip-path="url(#SVGID_8_)">
			
				<image overflow="visible" width="13" height="73" xlink:href="A8FB6F5F.jpg"  transform="matrix(0.24 0 0 -0.24 979.0203 629.0947)">
			</image>
		</g>
	</g>
	<g>
		<defs>
			<path id="SVGID_9_" d="M976.98,507.337c-0.421,1.431-0.644,2.936-0.642,4.474c0,0.541,0.029,1.087,0.086,1.635
				C976.766,511.636,977.084,509.324,976.98,507.337"/>
		</defs>
		<clipPath id="SVGID_10_">
			<use xlink:href="#SVGID_9_"  overflow="visible"/>
		</clipPath>
		<g transform="matrix(1 0 0 1 6.103516e-005 6.103516e-005)" clip-path="url(#SVGID_10_)">
			
				<image overflow="visible" width="6" height="29" xlink:href="A8FB6F5A.jpg"  transform="matrix(0.24 0 0 -0.24 975.9001 513.8945)">
			</image>
		</g>
	</g>
	<g>
		<defs>
			<path id="SVGID_11_" d="M971.27,572.85c-0.422,3.342-0.546,7.372,1.25,7.65c3.1,0.48-0.48,5.71-0.48,5.71
				s-2.619,9.53,0.721,13.811c0.862,1.105,1.565,3.148,2.133,5.571c1.658,0.564,3.044,1.02,4.019,1.333
				c-0.67-4.156-1.626-8.133-2.951-9.854c-3.27-4.244-0.799-13.607-0.723-13.894C974.045,579.053,972.702,575.313,971.27,572.85"/>
		</defs>
		<clipPath id="SVGID_12_">
			<use xlink:href="#SVGID_11_"  overflow="visible"/>
		</clipPath>
		<g transform="matrix(1 0 0 1 6.103516e-005 6.103516e-005)" clip-path="url(#SVGID_12_)">
			
				<image overflow="visible" width="42" height="145" xlink:href="A8FB6F55.jpg"  transform="matrix(0.24 0 0 -0.24 969.1804 607.2549)">
			</image>
		</g>
	</g>
	<g>
		<defs>
			<path id="SVGID_13_" d="M980.874,620.691c-0.062,0.045-0.094,0.068-0.094,0.068s0.075,0.04,0.22,0.114L980.874,620.691"/>
		</defs>
		<clipPath id="SVGID_14_">
			<use xlink:href="#SVGID_13_"  overflow="visible"/>
		</clipPath>
		<g transform="matrix(1 0 0 1 6.103516e-005 6.103516e-005)" clip-path="url(#SVGID_14_)">
			
				<image overflow="visible" width="4" height="4" xlink:href="A8FB6F56.jpg"  transform="matrix(0.24 0 0 -0.24 980.4597 621.1748)">
			</image>
		</g>
	</g>
	<g>
		<defs>
			<path id="SVGID_15_" d="M1009.909,662.8c-0.866,1.246-1.748,2.473-2.65,3.688l1.199,1.739c0.905-1.208,1.792-2.43,2.663-3.669
				L1009.909,662.8"/>
		</defs>
		<clipPath id="SVGID_16_">
			<use xlink:href="#SVGID_15_"  overflow="visible"/>
		</clipPath>
		<g transform="matrix(1 0 0 1 0 6.103516e-005)" clip-path="url(#SVGID_16_)">
			
				<image overflow="visible" width="19" height="26" xlink:href="A8FB6F57.jpg"  transform="matrix(0.24 0 0 -0.24 1006.8601 668.6943)">
			</image>
		</g>
	</g>
	<g>
		<defs>
			<path id="SVGID_17_" d="M672.453,512.737c-2.173,0-4.353,0.773-6.093,2.343l-10.6,9.56c-4.092,0.992-7.789,3.195-10.61,6.32
				c-2.31,2.372-4.17,5.144-5.49,8.18l-5.81,5.221c-3.204,3.974-4.092,9.267-2.488,13.993c-0.003-0.105-0.004-0.211-0.004-0.317
				c0.002-1.569,0.294-3.136,0.873-4.611c0.281-3.044,1.664-5.995,4.113-8.204l3.07-2.77c1.229-2.829,3.011-5.555,5.455-8.102
				c3.359-3.5,6.893-5.455,10.466-6.259l7.874-7.103c2.413-2.177,5.437-3.249,8.449-3.25c3.448,0,6.883,1.405,9.375,4.168
				l18.964,21.025l10.822-12.472c0,0,2.15-7.81,5.48-9s4.76-6.42,4.76-6.42s-0.039-0.389-0.007-1
				c-0.773,1.532-2.015,3.31-3.793,3.939c-3.36,1.19-5.53,9.11-5.53,9.11l-10.93,12.55l-21.59-23.899
				C677.414,513.75,674.938,512.737,672.453,512.737 M727.184,502.648c-0.415,0.615-0.983,1.192-1.754,1.672
				c-2.65,1.649-3.247,4.446-3.363,6.021c0.499-0.901,1.237-1.773,2.323-2.452C726.642,506.482,727.147,504.244,727.184,502.648
				 M732.64,488.843c-0.078,0.049-0.161,0.098-0.25,0.147c-1.965,1.096-4.7,5.313-4.487,7.527c0.926-1.666,2.26-3.253,3.348-3.857
				C732.92,491.731,732.703,490.949,732.64,488.843 M746.266,464.239c-0.979,2.44-2.169,4.509-3.786,6.041
				c-5.42,5.135-8.284,8.726-8.622,12.481c1.34-2.532,3.799-5.245,7.382-8.672C743.63,471.806,745.056,468.344,746.266,464.239
				 M792.618,421.445c-3.238,0-6.021,0.322-7.668,1.185c-6.489,3.4-19.22,6-21.14,7.9c-1.92,1.899-6.72,0.479-11,11.75
				c-0.554,1.458-1.045,2.92-1.491,4.372c0.053-0.142,0.106-0.281,0.161-0.422c4.34-11.19,9.05-9.75,11-11.66
				s14.521-4.53,20.95-7.86c1.623-0.841,4.362-1.155,7.552-1.155c8.877,0,21.233,2.436,22.679,2.727l0.06-0.041
				c0,0,0.017,0.021,0.049,0.063c0.021,0.005,0.031,0.007,0.031,0.007s0.019,0.036,0.055,0.106c0.007,0.009,0.013,0.017,0.021,0.026
				c0.005-0.044,0.01-0.089,0.015-0.133c0.155-1.348,0.238-2.703,0.25-4.061c-0.034-0.01-0.066-0.02-0.101-0.029
				c0-0.098,0-0.196-0.001-0.294C810.232,423.203,800.184,421.445,792.618,421.445"/>
		</defs>
		<clipPath id="SVGID_18_">
			<use xlink:href="#SVGID_17_"  overflow="visible"/>
		</clipPath>
		<g transform="matrix(1 0 0 1 0 6.103516e-005)" clip-path="url(#SVGID_18_)">
			
				<image overflow="visible" width="771" height="574" xlink:href="A8FB6F69.jpg"  transform="matrix(0.24 0 0 -0.24 629.3396 558.7744)">
			</image>
		</g>
	</g>
	<g>
		<defs>
			<path id="SVGID_19_" d="M643.627,576.495c-4.14,0.848-7.806,2.442-10.727,5.015c-15.706,13.851-19.61,26.879-19.203,35.69
				c0.471-8.568,4.979-20.21,18.953-32.561c3.519-3.109,8.126-4.786,13.345-5.429c-0.076-0.113-0.151-0.227-0.227-0.342
				L643.627,576.495 M763.341,568.07c0.29,0.35,0.471,0.777,0.52,1.229l-1.52-0.34l-1.541-0.377l-1.981,3.018
				c0.747,0.193,1.481,0.373,2.192,0.539l0,0l0,0c0.521,0.121,1.027,0.234,1.518,0.341c-0.114-0.613-0.284-1.046-0.518-1.261
				c0,0,9.953,0.409,19.525,1.174c0.017-1.201,0.014-2.295-0.008-3.266C772.36,568.438,763.341,568.07,763.341,568.07"/>
		</defs>
		<clipPath id="SVGID_20_">
			<use xlink:href="#SVGID_19_"  overflow="visible"/>
		</clipPath>
		<g transform="matrix(1 0 0 1 6.103516e-005 0)" clip-path="url(#SVGID_20_)">
			
				<image overflow="visible" width="704" height="208" xlink:href="6C5717E2.jpg"  transform="matrix(0.24 0 0 -0.24 613.0203 617.5752)">
			</image>
		</g>
	</g>
	<g>
		<defs>
			<path id="SVGID_21_" d="M759.957,616.825c-0.678,0.197-1.356,0.396-2.034,0.593c4.631,1.881,12.335,3.702,17.828,6.602l0,0
				c0.13-0.45,0.259-0.931,0.387-1.439C768.704,620.605,762.075,618.296,759.957,616.825"/>
		</defs>
		<clipPath id="SVGID_22_">
			<use xlink:href="#SVGID_21_"  overflow="visible"/>
		</clipPath>
		<g transform="matrix(1 0 0 1 6.103516e-005 6.103516e-005)" clip-path="url(#SVGID_22_)">
			
				<image overflow="visible" width="79" height="33" xlink:href="6C5717E5.jpg"  transform="matrix(0.24 0 0 -0.24 757.4998 624.2949)">
			</image>
		</g>
	</g>
	<g>
		<defs>
			<path id="SVGID_23_" d="M705.964,594.743c2.869,1.381,4.537,2.267,4.537,2.267s42.14,14.78,43.569,17.851
				c0.431,0.925,1.855,1.746,3.853,2.558c0.678-0.197,1.356-0.396,2.034-0.593c-0.412-0.286-0.653-0.541-0.696-0.755
				c-0.046-0.228-0.026-0.754,0.044-1.521c-2.014-0.816-3.45-1.646-3.884-2.58c-1.048-2.254-23.844-10.75-36.2-15.217l-1.73,0.177
				L705.964,594.743"/>
		</defs>
		<clipPath id="SVGID_24_">
			<use xlink:href="#SVGID_23_"  overflow="visible"/>
		</clipPath>
		<g transform="matrix(1 0 0 1 6.103516e-005 6.103516e-005)" clip-path="url(#SVGID_24_)">
			
				<image overflow="visible" width="228" height="98" xlink:href="6C5717E6.jpg"  transform="matrix(0.24 0 0 -0.24 705.6599 617.8145)">
			</image>
		</g>
	</g>
	<g>
		<defs>
			<path id="SVGID_25_" d="M975.125,712.138c-0.849,2.717-2.036,5.99-3.658,9.478c0.675,0.086,1.351,0.173,2.019,0.259
				c0.981-1.917,1.832-3.796,2.565-5.583C975.778,714.858,975.47,713.438,975.125,712.138 M679.998,693.464l-0.208,0.267
				l-0.329,0.46l-0.391,0.58c-0.109,0.149-0.21,0.31-0.31,0.47c-0.101,0.16-0.28,0.45-0.41,0.689l-0.271,0.46
				c-0.159,0.301-0.329,0.61-0.489,0.931l-0.16,0.31c-0.2,0.42-0.4,0.851-0.59,1.3c-0.07,0.16-0.13,0.33-0.2,0.49
				c-0.12,0.311-0.25,0.63-0.37,1s-0.15,0.41-0.22,0.62c-0.07,0.21-0.21,0.62-0.311,0.94c-0.1,0.319-0.14,0.449-0.2,0.67
				c-0.06,0.22-0.199,0.699-0.289,1.06c-0.091,0.36-0.11,0.42-0.17,0.65c-0.012,0.047-0.022,0.095-0.034,0.143
				c1.23-4.069,2.955-7.099,4.823-9.353c0.357-0.435,0.72-0.84,1.085-1.219C680.635,693.777,680.315,693.622,679.998,693.464"/>
		</defs>
		<clipPath id="SVGID_26_">
			<use xlink:href="#SVGID_25_"  overflow="visible"/>
		</clipPath>
		<g transform="matrix(1 0 0 1 0 0)" clip-path="url(#SVGID_26_)">
			
				<image overflow="visible" width="1257" height="121" xlink:href="6C5717E4.jpg"  transform="matrix(0.24 0 0 -0.24 674.7 722.2148)">
			</image>
		</g>
	</g>
	<g>
		<defs>
			<path id="SVGID_27_" d="M971.467,721.615c-3.476,7.477-8.944,15.933-17.338,21.971c9.251-5.53,15.38-13.94,19.356-21.712
				C972.817,721.788,972.141,721.701,971.467,721.615"/>
		</defs>
		<clipPath id="SVGID_28_">
			<use xlink:href="#SVGID_27_"  overflow="visible"/>
		</clipPath>
		<g transform="matrix(1 0 0 1 6.103516e-005 6.103516e-005)" clip-path="url(#SVGID_28_)">
			
				<image overflow="visible" width="83" height="95" xlink:href="6C5717E3.jpg"  transform="matrix(0.24 0 0 -0.24 953.8201 744.0547)">
			</image>
		</g>
	</g>
	<g>
		<defs>
			<path id="SVGID_29_" d="M991.24,723.452c-0.303,0.229-0.627,0.498-0.938,0.804c0.595,0.092,1.187,0.185,1.774,0.277
				c0.04-0.163,0.093-0.321,0.155-0.477C991.905,723.861,991.573,723.659,991.24,723.452"/>
		</defs>
		<clipPath id="SVGID_30_">
			<use xlink:href="#SVGID_29_"  overflow="visible"/>
		</clipPath>
		<g transform="matrix(1 0 0 1 6.103516e-005 0)" clip-path="url(#SVGID_30_)">
			
				<image overflow="visible" width="11" height="7" xlink:href="6C5717FD.jpg"  transform="matrix(0.24 0 0 -0.24 990.0603 724.8545)">
			</image>
		</g>
	</g>
	<g>
		<defs>
			<path id="SVGID_31_" d="M896.536,754.352c-0.835,0.037-1.679,0.073-2.523,0.108c0.524,10.991,0.927,21.063,1.075,24.886
				c1.538-0.063,2.513-0.115,2.513-0.115S897.17,767.695,896.536,754.352 M990.302,724.256c-1.383,1.357-2.509,3.42-0.352,5.714
				c3.171,3.37,11.283,10.36,3.499,16.18c13.043-6.151,3.314-14.434-0.249-18.209c-1.156-1.226-1.379-2.385-1.124-3.407
				C991.488,724.44,990.896,724.348,990.302,724.256"/>
		</defs>
		<clipPath id="SVGID_32_">
			<use xlink:href="#SVGID_31_"  overflow="visible"/>
		</clipPath>
		<g transform="matrix(1 0 0 1 0 6.103516e-005)" clip-path="url(#SVGID_32_)">
			
				<image overflow="visible" width="472" height="233" xlink:href="6C5717FE.jpg"  transform="matrix(0.24 0 0 -0.24 893.5798 779.8145)">
			</image>
		</g>
	</g>
	<g>
		<defs>
			<path id="SVGID_33_" d="M992.5,645.072l4.52,6.558C996.082,649.05,994.504,646.809,992.5,645.072"/>
		</defs>
		<clipPath id="SVGID_34_">
			<use xlink:href="#SVGID_33_"  overflow="visible"/>
		</clipPath>
		<g transform="matrix(1 0 0 1 6.103516e-005 6.103516e-005)" clip-path="url(#SVGID_34_)">
			
				<image overflow="visible" width="21" height="30" xlink:href="6C5717FC.jpg"  transform="matrix(0.24 0 0 -0.24 992.2195 651.8945)">
			</image>
		</g>
	</g>
	<g>
		<defs>
			<path id="SVGID_35_" d="M1000.659,710.938c-4.099,1.181-3.9,3.252-3.568,5.223c0.52,3.09-4.521,6.43-4.521,6.43
				s-0.604,0.313-1.33,0.862c0.333,0.207,0.665,0.409,0.991,0.604c0.856-2.122,3.619-3.547,3.619-3.547s5-3.35,4.56-6.47
				C1000.26,712.982,1000.131,711.898,1000.659,710.938"/>
		</defs>
		<clipPath id="SVGID_36_">
			<use xlink:href="#SVGID_35_"  overflow="visible"/>
		</clipPath>
		<g transform="matrix(1 0 0 1 6.103516e-005 6.103516e-005)" clip-path="url(#SVGID_36_)">
			
				<image overflow="visible" width="43" height="57" xlink:href="6C5717E7.jpg"  transform="matrix(0.24 0 0 -0.24 990.78 724.375)">
			</image>
		</g>
	</g>
	<path fill="#434175" d="M976.99,704.79c0,0-6.659,40.229-40.47,46.18s-146.66,4.761-146.66,4.761s-64.52-9.28-87.85-63.801
		c-23.33-54.52-38.33-76.189-18.33-77.14s127.85,36.43,134,36.9c1.7,0.13,15.093-6.146,33.457-12.42
		C899.194,622.849,981.295,606.428,976.99,704.79"/>
	<path fill="#403E6F" d="M970.225,681.973c-1.146,6.886-2.675,11.397-2.675,11.397c-8.107,14.895-17.69,19.594-26.575,19.594
		c-0.814,0-1.623-0.039-2.425-0.114c-2.226-0.208-4.446-0.311-6.663-0.311c-13.309,0-26.392,3.68-38.178,10.091
		c-0.518,0.281-1.037,0.551-1.558,0.81c0.653,7.45,1.321,19.721,1.86,31.021c17.537-0.729,33.09-1.833,42.508-3.49
		c24.671-4.342,34.885-26.935,38.604-38.832c-0.701-2.641-1.553-4.781-2.555-5.497c-3.33-2.381-2.859-13.811-2.859-13.811
		S973.047,686.326,970.225,681.973 M735.26,648.664c3.193,2.949,6.458,6.329,9.683,10.196c1.568,1.444,2.63,2.603,2.987,3.35
		c0.238,0.497,0.51,0.984,0.807,1.46c0.159,0.213,0.315,0.425,0.474,0.64l-0.119-0.095c3.033,4.478,8.129,7.755,8.129,7.755
		s9.75,10.71,15,11.37c3.35,0.43,7.88,2.99,10.7,4.771c1.49,0.914,2.454,1.628,2.608,1.743c0.163,0.002,0.343,0.003,0.537,0.003
		c0.488,0,1.067-0.007,1.704-0.026c2.722-0.069,6.519-0.429,8.908-1.718l-2.098-1.342c0.005-0.001,0.01-0.002,0.016-0.004
		L735.26,648.664 M705.091,629.29c0.401,0.274,1.266,0.867,2.482,1.708l-0.522-0.418c0,0,0.035,0.012,0.103,0.034L705.091,629.29"/>
	<path fill="#565387" d="M674.35,749.54c0,0,3.37,8.88,12.64,9.51c1.36,0.096,2.728,0.022,4.07-0.22
		c12.38-2.14,41.43-7.14,51.66-5.24c6.16,1.15,17.55-0.55,25.66-2.08c5.399-1,9.34-2,9.34-2s-9.521-31.66-10.72-32.609
		c-1.2-0.95-42.851-25.95-42.851-25.95l-33-2.37h-0.1c0,0-6.11,0.41-11.181,6.57c-3.489,4.21-6.479,11.13-6.68,22.47
		C672.73,745.49,674.35,749.54,674.35,749.54"/>
	<path fill="#2E344A" d="M673.219,736.114c0.156,5.884,0.455,9.278,0.707,11.181C673.675,745.395,673.376,742.003,673.219,736.114"
		/>
	<path fill="#524F80" d="M680.97,693.938c-3.929,4.054-7.555,11.175-7.771,23.672c-0.137,7.953-0.102,13.968,0.019,18.504
		c0.157,5.889,0.456,9.28,0.707,11.181c0.232,1.761,0.425,2.245,0.425,2.245s3.37,8.88,12.64,9.51c-3.253-4.181-6.258-8.548-9-13.08
		l0.17-23.09c-0.938-11.045,2.023-19.551,5.948-25.796c-0.304-0.133-0.606-0.264-0.908-0.394c-1.13-0.521-2.229-0.99-3.319-1.521
		c0.36-0.438,0.727-0.847,1.095-1.229C680.973,693.94,680.971,693.939,680.97,693.938"/>
	<path fill="#4D4B79" d="M684.99,695.741c-0.299,0.436-0.593,0.884-0.882,1.343c23.172,10.146,51.261,30.655,53.382,34.366
		c1.3,2.32,18,12.46,30.891,20.06c0.743-0.138,1.459-0.275,2.141-0.41l-0.059-0.188c-13.028-7.679-30.95-18.49-32.303-20.893
		C736.054,726.319,708.123,705.919,684.99,695.741"/>
	<path fill="#4A4773" d="M680.975,693.94c-0.368,0.383-0.734,0.792-1.095,1.229c1.09,0.53,2.189,1,3.319,1.521
		c0.302,0.13,0.604,0.261,0.908,0.394c0.289-0.459,0.583-0.907,0.882-1.343c-0.372-0.163-0.74-0.323-1.109-0.481
		C682.899,694.839,681.931,694.399,680.975,693.94"/>
	<path fill="#434175" d="M615.12,626.93c3.091,7.62,29,36.91,29,36.91s16.42,21.42,39.761,31.42c23.34,10,52.14,31,54.279,34.76
		c1.38,2.45,20,13.65,33.08,21.351l2.931,1.71l6.5,3.77l3.439,2c0,0,8-6.399,15.91-12.84c7.91-6.439,15.63-12.75,15.76-13.109
		c0.23-0.711,3.32-8.811,2.61-9.28c-0.37-0.25-2-3.55-5-7.37c-3.202-4.24-7.357-7.666-12.13-10c-11-5-15.71-16.38-15.71-16.38
		s-1-0.76-2.63-1.76c-2.82-1.78-7.351-4.341-10.7-4.771c-5.25-0.66-15-11.37-15-11.37s-6.67-4.29-9.29-9.76
		c-2.5-5.22-39.42-30.58-42.84-32.92l89.51,57.479l21.42,13.771l30.71-24l48.34-47.62c0,0-6.5-0.32-16-0.72
		c-23.49-1-65.21-2.61-70.479-1.42c-4.291,0.999-8.717,1.286-13.101,0.85c0,0-11.88,0.54-19.739-3.61
		c-7.86-4.149-20.25-6.09-21.681-9.159c-1.43-3.07-43.569-17.851-43.569-17.851s-57.37-30.47-77.851-12.37
		C612.171,602.74,612.02,619.32,615.12,626.93"/>
	<path fill="#EE8E9E" d="M800.1,452.19l7.38,24.52l9.521,55.23l35,2.38l10.13-16.801l10.149-16.77c0,0,6.3-22.32,10.83-43.91
		c4-19.1,6.62-37.64,2.26-39.65c-3.859-1.789-6.399-8.219-8-15.14c-0.21-0.85-0.399-1.72-0.58-2.59
		c-1.166-5.858-1.94-11.789-2.319-17.75c0,0-73.33-3.8-63.09,26.431c1.827,5.164,2.761,10.602,2.76,16.079
		c-0.011,1.367-0.094,2.732-0.25,4.09C812.837,437.849,807.835,446.51,800.1,452.19"/>
	<path fill="#E3E8F4" d="M784.86,448.14l2.62,41.66l5.95,35.47l6.67,16.431l5.95,89.88c0,0,57.41,6.64,71.37-0.12
		c1.006-0.43,1.88-1.12,2.529-2c16.86-25.43,11.33-99.19,11.33-99.19l6.431-47.63l-4.29-24.72l-10.351-1.1l-8-0.851
		c0,0-1.8,2.221-4.399,5.65c-7.061,9.32-20,27.65-19.17,35.3c1.18,10.48-1.431,21.19-5.48,22.86s-7.38,4.52-8.09,1.67
		c-0.71-2.851-1.43-3.57-0.72-7.62s-3.101-16.43-3.101-16.43s-6.42-14.521-6-20.71c0.42-6.19-0.71-13.341-2.62-15
		c-1.909-1.66-4.52-3.341-2.38-11c2.141-7.66-9.39-22.45-9.39-22.45L784.86,448.14"/>
	<path fill="#D6808E" d="M876.68,401.561l-7.4,50.399c0,0,0.62,4.54,0.84,9.22c0.018,0.37,0.033,0.74,0.046,1.108
		c0.171-0.227,0.34-0.45,0.505-0.668c0.264-0.349,0.52-0.685,0.766-1.007c-0.202-4.819-0.866-9.623-0.866-9.623l6.17-49.18
		C876.72,401.727,876.7,401.645,876.68,401.561"/>
	<path fill="#CCD0DB" d="M871.436,460.613c-0.246,0.322-0.502,0.658-0.766,1.007c-0.165,0.218-0.334,0.441-0.505,0.668
		c0.104,3.102-0.011,6.09-0.646,7.762c-1.67,4.29-0.479,11.91-0.479,11.91c-4.29,7.56-6.431,21.57-7.48,35.1
		c-1.41,17.99-0.87,35.131-0.87,35.131l0.628,18.781c0.489,0.028,0.947,0.085,1.348,0.148l-0.665-19.9
		c0,0-1.671-52.609,8.329-70.229c0,0-1.189-7.62,0.48-11.9C871.496,467.333,871.578,463.97,871.436,460.613"/>
	<path fill="#565387" d="M876.91,400.46c0,0,12,1.49,15.801,6.49c3.8,5,13.81,5.69,13.81,5.69s11.43,3.81,11.19,4.76
		c-0.24,0.949,3.329,2.39,10.479,4.29c7.15,1.899,19,8.81,19,10.479s18.811,20.23,18.811,22.141c0,1.909,5.72,9,5,21.659
		c-0.721,12.66-1.431,28.57,1.43,31.19c2.859,2.62,0,12.859,0,12.859c-1.55,2.288-1.608,5.273-0.15,7.62
		c2.38,4.29-0.47,22.15-0.47,22.15l0.229,18.57c0,0-2.619,11.659,0.48,12.14s-0.48,5.71-0.48,5.71s-2.619,9.53,0.721,13.811
		c3.34,4.279,4.279,22.619,4.279,22.619l51,74c0,0,0.721,13.57-15.47,13.33c-16.189-0.239-16,3.101-15.479,6.19
		c0.52,3.09-4.521,6.43-4.521,6.43s-6.43,3.33-2.62,7.38c3.811,4.051,14.761,13.33-3.33,19.521c-2.141-2.94-3.901-6.139-5.239-9.521
		c-1.536-4.2-2.809-8.491-3.811-12.85c0,0-1.67-18.1-5-20.479c-3.33-2.381-2.859-13.811-2.859-13.811s4.76-9.28-1.9-13.09
		c-6.66-3.811-103.43-57.33-103.43-57.33l-2.38-71.19c0,0-1.671-52.609,8.329-70.229c0,0-1.189-7.62,0.48-11.9s-0.24-18.1-0.24-18.1
		L876.91,400.46"/>
	<path fill="#3C3A69" d="M774.254,629.563c0.434,2.533,22.745,2.745,30.178,2.745c1.488,0,2.379-0.009,2.379-0.009
		s0.01-0.222,0.029-0.631c-0.515-0.057-0.789-0.089-0.789-0.089l-0.029-0.442c-0.014,0.288-0.021,0.442-0.021,0.442
		s-0.886,0.009-2.368,0.009C796.986,631.589,778.38,631.419,774.254,629.563"/>
	<path fill="#D6808E" d="M814.271,428.972c0.199,0.269,0.444,0.605,0.727,1.001c-0.306-0.607-0.487-0.953-0.487-0.953
		S814.428,429.003,814.271,428.972"/>
	<path fill="#CCD0DB" d="M806.19,627.681c-0.082,1.632-0.141,2.847-0.169,3.457l0.029,0.442c0,0,0.274,0.032,0.789,0.089
		c0.034-0.729,0.098-2.054,0.185-3.784C806.747,627.814,806.469,627.746,806.19,627.681 M814.122,428.941
		c1.609,3.206,8.596,17.658,5.648,21.289c-3.32,4.09-6.06,21.659-6.06,21.659s0.34,29.29-2.75,38.101
		c-3.091,8.81-2.86,42.14-2.86,42.14s0.748,12.048,1.17,23.093c0.261-0.058,0.517-0.112,0.767-0.163
		c-0.427-10.798-1.137-22.22-1.137-22.22s-0.24-33.33,2.86-42.14c3.1-8.811,2.75-38.061,2.75-38.061s2.74-17.569,6.069-21.67
		c2.866-3.528-3.698-17.245-5.582-20.997c-0.282-0.396-0.527-0.732-0.727-1.001C814.227,428.963,814.177,428.952,814.122,428.941"/>
	<path fill="#565387" d="M813.801,428.31c0,0-23.94-4.93-30.37-1.6s-19,5.95-20.95,7.86s-6.66,0.47-11,11.66
		c-4.34,11.189-4.76,22.619-10.24,27.859c-5.479,5.24-8.33,8.811-8.569,12.62c-0.24,3.81,0.72,4.76-1.42,5.95
		c-2.141,1.189-5.24,6.189-4.29,8.09c0.949,1.9,49.52,43.811,49.52,43.811s2.38,16,4.521,20c2.14,4-2.381,59.75-7.141,63.56
		s32.141,3.46,32.141,3.46s1.67-36.55,3.1-38.45c1.43-1.899-1-41-1-41s-0.23-33.33,2.86-42.14c3.09-8.811,2.75-38.101,2.75-38.101
		s2.739-17.569,6.06-21.659C823.091,446.14,813.801,428.31,813.801,428.31"/>
	<path fill="#D1D8E5" d="M814.017,422.726c0.012,0.399,0.02,0.8,0.021,1.2c0.034,0.006,0.067,0.013,0.101,0.019
		c-0.002-0.396-0.009-0.792-0.021-1.188C814.083,422.745,814.052,422.736,814.017,422.726"/>
	<g>
		<defs>
			<path id="SVGID_37_" d="M814.039,423.926c0.001,0.098,0.001,0.196,0.001,0.294c0.034,0.01,0.066,0.02,0.101,0.029
				c0-0.01,0-0.02,0-0.029c0-0.092,0-0.184-0.001-0.275C814.106,423.938,814.073,423.932,814.039,423.926"/>
		</defs>
		<clipPath id="SVGID_38_">
			<use xlink:href="#SVGID_37_"  overflow="visible"/>
		</clipPath>
		<g transform="matrix(1 0 0 1 6.103516e-005 3.051758e-005)" clip-path="url(#SVGID_38_)">
			
				<image overflow="visible" width="4" height="4" xlink:href="6C5717E9.jpg"  transform="matrix(0.24 0 0 -0.24 813.6599 424.6152)">
			</image>
		</g>
	</g>
	<path fill="#D6808E" d="M876.476,398.361c-9.505,15.934-26.906,26.612-46.808,26.63c-0.019,0-0.032,0-0.051,0
		c-5.384,0-10.587-0.781-15.5-2.235c0.013,0.396,0.02,0.792,0.021,1.188c0.001,0.092,0.001,0.184,0.001,0.275c0,0.01,0,0.02,0,0.029
		c5.106,1.502,10.295,2.226,15.416,2.226c19.011,0,37.14-9.96,47.134-27.015C876.617,399.094,876.546,398.728,876.476,398.361"/>
	<path fill="#EE8E9E" d="M775.1,370.52c0.026,30.111,24.458,54.499,54.568,54.471c30.11-0.026,54.498-24.458,54.472-54.568
		c-0.026-30.11-24.458-54.499-54.568-54.472c-25.744,0.023-47.965,18.051-53.292,43.238
		C775.493,362.915,775.097,366.712,775.1,370.52"/>
	<path fill="#565387" d="M740.1,496.7l-13.09,4.05c0,0,1.189,4.76-2.62,7.14c-3.811,2.38-3.33,7.15-3.33,7.15s-1.43,5.229-4.76,6.42
		s-5.48,9-5.48,9l-10.95,12.62c0,0-4.05,3.33-3.33,5c0.721,1.67-4.289,2.14-4.289,2.14l2.619,42.42l22.62,4.29l14-1.43l11.431-4.29
		l10-6l4.56-11.57l20-30.47L740.1,496.7"/>
	<path fill="#EE8E9E" d="M695.58,553.64c0,0-29-41.909-50.71-19.29c-21.71,22.62,8.811,59.28,15.95,58.091
		c7.141-1.19,41.19-3.091,41.19-3.091L695.58,553.64"/>
	<path fill="#30374E" d="M635.526,548.672l26.865-24.233c5.176-4.668,13.156-4.257,17.824,0.919l29.846,33.089
		c4.668,5.175,4.257,13.155-0.919,17.823l-26.866,24.232c-5.175,4.668-13.155,4.257-17.823-0.918l-29.846-33.089
		C629.939,561.319,630.35,553.34,635.526,548.672"/>
	<path fill="#2B3146" d="M632.231,553.425c-0.579,1.476-0.871,3.042-0.873,4.611c-0.002,3.016,1.07,6.043,3.249,8.459l29.846,33.089
		c2.491,2.762,5.926,4.167,9.375,4.167c3.013,0,6.035-1.072,8.448-3.249l14.041-12.665c-0.635-0.332-1.259-0.671-1.877-1.02
		l-11.346,10.233c-2.413,2.177-5.437,3.25-8.449,3.25c-3.448,0-6.883-1.405-9.374-4.168l-29.846-33.089
		C632.967,560.317,631.917,556.813,632.231,553.425"/>
	<path fill="#30374E" d="M636.344,545.221l26.865-24.232c5.176-4.669,13.155-4.258,17.824,0.918l29.845,33.089
		c4.669,5.175,4.258,13.155-0.918,17.823l-26.866,24.232c-5.176,4.669-13.155,4.258-17.823-0.918l-29.846-33.089
		C630.758,557.868,631.169,549.889,636.344,545.221"/>
	<path fill="#2271FF" d="M672.39,547.17c7.494,0,13.57,6.075,13.57,13.57c0,7.494-6.076,13.569-13.57,13.569
		c-7.495,0-13.57-6.075-13.57-13.569C658.82,553.245,664.895,547.17,672.39,547.17"/>
	<path fill="#1F65E5" d="M672.39,547.17c-7.495,0-13.57,6.075-13.57,13.57c0,7.494,6.075,13.569,13.57,13.569
		c2.476,0,4.796-0.663,6.794-1.82c-1.561-3.037-2.433-6.389-2.404-10.079c0.039-5.362,1.964-9.004,5.145-11.326
		C679.473,548.664,676.106,547.17,672.39,547.17"/>
	<circle fill="#2271FF" cx="673.15" cy="559.02" r="13.57"/>
	<path fill="#EE8E9E" d="M676.78,562.41c-0.24,31.43,64.76,38.09,64.76,38.09l16.601,2.64l7.439,1.181l3.101-30.681
		c0,0-3.41-0.51-7.67-1.5c-6.29-1.47-14.44-4-16.15-7.55C742.01,558.64,677.01,530.99,676.78,562.41"/>
	<path fill="#D6808E" d="M818.884,367.981c0.023,0.958,0.104,1.905,0.367,2.799c1.31,4.42,6.59,6.18,11.159,6.76
		c4.57,0.58,9.721,0.9,12.771,4.35c1.341,1.521,2.062,3.465,2.31,5.489c-0.041-2.526-0.745-5.04-2.399-6.909
		c-3.061-3.45-8.21-3.78-12.78-4.35c-4.57-0.57-9.85-2.33-11.15-6.75C819.026,368.919,818.939,368.454,818.884,367.981
		 M807.085,355.957c-1.238,0-2.466,0.162-3.654,0.533c-0.03,0.01-0.061,0.02-0.09,0.03c-5.444,1.881-8.967,7.859-14.29,9.575
		c-0.544,0.179-1.105,0.314-1.69,0.396c-0.291,0.053-0.584,0.079-0.877,0.079c-0.673,0-1.341-0.138-1.963-0.409
		c-2.4-1.2-2.5-4.66-4.34-6.6c-0.964-1.021-2.217-1.482-3.589-1.727c-0.109,0.451-0.214,0.903-0.312,1.357l0,0
		c1.5,0.11,2.914,0.74,4,1.78c1.84,1.95,1.94,5.41,4.33,6.61c0.623,0.271,1.291,0.409,1.964,0.409c0.292,0,0.586-0.026,0.876-0.079
		c6.33-0.9,10-8,16.07-10c1.188-0.385,2.419-0.551,3.659-0.551c2.368,0,4.772,0.608,6.991,1.461c1.359,0.426,2.578,1.21,3.529,2.27
		c0.677,0.891,0.966,1.923,1.088,3.023c-0.025-1.626-0.202-3.179-1.178-4.443c-0.951-1.058-2.171-1.839-3.53-2.26
		C811.854,356.55,809.452,355.957,807.085,355.957"/>
	<g>
		<defs>
			<path id="SVGID_39_" d="M879.66,392.282c-0.02,0.001-0.039,0.002-0.059,0.002c-0.212,0.486-0.432,0.969-0.658,1.447
				c0.022,0,0.045-0.001,0.067-0.001C879.235,393.249,879.451,392.767,879.66,392.282"/>
		</defs>
		<clipPath id="SVGID_40_">
			<use xlink:href="#SVGID_39_"  overflow="visible"/>
		</clipPath>
		<g transform="matrix(1 0 0 1 0 3.051758e-005)" clip-path="url(#SVGID_40_)">
			<image overflow="visible" width="5" height="9" xlink:href="6C571819.jpg"  transform="matrix(0.24 0 0 -0.24 878.7 394.1348)">
			</image>
		</g>
	</g>
	<path fill="#D6808E" d="M859.045,388.886c-0.354,0.001-0.701,0.033-1.034,0.104c-2.78,0.57-2.431,2.27-3.601,4.32
		c-0.829,1.444-2.853,2.288-4.799,2.288c-1.855,0-3.642-0.766-4.261-2.508c-0.039-0.165-0.072-0.331-0.1-0.497
		c-0.019,0.643,0.048,1.288,0.199,1.917c0.613,1.736,2.39,2.493,4.238,2.493c1.952,0,3.985-0.845,4.813-2.272
		c1.18-2.05,0.819-3.75,3.6-4.32c0.349-0.072,0.708-0.104,1.073-0.104c1.609,0,3.339,0.615,4.757,1.104
		c4.483,1.547,9.191,2.335,13.93,2.335c0.361,0,0.722-0.005,1.083-0.014c0.227-0.478,0.446-0.961,0.658-1.447
		c-0.13,0.006-0.261,0.011-0.391,0.015c-0.483,0.016-0.966,0.024-1.448,0.024c-0.117,0-0.233,0-0.351-0.001
		c-4.63-0.035-9.228-0.822-13.611-2.333C862.381,389.503,860.632,388.892,859.045,388.886"/>
	<path fill="#434175" d="M845.421,393.07c-0.27-1.121-0.27-2.289,0-3.41c0.43-3.23-0.11-6.77-2.271-9.21
		c-3-3.45-8.2-3.78-12.77-4.35c-4.57-0.57-9.851-2.33-11.16-6.75c-0.94-3.19,0.479-7.07-1.55-9.7
		c-0.946-1.06-2.163-1.841-3.521-2.26c-3.39-1.31-7.2-2-10.66-0.92c-6.069,2-9.739,9.12-16.069,10
		c-0.959,0.174-1.947,0.059-2.841-0.33c-2.39-1.2-2.489-4.66-4.329-6.6c-2.891-3.06-8.381-1.09-11.921-3.36
		c-2.31-1.49-3.199-4.38-3.84-7.05c-1.26-5.18-2.27-10.61-1.06-15.79c2.07-8.86,10-14.93,15-22.49c4.71-7.05,7.35-16,14.43-20.64
		c7.08-4.64,16.17-3.61,24.15-1.24c3.74,1.11,7.439,2.49,11.31,3c6.44,0.79,12.9-1,19.38-1.18c9.152-0.296,18.147,2.436,25.59,7.77
		c1.678,1.098,3.103,2.54,4.181,4.23c1.29,2.28,1.46,5,1.85,7.58c0.757,4.921,2.454,9.651,5,13.93c2,3.35,4.51,6.39,6.32,9.85
		c1.81,3.46,2.87,7.55,1.71,11.27c-0.61,2-1.82,3.73-2.271,5.74c-1.06,4.65,2,9.09,4.091,13.38c2.023,3.913,2.982,8.289,2.779,12.69
		c-0.236,4.429-2.301,8.561-5.699,11.41c-3.37,2.64-7.801,3.52-12.07,3.66c-5.225,0.176-10.438-0.606-15.38-2.31
		c-1.75-0.6-4-1.39-5.83-1c-2.78,0.57-2.42,2.27-3.601,4.32C852.85,396.109,846.68,396.641,845.421,393.07"/>
	<path fill="#393864" d="M794.596,686.767c-0.006,0.002-0.011,0.003-0.016,0.004l2.098,1.342c0.002-0.001,0.004-0.002,0.005-0.003
		l-2.083-1.34L794.596,686.767"/>
	<path fill="#3C3A69" d="M876.431,634.275c-0.23,0.05-0.458,0.099-0.688,0.146c-0.006,0.079-0.011,0.158-0.014,0.238
		c-0.098,2.356-2.259,2.872-5.238,2.872c-1.159,0-2.441-0.078-3.774-0.156c-1.333-0.077-2.717-0.155-4.078-0.155
		c-2.422,0-4.772,0.247-6.639,1.18c-6.639,3.319-39.07,44.801-44.944,44.801c-0.019,0-0.037,0-0.056-0.001
		c-3.285-0.155-6.17-1.089-8.484-1.089c-1.716,0-3.118,0.514-4.136,2.238c-0.051,0.094-0.107,0.185-0.17,0.271
		c-0.946,1.081-2.213,1.832-3.614,2.146l0.004,0.003l2.083,1.34c0.69-0.374,1.263-0.824,1.657-1.369l0.17-0.26
		c1.018-1.726,2.42-2.238,4.137-2.238c2.313,0,5.199,0.933,8.483,1.088c0.019,0.001,0.037,0.001,0.056,0.001
		c5.875,0,38.306-41.492,44.944-44.812c1.861-0.931,4.204-1.178,6.62-1.178c1.367,0,2.758,0.079,4.098,0.158
		c1.339,0.079,2.627,0.158,3.79,0.158c2.971,0,5.124-0.517,5.222-2.868C875.896,635.919,876.103,635.078,876.431,634.275"/>
	<path fill="#434175" d="M754.15,698.83l15.43,49.26l2.421,7.74l7.35-2l16.2-4.45l72.159-19.82c0,0,13.561-0.18,26-6.93
		c13.75-7.479,29.261-11.24,44.841-9.78c9.54,0.891,20.149-3.22,29-19.479c0,0,20-59-30.48-76c-50.479-17-52.88,9-52.88,9
		s-0.26,0.14-0.68,0.42c-2,1.25-7.45,5.18-7.65,10c-0.136,3.272-4.251,2.991-9.012,2.71c-3.706-0.219-7.803-0.438-10.718,1.02
		c-6.66,3.33-39.28,45.08-45,44.811c-5.721-0.271-10.23-2.9-12.62,1.15l-0.17,0.26c-1.761,2.43-7.061,3-10.57,3.09
		c-1.91,0.06-3.3,0-3.3,0l-0.45,0.14l-3.74,1.04L754.15,698.83"/>
	<path fill="#D6808E" d="M761.01,572.14c1.13,4.25-1.431,20.82-2.87,31l1.388,0.22c1.146-8.067,3.021-20.291,3.182-27.153
		c-0.037-0.052-0.077-0.098-0.119-0.136c0,0,0.042,0.002,0.122,0.005c0.031-1.494-0.021-2.726-0.185-3.595
		C762.038,572.374,761.531,572.261,761.01,572.14"/>
	<path fill="#E5E5E5" d="M764.334,615.544c-0.413,0.121-0.827,0.242-1.24,0.363c4.199,1.387,9.345,2.88,13.459,4.907
		c0.087-0.396,0.173-0.8,0.259-1.219C771.872,618.259,767.346,616.794,764.334,615.544"/>
	<path fill="#D1D8E5" d="M759.583,612.117c-0.123,0.962-0.219,1.783-0.278,2.433c1.111,0.451,2.398,0.898,3.789,1.357
		c0.413-0.121,0.827-0.242,1.24-0.363c-2.246-0.932-3.651-1.743-3.764-2.294c-0.002-0.194-0.002-0.388,0.002-0.582
		C760.188,612.476,759.857,612.291,759.583,612.117"/>
	<g>
		<defs>
			<path id="SVGID_41_" d="M766.323,614.961c-0.664,0.194-1.326,0.389-1.989,0.583c3.013,1.25,7.538,2.715,12.478,4.052
				c0.098-0.473,0.194-0.961,0.289-1.462C773.186,617.134,769.42,616.021,766.323,614.961"/>
		</defs>
		<clipPath id="SVGID_42_">
			<use xlink:href="#SVGID_41_"  overflow="visible"/>
		</clipPath>
		<g transform="matrix(1 0 0 1 6.103516e-005 0)" clip-path="url(#SVGID_42_)">
			
				<image overflow="visible" width="56" height="22" xlink:href="6C57181B.jpg"  transform="matrix(0.24 0 0 -0.24 763.9802 619.9746)">
			</image>
		</g>
	</g>
	<g>
		<defs>
			<path id="SVGID_43_" d="M760.572,612.668c-0.004,0.194-0.004,0.388-0.002,0.582c0.112,0.551,1.518,1.362,3.764,2.294
				c0.663-0.194,1.325-0.389,1.989-0.583C763.923,614.14,761.925,613.35,760.572,612.668"/>
		</defs>
		<clipPath id="SVGID_44_">
			<use xlink:href="#SVGID_43_"  overflow="visible"/>
		</clipPath>
		<g transform="matrix(1 0 0 1 6.103516e-005 6.103516e-005)" clip-path="url(#SVGID_44_)">
			
				<image overflow="visible" width="27" height="15" xlink:href="6C571818.jpg"  transform="matrix(0.24 0 0 -0.24 760.1404 615.8945)">
			</image>
		</g>
	</g>
	<g>
		<defs>
			<path id="SVGID_45_" d="M763.094,615.907c-1.047,0.307-2.09,0.612-3.137,0.918c2.118,1.471,8.747,3.78,16.181,5.755
				c0.14-0.556,0.277-1.146,0.415-1.766C772.438,618.787,767.293,617.294,763.094,615.907"/>
		</defs>
		<clipPath id="SVGID_46_">
			<use xlink:href="#SVGID_45_"  overflow="visible"/>
		</clipPath>
		<g transform="matrix(1 0 0 1 6.103516e-005 0)" clip-path="url(#SVGID_46_)">
			
				<image overflow="visible" width="72" height="30" xlink:href="6C571807.jpg"  transform="matrix(0.24 0 0 -0.24 759.6599 622.8545)">
			</image>
		</g>
	</g>
	<g>
		<defs>
			<path id="SVGID_47_" d="M759.304,614.55c-0.07,0.767-0.09,1.293-0.044,1.521c0.043,0.214,0.284,0.469,0.696,0.755
				c1.047-0.306,2.09-0.611,3.137-0.918C761.703,615.448,760.416,615.001,759.304,614.55"/>
		</defs>
		<clipPath id="SVGID_48_">
			<use xlink:href="#SVGID_47_"  overflow="visible"/>
		</clipPath>
		<g transform="matrix(1 0 0 1 0 0)" clip-path="url(#SVGID_48_)">
			
				<image overflow="visible" width="19" height="12" xlink:href="6C571809.jpg"  transform="matrix(0.24 0 0 -0.24 758.9402 617.0947)">
			</image>
		</g>
	</g>
	<path fill="#3C3A69" d="M876.418,631.895c-4.993,1.943-14.071,2.602-24.086,2.602c-3.134,0-6.359-0.064-9.58-0.175
		c3.71,0.47,7.729,1.03,11.979,1.698c1.578,0.248,3.296,0.362,5.132,0.362c4.713,0,10.18-0.758,15.882-1.96
		C875.811,633.543,876.054,632.697,876.418,631.895"/>
	<path fill="#CCD0DB" d="M807.266,623.252c-0.093,1.728-0.175,3.3-0.242,4.633c3.813,0.967,7.518,2.351,11.046,4.135
		c0,0,9.887,0.429,24.682,2.302c3.221,0.11,6.446,0.175,9.58,0.175c10.015,0,19.093-0.658,24.086-2.602
		c0.144-0.316,0.306-0.627,0.482-0.93c-0.026,0.012-0.054,0.023-0.08,0.035l-2.262-1.254c-5.487,1.131-10.737,1.836-15.286,1.836
		c-1.836,0-3.554-0.114-5.132-0.362c-21.19-3.33-36.66-4.05-36.66-4.05C814.21,625.516,810.786,624.204,807.266,623.252"/>
	<path fill="#B7BBC5" d="M876.78,629.27c-0.744,0.166-1.485,0.325-2.222,0.477L876.82,631c0.026-0.012,0.054-0.023,0.08-0.035
		c0.24-0.41,0.509-0.807,0.797-1.188C877.385,629.604,877.082,629.437,876.78,629.27"/>
	<path fill="#4D4B79" d="M878.418,628.894c-0.548,0.129-1.093,0.254-1.638,0.376c0.302,0.167,0.605,0.335,0.917,0.507
		C877.926,629.473,878.168,629.178,878.418,628.894 M881.627,628.104c-0.184,0.047-0.367,0.094-0.551,0.141
		c0.117,0.005,0.234,0.01,0.351,0.015C881.494,628.206,881.56,628.154,881.627,628.104 M969.399,482.148
		c0.634,7.496,0.602,17.012-0.449,29.082c-5.137,59.03-41.615,97.682-46.04,102.171c1.329,0.287,2.704,0.611,4.127,0.976
		c10.418-11.814,38.014-47.498,42.443-98.307C970.774,501.234,970.529,490.26,969.399,482.148"/>
	<path fill="#B7BBC5" d="M806.432,623.033c-0.095,1.755-0.177,3.336-0.242,4.647c0.278,0.065,0.557,0.134,0.834,0.204
		c0.067-1.333,0.149-2.905,0.242-4.633C806.989,623.177,806.711,623.104,806.432,623.033"/>
	<path fill="#4D4B79" d="M777.1,618.134c-0.095,0.501-0.191,0.989-0.289,1.462c-0.086,0.419-0.172,0.823-0.259,1.219
		c-0.138,0.62-0.275,1.21-0.415,1.766c7.206,1.915,15.167,3.515,20.503,3.729c3.227,0.171,6.422,0.631,9.55,1.371
		c0.065-1.312,0.147-2.893,0.242-4.647c-3.392-0.86-6.868-1.389-10.382-1.573C791.098,621.261,783.879,619.866,777.1,618.134"/>
	<path fill="#36345E" d="M878.923,630.545c-0.452,0.374-0.958,0.683-1.502,0.915c-0.313,0.151-0.647,0.296-1.003,0.435
		c-0.363,0.803-0.606,1.648-0.674,2.527c0.229-0.048,0.457-0.097,0.688-0.146C876.994,632.897,877.912,631.636,878.923,630.545"/>
	<path fill="#B7BBC5" d="M878.296,630.107c-0.424,0.346-0.893,0.635-1.396,0.857c-0.177,0.303-0.339,0.613-0.482,0.93
		c0.355-0.139,0.69-0.283,1.003-0.435c0.544-0.232,1.05-0.541,1.502-0.915c0.019-0.02,0.037-0.04,0.056-0.06
		C878.749,630.358,878.52,630.232,878.296,630.107"/>
	<path fill="#A4A8B1" d="M877.697,629.776c-0.288,0.382-0.557,0.778-0.797,1.188c0.503-0.223,0.972-0.512,1.396-0.857
		C878.094,629.996,877.894,629.886,877.697,629.776"/>
	<path fill="#45436D" d="M881.076,628.244c-0.888,0.225-1.775,0.441-2.658,0.649c-0.25,0.284-0.492,0.579-0.721,0.883
		c0.197,0.109,0.396,0.22,0.599,0.331c0.225,0.125,0.453,0.251,0.683,0.378c0.803-0.858,1.662-1.609,2.448-2.227
		C881.31,628.254,881.193,628.249,881.076,628.244"/>
	<path fill="#3C3A69" d="M922.91,613.401c-0.287,0.291-0.439,0.438-0.439,0.438s-20.708,9.098-40.844,14.264
		c-0.066,0.051-0.133,0.103-0.2,0.155c-0.786,0.617-1.646,1.368-2.448,2.227c-0.019,0.02-0.037,0.04-0.056,0.06
		c-1.011,1.091-1.929,2.353-2.491,3.73c21.737-4.7,46.629-15.636,46.629-15.636s1.506-1.46,3.977-4.263
		C925.614,614.013,924.239,613.688,922.91,613.401"/>
	<path fill="#C07380" d="M762.591,576.07c0.042,0.038,0.082,0.084,0.119,0.136c0.002-0.044,0.002-0.088,0.003-0.131
		C762.633,576.072,762.591,576.07,762.591,576.07"/>
	<path fill="#565387" d="M952.28,454.8c0,0,22.141-6.43,16.67,56.431C963.48,574.09,922.47,613.84,922.47,613.84
		s-47.141,20.71-68.33,17.38c-21.19-3.33-36.66-4.05-36.66-4.05c-6.668-3.373-13.967-5.318-21.43-5.71
		c-11.9-0.479-36.9-7.86-37.38-10.24c-0.48-2.38,6.189-37.38,3.34-40c0,0,33.33,1.37,36.66,3.78s8.1,0.68,11.67,0
		c3.569-0.68,14.52-10.2,36.189-1.87c0,0,7.38,0.71,10.23-1.189c2.85-1.9,7.45-0.48,7.45-0.48s4.46-1.67,5.17-2.62s6.43,0,6.43,0
		c1.254,0.616,2.771,0.099,3.386-1.156c0.079-0.16,0.141-0.329,0.185-0.504c0.746-1.952,1.879-3.734,3.33-5.239
		c0,0,6.43-36.19,18.569-49.761c0,0,3.57-3.1,2.62-6.899S923.66,447.18,952.28,454.8"/>
	<path fill="#3C3A69" d="M783.94,689.87l-3.66,1.14l3.727-1.036C783.984,689.938,783.962,689.904,783.94,689.87"/>
	<path fill="#3C3A69" d="M784.007,689.974l-3.727,1.036l21.331,25.781c0.211-1.167,1.292-1.967,3.819-1.967
		c0.408,0,0.854,0.021,1.34,0.064c0.266-0.023,0.553-0.035,0.86-0.035c1.113,0,2.505,0.154,4.226,0.498
		c-2.715-4.049-7.473-10.043-14.456-13.231C790.772,699.147,786.41,693.729,784.007,689.974"/>
	<path fill="#3C3A69" d="M801.611,716.791c-0.479,2.653,3.539,7.208,5.285,8.586c0.858,0.079,1.556,0.181,2.035,0.262l-1.473-1.779
		c-0.563-0.606-1.16-1.313-1.704-2.06L801.611,716.791"/>
	<path fill="#3C3A69" d="M782.344,753.008l-2.129,0.585c0.111,1.092,0.277,2.179,0.496,3.257l2.561,1.489
		C782.815,756.775,782.495,755.007,782.344,753.008"/>
	<path fill="#3C3A69" d="M801.913,725.228c-7.721,0-20.834,2.959-21.803,22.843c-0.118,1.843-0.083,3.689,0.104,5.522l2.129-0.585
		c-0.114-1.505-0.133-3.142-0.043-4.918c0.97-19.204,13.218-22.62,20.997-22.83C802.86,725.239,802.398,725.228,801.913,725.228"/>
	<path fill="#36345E" d="M807.459,723.859l1.473,1.779c0.476,0.081,0.739,0.142,0.739,0.142
		C809.299,725.64,808.425,724.896,807.459,723.859 M805.43,714.824c-2.527,0-3.608,0.8-3.819,1.967l4.144,5.009
		c-2.154-2.954-3.513-6.525,1.016-6.911C806.285,714.845,805.839,714.824,805.43,714.824"/>
	<path fill="#565387" d="M807.001,768.83l4.529,2.62l46,1.189c0,0,9.86,6,16.26,7.82c0.755,0.235,1.527,0.406,2.311,0.51
		c4.258,0.345,8.532,0.425,12.8,0.24c3.521-0.09,6.25-0.24,6.25-0.24s-2.18-58-3.82-64c-0.779-2.92-4.63-2.279-8.43-0.819
		c-2.854,1.157-5.607,2.553-8.229,4.17c0,0-19.521,1.89-22.62,3.569c-1.682,0.912-5.039,0.54-8.635,0.169
		c-3.034-0.313-6.237-0.626-8.745-0.169c-5.48,1-15.23-6.449-15.23-6.449c-26.67-8.801-11.67,7.619-9.77,8.34
		c0,0-25.94-6-27.37,22.31C780.87,776.4,807.001,768.83,807.001,768.83"/>
	<path fill="#565387" d="M873.43,746.45c0.5,12,9.85,26.89,15.42,34.76c3.52-0.09,6.25-0.24,6.25-0.24s-2.18-58-3.82-64
		c-0.779-2.92-4.63-2.279-8.43-0.819C878.28,724.75,873.03,736.78,873.43,746.45"/>
	<path fill="#4D4B79" d="M888.103,714.917L888.103,714.917c1.581,0,2.778,0.563,3.177,2.053c-0.396-1.481-1.581-2.047-3.15-2.053
		C888.121,714.917,888.112,714.917,888.103,714.917"/>
	<path fill="#403E6F" d="M888.102,714.917c-1.519,0-3.391,0.519-5.252,1.233c-2.855,1.157-5.608,2.553-8.23,4.17
		c0,0-0.002,0.002-0.006,0.006c0.037-0.004,0.057-0.006,0.057-0.006c2.603-1.605,5.334-2.992,8.166-4.145
		c0.005-0.008,0.01-0.017,0.014-0.025C884.712,715.436,886.585,714.917,888.102,714.917L888.102,714.917"/>
	<path fill="#2E344A" d="M873.729,780.442c0.003,0.006,0.007,0.012,0.011,0.018c0.755,0.235,1.527,0.406,2.311,0.51
		c2.772,0.225,5.553,0.337,8.333,0.337c0.008,0,0.016,0,0.023,0c-2.771-0.001-5.543-0.113-8.307-0.337
		c-0.783-0.104-1.556-0.274-2.311-0.51C873.769,780.454,873.749,780.448,873.729,780.442"/>
	<path fill="#524F80" d="M882.837,716.176c-2.832,1.152-5.563,2.539-8.166,4.145c0,0-0.02,0.002-0.057,0.006
		c-0.304,0.302-13.036,13.07-9.044,27.714c3.158,11.571,3.13,24.551,8.159,32.402c0.02,0.006,0.04,0.012,0.061,0.018
		c0.755,0.235,1.527,0.406,2.311,0.51c2.764,0.224,5.535,0.336,8.307,0.337c1.481,0,2.963-0.032,4.443-0.097
		c-5.57-7.87-14.92-22.76-15.42-34.76c-0.015-0.359-0.021-0.721-0.021-1.086C873.419,735.901,878.439,724.454,882.837,716.176"/>
	<path fill="#494773" d="M888.102,714.917c-1.518,0-3.391,0.519-5.252,1.233c-4.4,8.28-9.432,19.742-9.441,29.214
		c0,0.365,0.007,0.727,0.021,1.086c0.5,12,9.85,26.89,15.42,34.76l0,0c3.52-0.09,6.25-0.24,6.25-0.24s-2.18-58-3.82-64l0,0
		C890.882,715.479,889.684,714.917,888.102,714.917"/>
	<path fill="#393864" d="M748.737,663.67c0.115,0.184,0.233,0.364,0.354,0.545l0.119,0.095
		C749.052,664.095,748.896,663.883,748.737,663.67 M707.051,630.58l0.522,0.418c7.656,5.289,29.268,20.395,37.37,27.862
		c-3.225-3.867-6.489-7.247-9.683-10.196l-28.107-18.05C707.086,630.592,707.051,630.58,707.051,630.58"/>
	<path fill="#3C3A69" d="M707.573,630.998l41.519,33.217c-0.121-0.181-0.239-0.361-0.354-0.545c-1.252-1.68-2.521-3.284-3.794-4.81
		C736.841,651.393,715.229,636.287,707.573,630.998 M707.153,630.614l28.107,18.05C721.119,635.604,708.414,631.046,707.153,630.614
		"/>
	<g>
		<defs>
			<path id="SVGID_49_" d="M892.51,344.9c-0.01,0.02-0.019,0.04-0.028,0.06c-0.04,0.154-0.084,0.308-0.132,0.46
				c-0.201,0.661-0.469,1.292-0.752,1.913c-0.006,0.022-0.013,0.044-0.019,0.067c0.308-0.648,0.571-1.316,0.79-2
				C892.427,345.236,892.473,345.069,892.51,344.9"/>
		</defs>
		<clipPath id="SVGID_50_">
			<use xlink:href="#SVGID_49_"  overflow="visible"/>
		</clipPath>
		<g transform="matrix(1 0 0 1 0 3.051758e-005)" clip-path="url(#SVGID_50_)">
			
				<image overflow="visible" width="7" height="14" xlink:href="6C57180B.jpg"  transform="matrix(0.24 0 0 -0.24 891.1804 347.8149)">
			</image>
		</g>
	</g>
	<path fill="#3C3A69" d="M892.482,344.959c-0.361,0.765-0.656,1.559-0.884,2.374c0.283-0.622,0.551-1.252,0.752-1.913
		C892.398,345.267,892.442,345.114,892.482,344.959"/>
	<path fill="#D1D8E5" d="M895.846,382.279c-0.001,0.001-0.002,0.002-0.003,0.003c-0.971,2.443-2.538,4.635-4.593,6.358
		c-3.182,2.493-7.31,3.417-11.354,3.629c0,0.001,0,0.001-0.001,0.002c4.063-0.209,8.204-1.131,11.385-3.631
		C893.342,386.95,894.912,384.753,895.846,382.279 M764.45,330.076c-0.439,1.061-0.794,2.155-1.06,3.274
		c-1.22,5.18-0.21,10.61,1.03,15.8c0.649,2.67,1.529,5.56,3.85,7.05c2.357,1.512,5.575,1.143,8.315,1.632
		c0.002-0.011,0.004-0.02,0.007-0.031c-2.73-0.473-5.923-0.121-8.263-1.621c-2.31-1.49-3.199-4.38-3.84-7.05
		c-1.26-5.18-2.27-10.61-1.06-15.79c0.251-1.074,0.589-2.108,0.996-3.108C764.434,330.18,764.442,330.128,764.45,330.076"/>
	<g>
		<defs>
			<path id="SVGID_51_" d="M895.878,382.194c-0.012,0.03-0.022,0.059-0.034,0.088c0.001-0.001,0.002-0.002,0.003-0.003
				C895.857,382.251,895.868,382.223,895.878,382.194 M765.16,328.54c-0.257,0.503-0.493,1.016-0.71,1.536
				c-0.008,0.052-0.016,0.104-0.023,0.155c0.209-0.512,0.437-1.016,0.681-1.512C765.125,328.66,765.142,328.6,765.16,328.54"/>
		</defs>
		<clipPath id="SVGID_52_">
			<use xlink:href="#SVGID_51_"  overflow="visible"/>
		</clipPath>
		<g transform="matrix(1 0 0 1 6.103516e-005 3.051758e-005)" clip-path="url(#SVGID_52_)">
			
				<image overflow="visible" width="551" height="227" xlink:href="6C571808.jpg"  transform="matrix(0.24 0 0 -0.24 763.9802 382.6147)">
			</image>
		</g>
	</g>
	<g>
		<defs>
			<path id="SVGID_53_" d="M879.896,392.269c-0.078,0.004-0.157,0.008-0.235,0.012l-0.001,0.001
				c0.078-0.003,0.157-0.007,0.235-0.011C879.896,392.271,879.896,392.27,879.896,392.269"/>
		</defs>
		<clipPath id="SVGID_54_">
			<use xlink:href="#SVGID_53_"  overflow="visible"/>
		</clipPath>
		<g transform="matrix(1 0 0 1 0 3.051758e-005)" clip-path="url(#SVGID_54_)">
			
				<image overflow="visible" width="4" height="3" xlink:href="6C57180F.jpg"  transform="matrix(0.24 0 0 -0.24 879.1804 392.6948)">
			</image>
		</g>
	</g>
	<path fill="#D6808E" d="M845.49,387.379c0.013,0.772-0.037,1.545-0.14,2.301c-0.226,0.956-0.259,1.946-0.1,2.913
		c0.004-0.12,0.01-0.241,0.02-0.361c-0.103-0.857-0.053-1.728,0.15-2.572c0.072-0.543,0.117-1.095,0.132-1.649
		C845.536,387.8,845.515,387.589,845.49,387.379 M818.788,364.113c0.02,1.279-0.054,2.603,0.096,3.868
		c-0.008-0.314-0.01-0.63-0.01-0.946c-0.03-0.667-0.022-1.343-0.02-2.014C818.842,364.714,818.821,364.411,818.788,364.113
		 M776.593,357.801c-0.003,0.011-0.005,0.02-0.007,0.031c0.002,0,0.004,0,0.006,0.001c0.002-0.01,0.005-0.021,0.007-0.031
		C776.596,357.802,776.594,357.802,776.593,357.801"/>
	<path fill="#C07380" d="M818.874,367.035c0,0.316,0.002,0.632,0.01,0.946c0.056,0.473,0.143,0.938,0.276,1.389
		c1.301,4.42,6.58,6.18,11.15,6.75c4.57,0.57,9.72,0.9,12.78,4.35c1.654,1.869,2.358,4.383,2.399,6.909
		c0.025,0.21,0.046,0.421,0.063,0.632c0.07-2.74-0.605-5.531-2.402-7.561c-3-3.45-8.2-3.78-12.77-4.35
		c-4.57-0.57-9.851-2.33-11.16-6.75C819.002,368.607,818.911,367.828,818.874,367.035 M776.598,357.802
		c-0.002,0.01-0.005,0.021-0.007,0.031c1.372,0.245,2.625,0.706,3.589,1.727c1.84,1.94,1.939,5.4,4.34,6.6
		c0.622,0.271,1.29,0.409,1.963,0.409c0.293,0,0.586-0.026,0.877-0.079c0.585-0.082,1.146-0.216,1.69-0.396
		c-0.524,0.169-1.066,0.296-1.63,0.375c-0.291,0.053-0.585,0.079-0.878,0.079c-0.672,0-1.341-0.138-1.963-0.409
		c-2.39-1.2-2.489-4.66-4.329-6.6C779.272,358.504,777.996,358.045,776.598,357.802 M807.146,355.937
		c-1.239,0-2.468,0.162-3.656,0.533c-0.05,0.017-0.1,0.033-0.149,0.05c0.029-0.01,0.06-0.02,0.09-0.03
		c1.188-0.371,2.416-0.533,3.654-0.533c2.367,0,4.77,0.593,6.995,1.453c1.359,0.421,2.579,1.202,3.53,2.26
		c0.976,1.264,1.152,2.817,1.178,4.443c0.033,0.298,0.054,0.601,0.066,0.908c0.01-1.957-0.024-3.868-1.184-5.371
		c-0.946-1.06-2.163-1.841-3.521-2.26C811.925,356.53,809.516,355.937,807.146,355.937"/>
	<g>
		<defs>
			<path id="SVGID_55_" d="M879.661,392.281c-0.02,0.001-0.039,0.002-0.059,0.003c-0.001,0.001,0,0-0.001,0.001
				c0.02,0,0.039-0.001,0.059-0.002L879.661,392.281"/>
		</defs>
		<clipPath id="SVGID_56_">
			<use xlink:href="#SVGID_55_"  overflow="visible"/>
		</clipPath>
		<g transform="matrix(1 0 0 1 0 3.051758e-005)" clip-path="url(#SVGID_56_)">
			
				<image overflow="visible" width="4" height="3" xlink:href="6C57180A.jpg"  transform="matrix(0.24 0 0 -0.24 879.1804 392.6948)">
			</image>
		</g>
	</g>
	<path fill="#C07380" d="M879.602,392.284c-0.141,0.006-0.281,0.011-0.422,0.016c-0.481,0.016-0.963,0.024-1.443,0.024
		c-0.108,0-0.217,0-0.325-0.001c0.117,0.001,0.233,0.001,0.351,0.001c0.482,0,0.965-0.008,1.448-0.024
		C879.341,392.295,879.471,392.291,879.602,392.284C879.602,392.283,879.601,392.285,879.602,392.284 M859.024,388.886
		c-0.361,0-0.715,0.032-1.054,0.104c-2.78,0.57-2.42,2.27-3.601,4.32c-0.777,1.431-2.771,2.27-4.701,2.27
		c-1.845,0-3.633-0.766-4.248-2.51c-0.066-0.277-0.117-0.557-0.15-0.838c-0.01,0.12-0.016,0.241-0.02,0.361
		c0.027,0.167,0.061,0.332,0.1,0.497c0.619,1.742,2.405,2.508,4.261,2.508c1.946,0,3.97-0.844,4.799-2.288
		c1.17-2.05,0.82-3.75,3.601-4.32c0.333-0.071,0.68-0.103,1.034-0.104C859.038,388.886,859.031,388.886,859.024,388.886"/>
	<path fill="#3C3A69" d="M765.107,328.72c-0.244,0.496-0.472,1-0.681,1.512c-0.407,1-0.745,2.034-0.996,3.108
		c-1.21,5.18-0.2,10.61,1.06,15.79c0.641,2.67,1.53,5.56,3.84,7.05c2.34,1.5,5.532,1.148,8.263,1.621c0.002,0,0.004,0,0.006,0.001
		c1.397,0.243,2.674,0.702,3.652,1.738c1.84,1.94,1.939,5.4,4.329,6.6c0.622,0.271,1.291,0.409,1.963,0.409
		c0.293,0,0.587-0.026,0.878-0.079c0.563-0.079,1.105-0.206,1.63-0.375c5.301-1.749,8.824-7.724,14.29-9.575
		c0.05-0.017,0.1-0.034,0.149-0.05c1.188-0.371,2.417-0.533,3.656-0.533c2.37,0,4.778,0.593,7.004,1.453
		c1.357,0.418,2.574,1.2,3.521,2.26c1.159,1.503,1.193,3.414,1.184,5.371c-0.003,0.671-0.011,1.347,0.02,2.014
		c0.037,0.793,0.128,1.573,0.347,2.315c1.31,4.42,6.59,6.18,11.16,6.75c4.569,0.57,9.77,0.9,12.77,4.35
		c1.797,2.029,2.473,4.82,2.402,7.561c-0.015,0.554-0.06,1.106-0.132,1.649c-0.203,0.844-0.253,1.715-0.15,2.572
		c0.033,0.281,0.084,0.561,0.15,0.838c0.615,1.745,2.403,2.51,4.248,2.51c1.931,0,3.924-0.839,4.701-2.27
		c1.181-2.05,0.82-3.75,3.601-4.32c0.339-0.072,0.692-0.104,1.054-0.104c0.007,0,0.014,0,0.021,0s0.014,0,0.021,0
		c1.592,0,3.35,0.615,4.775,1.104c4.371,1.508,8.955,2.294,13.571,2.333c0.108,0.001,0.217,0.001,0.325,0.001
		c0.48,0,0.962-0.008,1.443-0.024c0.141-0.005,0.281-0.01,0.422-0.016c0.02-0.001,0.039-0.002,0.059-0.003
		c0.078-0.003,0.157-0.007,0.235-0.012c4.045-0.212,8.173-1.136,11.354-3.629c2.055-1.723,3.622-3.915,4.593-6.358
		c0.012-0.029,0.022-0.058,0.034-0.088c0.197-0.533,0.366-1.078,0.503-1.634c-0.904,1.743-2.165,3.276-3.7,4.5
		c-3.36,2.66-7.8,3.51-12.07,3.66c-0.481,0.016-0.963,0.024-1.443,0.024c-4.739,0-9.449-0.788-13.937-2.334
		c-1.418-0.489-3.147-1.104-4.751-1.104c-0.364,0-0.723,0.032-1.068,0.104c-2.78,0.57-2.431,2.27-3.61,4.32
		c-0.802,1.428-2.822,2.273-4.769,2.273c-1.843,0-3.619-0.757-4.231-2.493c-0.265-1.121-0.265-2.289,0-3.41
		c0.439-3.21-0.11-6.77-2.271-9.21c-3.05-3.46-8.199-3.79-12.77-4.36c-4.57-0.57-9.85-2.33-11.16-6.75
		c-0.939-3.18,0.45-7.06-1.55-9.69c-0.946-1.06-2.163-1.841-3.521-2.26c-2.227-0.861-4.63-1.471-6.998-1.471
		c-1.236,0-2.464,0.167-3.651,0.551c-6.07,2-9.75,9.1-16.07,10c-0.291,0.053-0.584,0.079-0.877,0.079
		c-0.673,0-1.341-0.138-1.963-0.409c-2.4-1.2-2.5-4.66-4.34-6.61c-2.92-3.06-8.37-1.08-11.92-3.35c-2.311-1.49-3.19-4.38-3.841-7.05
		c-1.26-5.18-2.27-10.61-1.06-15.79C764.895,329.421,765.003,329.07,765.107,328.72"/>
	<path fill="#4D4B79" d="M891.53,529.898c-2.997,3.751-6.004,7.494-8.529,11.571c-3.86,6.23-6.591,13.5-5.78,20.78
		c4-4.1,5.819-9.76,8.34-14.9c0.301-0.614,0.612-1.223,0.934-1.824C887.829,540.615,889.511,535.14,891.53,529.898"/>
	<path fill="#4D4B79" d="M905.693,512.491c-2.782,0-8.029,9.434-9.493,11.409c-1.506,2.035-3.087,4.018-4.67,5.998
		c-2.019,5.241-3.701,10.717-5.036,15.627c4.223-7.921,10.085-14.821,15.066-22.256c1-1.529,7.61-10.35,4.28-10.77
		C905.793,512.494,905.743,512.491,905.693,512.491"/>
	<g>
		<defs>
			<polyline id="SVGID_57_" points="359.78,443.754 263.672,443.754 263.672,540.62 359.78,540.62 359.78,443.754 			"/>
		</defs>
		<clipPath id="SVGID_58_">
			<use xlink:href="#SVGID_57_"  overflow="visible"/>
		</clipPath>
		<g clip-path="url(#SVGID_58_)">
			
				<image overflow="visible" width="1030" height="677" xlink:href="6C571836.jpg"  transform="matrix(0.0937 0 0 0.0958 263.4846 443.5625)">
			</image>
		</g>
		<g transform="matrix(1 0 0 1 0 -3.051758e-005)" clip-path="url(#SVGID_58_)">
			
				<image overflow="visible" width="1030" height="340" xlink:href="6C57182C.jpg"  transform="matrix(0.0937 0 0 0.0958 263.4846 508.2354)">
			</image>
		</g>
	</g>
</g>
</svg>
