<?xml version="1.0" encoding="utf-8"?>
<!-- Generator: Adobe Illustrator 16.0.0, SVG Export Plug-In . SVG Version: 6.00 Build 0)  -->
<!DOCTYPE svg PUBLIC "-//W3C//DTD SVG 1.1//EN" "http://www.w3.org/Graphics/SVG/1.1/DTD/svg11.dtd">
<svg version="1.1" id="b759170a-51c3-4e2f-999d-77dec9fd6d11"
	 xmlns="http://www.w3.org/2000/svg" xmlns:xlink="http://www.w3.org/1999/xlink" x="0px" y="0px" width="1140.561px"
	 height="787.27px" viewBox="0 0 1140.561 787.27" enable-background="new 0 0 1140.561 787.27" xml:space="preserve">
<title>maker launch</title>
<path opacity="0.1" fill="#2271FF" enable-background="new    " d="M8.76,414.46c20.16-32.93,65.75-27.19,98.08-10
	c32.33,17.19,64.591,42.85,100.17,37.92c30-4.16,54.601-30.319,67.891-60.5c13.29-30.18,17.189-64.21,20.93-97.54
	c4.7-41.873,9.397-83.773,14.091-125.7c1.72-15.33,3.75-31.51,12.369-43.64c11.391-16,32.271-20.92,50.131-16.11
	c17.859,4.81,33.09,17.71,46.119,32.1c41.74,46.08,65.391,108.37,101.881,159.65c7.43,10.44,15.819,20.76,26.92,25.8
	c16,7.25,34.37,2.12,50-5.95c51-26.29,85.26-79.94,118.93-130c16.38-24.33,36.35-50.35,63.6-53c28.67-2.85,53.561,21.58,70.41,47.45
	c54.08,83.24,65.67,196.88,131,269.48c8.11,9,17.061,17.32,27.37,22.91c3.4,1.837,6.945,3.393,10.601,4.65
	c57,19.729,76,98.93,33.84,145.89c-0.91,1-1.84,2-2.78,3c-6.26,6.61-13.351,12.86-21.811,14.83c-7.87,1.82-16-0.28-23.8-2.55
	c-49.859-14.551-99.12-36.79-150.67-35.71c-50.16,1-97.74,24.17-147.34,32.51c-33.35,5.61-67.28,4.49-101,3.28
	c-112.307-4.04-224.59-8.74-336.851-14.101c-55.72-2.56-111.46-5-167.17-7.85c-42.92-2.23-70.26-7.14-75.24-56.95
	C22.07,510.71-17.09,456.7,8.76,414.46z"/>
<ellipse fill="#30374E" cx="789.9" cy="749.54" rx="269.99" ry="37.73"/>
<path fill="#2271FF" d="M148.74,586.77c0,0,13.2-3,21.85,5.87c0,0-5.56,5-18.64-0.54L148.74,586.77z"/>
<path fill="#2271FF" d="M147.28,586.64c0,0-7.82,11.08-2.86,22.45c0,0,6.761-3.25,6.57-17.45L147.28,586.64z"/>
<path fill="#2271FF" d="M138.48,569.94c0,0,4.689-10.15,27,2.119c0,0-2.4,6.78-11.88,6.881
	C144.12,579.04,141.28,574.93,138.48,569.94z"/>
<path fill="#2271FF" d="M137.06,569.32c0,0-11.17-0.521-10.54,24.92c0,0,7.13,1,11.58-7.38
	C142.55,578.48,140.19,574.15,137.06,569.32z"/>
<path fill="#2271FF" d="M129.28,549.52c0,0,5-17.68,28.47-6.88c0,0-4.1,16.19-25.8,12.641L129.28,549.52z"/>
<path fill="#2271FF" d="M120.57,524.18c0,0,10.58-18.239,32.49-3.439c0,0-6.19,16.87-30.29,9.55L120.57,524.18z"/>
<path fill="#2271FF" d="M116.43,499.78c0,0,12.63-16.95,34.359-2.311c0,0-12.06,14.94-34.09,6.4L116.43,499.78z"/>
<path fill="#2271FF" d="M112.69,476.06c0,0,12.76-17.659,33.59-3.149c0,0-14.68,15.83-33.33,7.07L112.69,476.06z"/>
<path fill="#2271FF" d="M112.51,454.8c0,0,13.15-22.53,32.65-9.17c0,0-14.42,19.57-32.37,13.26L112.51,454.8z"/>
<path fill="#2271FF" d="M114.28,429.82c0,0,14-22.4,33.09-7.181c0,0-17.1,19.75-32.87,11.15L114.28,429.82z"/>
<path fill="#2271FF" d="M117.91,407.359c0,0,17-21.31,33.55-14.369c0,0-17.68,22.6-34,19.76L117.91,407.359z"/>
<path fill="#2271FF" d="M122.91,385.96c0,0,19.54-26,32.37-18.62c0,0-14.31,20.09-33.58,23.35L122.91,385.96z"/>
<path fill="#2271FF" d="M130.53,361.02c0,0,17.17-21.32,31-17.24c0,0-14.45,21.89-33.1,23.68L130.53,361.02z"/>
<path fill="#2271FF" d="M137.38,337.71c0,0,19.181-20.6,28.311-17.82c0,0-13.351,22.36-28.92,22.15L137.38,337.71z"/>
<path fill="#2271FF" d="M144.15,316.15c0,0,16.09-24.15,25.82-23c0,0-9.311,21.19-25.66,25.33L144.15,316.15z"/>
<path fill="#2271FF" d="M151.14,287.24c0,0,14.39-18.66,22.81-19.18c0,0-10.71,24.34-23.07,25L151.14,287.24z"/>
<path fill="#2271FF" d="M155.14,268.03l12.58-37.69c0,0,3,33.1-14,44.62L155.14,268.03z"/>
<path fill="#2271FF" d="M158.53,227.17c0,0,0.44-30.79-1.33-33.17c0,0,12.47,24.74,2.14,46.71L158.53,227.17z"/>
<path fill="#2271FF" d="M128.64,549.15c0,0-16.261-8.62-24.771,15.729c0,0,14.5,8.28,27-9.81L128.64,549.15z"/>
<path fill="#2271FF" d="M120,523.23c0,0-19.72-7.45-27.35,17.88c0,0,15.47,9.149,29.51-11.761L120,523.23z"/>
<path fill="#2271FF" d="M115.64,501.31c0,0-14.79-15.109-34.36,2.33c0,0,13.94,13.19,34.63,1.79L115.64,501.31z"/>
<path fill="#2271FF" d="M112.22,476.1c0,0-15-15.81-33.711,1.36c0,0,16.66,13.73,34.001,2.55L112.22,476.1z"/>
<path fill="#2271FF" d="M112.55,455.4c0,0-11.359-23.471-31.829-11.67c0,0,12.859,20.63,31.239,15.739L112.55,455.4z"/>
<path fill="#2271FF" d="M115.45,429.64c0,0-11.33-23.899-32.06-11.069c0,0,14.659,21.609,31.34,14.93L115.45,429.64z"/>
<path fill="#2271FF" d="M119.98,407.34c0,0-5.641-26.65-23.55-27.87c0,0,5.68,28.129,21.51,32.879L119.98,407.34z"/>
<path fill="#2271FF" d="M123.37,385.98c0,0-3.67-32.31-18.46-32.46c0,0,2.15,24.57,17.11,37.15L123.37,385.98z"/>
<path fill="#2271FF" d="M132,359.99c0,0-6.21-26.66-20.47-29c0,0,3.5,26,19.53,35.72L132,359.99z"/>
<path fill="#2271FF" d="M139.06,337.79c0,0-2-28.07-10.9-31.62c0,0-3.61,25.78,8.65,35.38L139.06,337.79z"/>
<path fill="#2271FF" d="M144.79,315.8c0,0-3.149-28.85-12.31-32.32c0,0-1.5,23.09,11.1,34.3L144.79,315.8z"/>
<path fill="#2271FF" d="M152.54,289.46c0,0-1.64-23.51-8.35-28.61c0,0-4.58,26.19,5.35,33.56L152.54,289.46z"/>
<path fill="#2271FF" d="M154.28,266.92l-8.8-38.74c0,0-6.23,32.64,9.569,45.78L154.28,266.92z"/>
<path fill="#2271FF" d="M152.91,227.92c0,0-17.63-25.28-17.49-28.22c0,0,3.54,27.48,24.41,39.89L152.91,227.92z"/>
<path fill="#2271FF" d="M154.28,220.03c0,0-17.46-36.39-24.43-39c0,0,22.09,9.43,25.609,37.8L154.28,220.03z"/>
<path fill="#444053" d="M150.82,293.25l-1-0.25c9.85-42,11.24-68.48,3.9-74.56l0.68-0.82C162.14,224.06,160.92,250.22,150.82,293.25
	z"/>
<path fill="#444053" d="M122.54,391.91l-1.55-0.43c1.09-3.86,2.27-7.79,3.53-11.66c11-33.72,20.14-65,25.75-88.94l1.27-0.75
	c-5.62,24-14.51,56.43-25.49,90.18C124.8,384.17,123.62,388.07,122.54,391.91z"/>
<path fill="#444053" d="M169.59,616.31c-0.22-0.21-22.22-21.869-39.119-60.239c-9.902-22.459-16.184-46.346-18.61-70.771
	c-3-30.53,1.1-65.13,10-96.9l1.28,1.32c-20,71.31-6.19,130.339,9.229,165.4c16.73,38,38.48,59.45,38.7,59.66L169.59,616.31z"/>
<path fill="#2271FF" d="M193.81,502.1c0,0,8-1.83,13.22,3.551c0,0-3.37,3-11.271-0.33L193.81,502.1z"/>
<path fill="#2271FF" d="M192.94,502.03c0,0-4.72,6.7-1.72,13.569c0,0,4.079-2,4-10.55L192.94,502.03z"/>
<path fill="#2271FF" d="M187.62,491.92c0,0,2.83-6.13,16.3,1.29c0,0-1.449,4.09-7.18,4.15
	C191.01,497.42,189.33,494.94,187.62,491.92z"/>
<path fill="#2271FF" d="M186.76,491.55c0,0-6.76-0.31-6.38,15.061c0,0,4.311,0.6,7-4.46C190.07,497.09,188.65,494.47,186.76,491.55z
	"/>
<path fill="#2271FF" d="M182.03,479.58c0,0,3.07-10.69,17.229-4.18c0,0-2.47,9.79-15.59,7.64L182.03,479.58z"/>
<path fill="#2271FF" d="M176.79,464.26c0,0,6.391-11,19.641-2.08c0,0-3.75,10.2-18.311,5.771L176.79,464.26z"/>
<path fill="#2271FF" d="M174.28,449.51c0,0,7.64-10.25,20.77-1.399c0,0-7.279,9-20.6,3.87L174.28,449.51z"/>
<path fill="#2271FF" d="M172.02,435.17c0,0,7.72-10.68,20.31-1.9c0,0-8.87,9.57-20.149,4.271L172.02,435.17z"/>
<path fill="#2271FF" d="M171.92,422.31c0,0,8-13.609,19.73-5.54c0,0-8.72,11.83-19.57,8L171.92,422.31z"/>
<path fill="#2271FF" d="M172.96,407.221c0,0,8.49-13.551,20-4.381c0,0-10.34,11.939-19.88,6.74L172.96,407.221z"/>
<path fill="#2271FF" d="M175.18,393.64c0,0,10.27-12.88,20.279-8.68c0,0-10.689,13.66-20.529,11.94L175.18,393.64z"/>
<path fill="#2271FF" d="M178.2,380.7c0,0,11.81-15.71,19.57-11.26c0,0-8.65,12.15-20.3,14.12L178.2,380.7z"/>
<path fill="#2271FF" d="M182.81,365.64c0,0,10.38-12.89,18.76-10.42c0,0-8.73,13.23-20,14.31L182.81,365.64z"/>
<path fill="#2271FF" d="M186.95,351.53c0,0,11.59-12.45,17.11-10.77c0,0-8.061,13.51-17.48,13.39L186.95,351.53z"/>
<path fill="#2271FF" d="M191.04,338.5c0,0,9.73-14.6,15.61-13.92c0,0-5.62,12.81-15.51,15.32L191.04,338.5z"/>
<path fill="#2271FF" d="M195.28,321.02c0,0,8.7-11.28,13.79-11.6c0,0-6.48,14.72-13.95,15.09L195.28,321.02z"/>
<path fill="#2271FF" d="M197.69,309.4l7.59-22.76c0,0,1.8,20-8.49,27L197.69,309.4z"/>
<path fill="#2271FF" d="M199.74,284.7c0,0,0.26-18.61-0.81-20.05c0,0,7.54,14.95,1.29,28.24L199.74,284.7z"/>
<path fill="#2271FF" d="M181.66,479.36c0,0-9.82-5.221-15,9.5c0,0,8.771,5,16.33-5.92L181.66,479.36z"/>
<path fill="#2271FF" d="M176.45,463.64c0,0-11.93-4.5-16.54,10.811c0,0,9.351,5.53,17.84-7.101L176.45,463.64z"/>
<path fill="#2271FF" d="M173.8,450.43c0,0-8.93-9.13-20.77,1.4c0,0,8.43,8,20.94,1.08L173.8,450.43z"/>
<path fill="#2271FF" d="M171.74,435.19c0,0-9.07-9.551-20.38,0.829c0,0,10.07,8.29,20.54,1.54L171.74,435.19z"/>
<path fill="#2271FF" d="M171.94,422.64c0,0-6.87-14.189-19.25-7.06c0,0,7.78,12.47,18.89,9.52L171.94,422.64z"/>
<path fill="#2271FF" d="M173.69,407.09c0,0-6.851-14.45-19.41-6.689c0,0,8.86,13.07,18.95,9L173.69,407.09z"/>
<path fill="#2271FF" d="M176.43,393.64c0,0-3.41-16.12-14.24-16.85c0,0,3.43,17,13,19.87L176.43,393.64z"/>
<path fill="#2271FF" d="M178.48,380.71c0,0-2.2-19.53-11.2-19.63c0,0,1.3,14.86,10.34,22.47L178.48,380.71z"/>
<path fill="#2271FF" d="M183.69,365c0,0-3.75-16.12-12.37-17.54c0,0,2.12,15.71,11.81,21.59L183.69,365z"/>
<path fill="#2271FF" d="M187.96,351.58c0,0-1.229-17-6.58-19.12c0,0-2.189,15.59,5.221,21.39L187.96,351.58z"/>
<path fill="#2271FF" d="M191.43,338.28c0,0-1.9-17.44-7.44-19.54c0,0-0.91,14,6.71,20.74L191.43,338.28z"/>
<path fill="#2271FF" d="M196.11,322.36c0,0-1-14.21-5-17.3c0,0-2.771,15.84,3.229,20.29L196.11,322.36z"/>
<path fill="#2271FF" d="M197.19,308.73l-5.32-23.42c0,0-3.77,19.74,5.78,27.68L197.19,308.73z"/>
<path fill="#2271FF" d="M196.34,285.16c0,0-10.649-15.27-10.569-17.06c0,0,2.13,16.61,14.75,24.11L196.34,285.16z"/>
<path fill="#2271FF" d="M197.14,280.38c0,0-10.561-22-14.771-23.55c0,0,13.36,5.7,15.48,22.86L197.14,280.38z"/>
<path fill="#444053" d="M195.07,324.64l-0.63-0.15c6-25.39,6.8-41.4,2.359-45.07l0.41-0.5
	C201.92,282.82,201.18,298.64,195.07,324.64z"/>
<path fill="#444053" d="M177.98,384.3l-0.94-0.27c0.66-2.33,1.38-4.7,2.141-7c6.63-20.39,12.17-39.3,15.56-53.77l0.77-0.46
	c-3.399,14.5-8.77,34.12-15.409,54.53C179.34,379.64,178.63,381.97,177.98,384.3z"/>
<path fill="#444053" d="M206.42,519.96c-0.13-0.13-13.43-13.22-23.649-36.42c-5.982-13.578-9.779-28.016-11.25-42.78
	c-1.83-18.46,0.67-39.38,6.06-58.59l0.771,0.8c-12.09,43.11-3.74,78.799,5.58,100c10.119,23,23.26,35.931,23.399,36.061
	L206.42,519.96z"/>
<path fill="#AFC0E0" d="M236.5,569.96c-2.566,0.456-5.079,1.173-7.5,2.14c-53.939,21.54-53.04,162.54-53.04,162.54h-15.88
	c0,0-5-60.51-26.79-146.84c-19.63-77.67,60.88-147.279,77.23-160.479c1.84-1.471,2.859-2.25,2.859-2.25
	C294.47,454.87,236.5,569.96,236.5,569.96z"/>
<path opacity="0.2" fill="#FFFFFF" enable-background="new    " d="M219.28,427.52c-1.87-0.859-3.8-1.68-5.85-2.43
	c0,0-1,0.78-2.86,2.25c-16.35,13.2-96.86,82.811-77.23,160.48c21.79,86.33,26.74,146.819,26.74,146.819h8.931
	c0,0-4.95-60.51-26.79-146.84C122.67,510.49,202.4,441.14,219.28,427.52z"/>
<path fill="#AFC0E0" d="M504.04,587.82c-21.84,86.33-26.76,146.819-26.76,146.819h-15.91c0,0,1-147.359-56.729-163.81
	c-1.251-0.375-2.522-0.673-3.811-0.89c0,0-58-115.091,23.12-144.87c0,0,0.82,0.609,2.3,1.8
	C441.28,438.9,523.89,509.25,504.04,587.82z"/>
<path opacity="0.1" enable-background="new    " d="M236.5,569.96c-2.566,0.456-5.079,1.173-7.5,2.14
	c-9.752-47.727-15.929-96.113-18.479-144.76c1.84-1.47,2.859-2.25,2.859-2.25C294.47,454.87,236.5,569.96,236.5,569.96z"/>
<path opacity="0.1" enable-background="new    " d="M426.28,426.89c-3.307,48.505-10.533,96.662-21.609,144
	c-1.251-0.375-2.523-0.672-3.811-0.89c0,0-58-115.09,23.12-144.87C423.95,425.09,424.77,425.7,426.28,426.89z"/>
<path fill="#E3E8F4" d="M396.591,591.78c-5.601,22.093-12.164,44.76-19.69,68c-11.29,34.859-35.72,37.21-122,0
	c0,0-8.62-24.3-18.101-65.61c-20.869-90.83-45.899-263.92,7.431-441.71C260.111,99.013,282.683,47.787,311.41,0
	c0,0,45.561,52.31,79,152.43C423.85,252.55,445.131,400.5,396.591,591.78z"/>
<circle fill="#AFC0E0" cx="318.66" cy="293.6" r="71.63"/>
<path fill="#2271FF" d="M369.461,293.64c-0.001,28.056-22.745,50.799-50.802,50.799c-11.74,0-23.118-4.067-32.199-11.509
	c-3.632-2.991-6.835-6.467-9.52-10.33c-1.206-1.726-2.302-3.526-3.28-5.39c-3.81-7.272-5.797-15.36-5.79-23.57c0-0.41,0-0.81,0-1.21
	c0.535-22.299,15.537-41.648,37-47.72c3.993-1.1,8.102-1.725,12.24-1.86h1.521c28.056-0.017,50.813,22.714,50.83,50.77
	C369.461,293.627,369.461,293.633,369.461,293.64z"/>
<path fill="#AFC0E0" d="M390.4,152.43c-81.27,38.91-146.22,0-146.22,0C260.079,98.991,282.668,47.775,311.41,0
	C311.41,0,356.97,52.31,390.4,152.43z"/>
<path fill="#AFC0E0" d="M396.591,591.78c-3.801,14.96-8.033,30.177-12.7,45.649c-2.214,7.381-4.547,14.82-7,22.32
	c-3.68,11.25-35.72,37.21-122,0c0,0-2.801-7.89-7-22.32c-3.141-10.899-7.051-25.51-11.131-43.29c0,0,32.12,13.71,77.711,13.71
	C342.635,607.946,370.54,602.485,396.591,591.78z"/>
<path fill="#E3E8F4" d="M383.89,637.43c-2.214,7.38-4.547,14.82-7,22.32c-3.68,11.25-35.72,37.21-122,0c0,0-2.801-7.89-7-22.32
	C247.88,637.43,335.82,662.73,383.89,637.43z"/>
<path opacity="0.2" fill="#FFFFFF" enable-background="new    " d="M304.9,244.64l-0.11,0.08l-36.899,47.64c0,0.4,0,0.8,0,1.21
	c-0.007,8.209,1.979,16.298,5.79,23.57l43.479-74.36L304.9,244.64z"/>
<path opacity="0.2" fill="#FFFFFF" enable-background="new    " d="M316.68,287.64l-30.221,45.25
	c-3.632-2.991-6.835-6.467-9.52-10.33l36-38.64L316.68,287.64z"/>
<path opacity="0.2" fill="#FFFFFF" enable-background="new    " d="M274.2,659.76c0,0-8.62-24.31-18.1-65.609
	c-20.87-90.84-45.9-263.93,7.43-441.72c14.335-48.106,34.078-94.432,58.851-138.09c-6.771-9.49-11-14.33-11-14.33
	c-28.731,47.773-51.311,98.985-67.2,152.42c-53.33,177.79-28.301,350.879-7.431,441.72c9.48,41.3,18.101,65.609,18.101,65.609
	c34.09,14.69,60.28,17.771,79.5,16.13C317.93,674.64,297.99,670.01,274.2,659.76z"/>
<path fill="none" stroke="#535461" stroke-width="2" stroke-miterlimit="10" d="M936.98,728.93c0,0,46.74-58.16,43.64-116.41
	c-1.454-24.419,5.051-48.651,18.54-69.06c6.492-9.654,13.856-18.691,22-27"/>
<path fill="#2271FF" d="M1019.39,479.78c-3.34,8.109,1.66,37.68,1.66,37.68s24.37-17.479,27.71-25.59
	c3.338-8.11-0.53-17.392-8.641-20.73C1032.01,467.802,1022.729,471.67,1019.39,479.78L1019.39,479.78L1019.39,479.78z"/>
<path fill="#2271FF" d="M976.61,514.72c1.61,8.62,21.88,30.721,21.88,30.721s11-27.91,9.351-36.54
	c-1.607-8.624-9.901-14.313-18.525-12.705C980.691,497.802,975.003,506.096,976.61,514.72L976.61,514.72z"/>
<path fill="#2271FF" d="M946.07,591.94c5.74,6.63,34.4,15.479,34.4,15.479s-4.641-29.63-10.38-36.27
	c-5.885-6.503-15.928-7.004-22.43-1.119c-6.305,5.705-6.997,15.363-1.57,21.908L946.07,591.94z"/>
<path fill="#2271FF" d="M936.12,655.57c4.53,7.51,31.28,21.069,31.28,21.069s0.44-30-4.09-37.5
	c-4.537-7.508-14.302-9.917-21.81-5.38C933.992,638.297,931.584,648.062,936.12,655.57z"/>
<path fill="#2271FF" d="M1028.68,559.71c-8.141,3.25-37.66-2.05-37.66-2.05s17.72-24.19,25.87-27.45
	c8.146-3.256,17.39,0.709,20.646,8.855C1040.791,547.211,1036.827,556.454,1028.68,559.71L1028.68,559.71z"/>
<path fill="#2271FF" d="M1016.1,633.98c-8.74,0.67-35.32-13.221-35.32-13.221s24.141-17.79,32.891-18.46
	c8.762-0.488,16.261,6.22,16.749,14.981C1030.893,625.786,1024.577,633.151,1016.1,633.98z"/>
<path fill="#2271FF" d="M993.97,704.48c-8.51,2.14-37.05-7.061-37.05-7.061s20.79-21.609,29.3-23.74
	c8.505-2.14,17.135,3.021,19.274,11.525C1007.635,693.71,1002.475,702.34,993.97,704.48z"/>
<path opacity="0.25" enable-background="new    " d="M1019.39,479.78c-3.34,8.109,1.66,37.68,1.66,37.68s24.37-17.479,27.71-25.59
	c3.338-8.11-0.53-17.392-8.641-20.73C1032.01,467.802,1022.729,471.67,1019.39,479.78L1019.39,479.78L1019.39,479.78z"/>
<path opacity="0.25" enable-background="new    " d="M976.61,514.72c1.61,8.62,21.88,30.721,21.88,30.721s11-27.91,9.351-36.54
	c-1.607-8.624-9.901-14.313-18.525-12.705C980.691,497.802,975.003,506.096,976.61,514.72L976.61,514.72z"/>
<path opacity="0.25" enable-background="new    " d="M946.07,591.94c5.74,6.63,34.4,15.479,34.4,15.479s-4.641-29.63-10.38-36.27
	c-5.885-6.503-15.928-7.004-22.43-1.119c-6.305,5.705-6.997,15.363-1.57,21.908L946.07,591.94z"/>
<path opacity="0.25" enable-background="new    " d="M936.12,655.57c4.53,7.51,31.28,21.069,31.28,21.069s0.44-30-4.09-37.5
	c-4.537-7.508-14.302-9.917-21.81-5.38C933.992,638.297,931.584,648.062,936.12,655.57z"/>
<path opacity="0.25" enable-background="new    " d="M1028.68,559.71c-8.141,3.25-37.66-2.05-37.66-2.05s17.72-24.19,25.87-27.45
	c8.146-3.256,17.39,0.709,20.646,8.855C1040.791,547.211,1036.827,556.454,1028.68,559.71L1028.68,559.71z"/>
<path opacity="0.25" enable-background="new    " d="M1016.1,633.98c-8.74,0.67-35.32-13.221-35.32-13.221
	s24.141-17.79,32.891-18.46c8.762-0.488,16.261,6.22,16.749,14.981C1030.893,625.786,1024.577,633.151,1016.1,633.98z"/>
<path opacity="0.25" enable-background="new    " d="M993.97,704.48c-8.51,2.14-37.05-7.061-37.05-7.061s20.79-21.609,29.3-23.74
	c8.505-2.14,17.135,3.021,19.274,11.525C1007.635,693.71,1002.475,702.34,993.97,704.48z"/>
<path fill="none" stroke="#535461" stroke-width="2" stroke-miterlimit="10" d="M937.4,726.5c0,0,66.3-34.24,87.07-88.74
	c8.563-22.919,24.332-42.44,44.939-55.63c9.83-6.19,20.207-11.466,31-15.76"/>
<path fill="#2271FF" d="M1113.7,532.1c-6.34,6.07-13.75,35.131-13.75,35.131s29.36-6.11,35.7-12.17
	c6.352-6.062,6.587-16.124,0.525-22.476s-16.124-6.586-22.476-0.524l0,0V532.1z"/>
<path fill="#2271FF" d="M1060.44,546.71c-2,8.54,7.55,37,7.55,37s21.29-21.07,23.351-29.66c2-8.539-3.302-17.083-11.841-19.083
	C1070.999,532.977,1062.485,538.222,1060.44,546.71L1060.44,546.71z"/>
<path fill="#2271FF" d="M1001.22,604.93c2.56,8.391,25.18,28.09,25.18,28.09s7.771-29,5.21-37.35
	c-2.557-8.392-11.433-13.122-19.825-10.564C1003.393,587.662,998.663,596.538,1001.22,604.93L1001.22,604.93z"/>
<path fill="#2271FF" d="M966.341,659.07c1.1,8.71,20.06,31.939,20.06,31.939s12.561-27.229,11.45-35.939
	c-1.104-8.701-9.054-14.859-17.755-13.755S965.236,650.369,966.341,659.07L966.341,659.07z"/>
<path fill="#2271FF" d="M1089.81,608.94c-8.771-0.32-33.6-17.131-33.6-17.131s26-14.93,34.77-14.609
	c8.765,0.323,15.608,7.69,15.285,16.455S1098.575,609.263,1089.81,608.94L1089.81,608.94z"/>
<path fill="#2271FF" d="M1048.211,671.74c-8.271-2.931-26.94-26.4-26.94-26.4s29.29-6.47,37.55-3.54
	c8.269,2.93,12.595,12.008,9.665,20.275S1056.478,674.67,1048.211,671.74L1048.211,671.74z"/>
<path fill="#2271FF" d="M999.4,727.23c-8.64-1.49-31-21.471-31-21.471s27.771-11.319,36.41-9.83
	c8.644,1.491,14.441,9.707,12.95,18.351s-9.707,14.44-18.351,12.95l0,0H999.4z"/>
<linearGradient id="SVGID_1_" gradientUnits="userSpaceOnUse" x1="843.9929" y1="-72.4961" x2="843.9929" y2="425.0874" gradientTransform="matrix(1 0 0 -1 -21.3203 707.0703)">
	<stop  offset="0" style="stop-color:#808080;stop-opacity:0.25"/>
	<stop  offset="0.54" style="stop-color:#808080;stop-opacity:0.12"/>
	<stop  offset="1" style="stop-color:#808080;stop-opacity:0.1"/>
</linearGradient>
<path fill="url(#SVGID_1_)" d="M1031.671,694.36l-51.391-74.53c0,0-1-18.45-4.319-22.76c-3.32-4.311-0.721-13.9-0.721-13.9
	s3.601-5.27,0.48-5.75c-3.12-0.479-0.48-12.229-0.48-12.229l-0.239-18.69c0,0,2.88-18,0.479-22.28
	c-1.436-2.381-1.341-5.383,0.24-7.67c0,0,2.88-10.31,0-12.939s-2.16-18.7-1.44-31.4c0.721-12.7-5.05-19.89-5.05-21.81
	s-19-20.61-19-22.28s-12-8.63-19.21-10.55s-10.81-3.351-10.57-4.311c0.24-0.96-11.29-4.79-11.29-4.79s-10.09-0.72-13.939-5.76
	c-3.851-5.04-15.59-6.479-15.931-6.53c-0.069-0.33-0.149-0.67-0.22-1c-0.069-0.33-0.149-0.72-0.22-1.08
	c0.91-1.53,1.75-3.09,2.51-4.7c0.23-0.49,0.45-1,0.66-1.46c4.21-0.19,8.53-1.09,11.83-3.67c3.427-2.867,5.51-7.028,5.75-11.49
	c0.204-4.43-0.766-8.834-2.81-12.77c-2.101-4.32-5.19-8.79-4.131-13.47c0.471-2,1.681-3.8,2.301-5.78
	c1.17-3.75,0.09-7.87-1.73-11.35s-4.35-6.54-6.37-9.91c-2.58-4.294-4.302-9.049-5.069-14c-0.41-2.6-0.57-5.34-1.881-7.63
	c-1.085-1.7-2.521-3.148-4.21-4.25c-7.514-5.374-16.587-8.125-25.819-7.83c-6.54,0.23-13.061,2-19.55,1.19
	c-3.91-0.48-7.641-1.87-11.421-3c-8.06-2.38-17.35-3.36-24.369,1.25c-7.021,4.61-9.811,13.68-14.561,20.77
	c-4.2,6.28-10.36,11.54-13.56,18.18c0-0.12,0.06-0.25,0.1-0.38c-0.786,1.537-1.388,3.162-1.79,4.84c-1.22,5.22-0.2,10.68,1.07,15.89
	c0.649,2.69,1.55,5.61,3.88,7.1c2.33,1.49,5.63,1.16,8.39,1.65c-0.1,0.45-0.22,0.91-0.319,1.37c-5.928,28,10.651,55.857,38.09,64
	c0,0.49,0,1,0,1.459c-0.006,1.378-0.089,2.753-0.25,4.12l0,0c0,0-24.15-4.999-30.641-1.6c-6.489,3.4-19.22,6-21.14,7.9
	c-1.92,1.899-6.72,0.479-11,11.75c-4.28,11.27-4.8,22.76-10.33,28c-5.53,5.239-8.399,8.87-8.64,12.71s0.72,4.79-1.45,6
	s-5.28,6.229-4.32,8.149c0,0,1.2,4.79-2.64,7.181c-3.84,2.39-3.37,7.189-3.37,7.189s-1.44,5.28-4.8,6.47
	c-3.36,1.19-5.53,9.11-5.53,9.11l-10.93,12.55l-21.59-23.899c-3.367-3.73-9.119-4.025-12.851-0.66l-10.6,9.56
	c-4.092,0.992-7.789,3.195-10.61,6.32c-2.31,2.372-4.17,5.144-5.49,8.18l-5.81,5.221c-3.733,4.63-4.321,11.049-1.49,16.279
	l13.83,15.29l0.09,0.13c-5.229,0.66-9.85,2.341-13.38,5.45c-20.649,18.21-20.899,35-17.77,42.65s29.3,37.15,29.3,37.15
	s15.21,19.77,37.17,30.289l0,0l-0.17,0.17c-0.43,0.461-0.86,1-1.28,1.5l-0.36,0.461l-0.329,0.46l-0.391,0.58
	c-0.109,0.149-0.21,0.31-0.31,0.47c-0.101,0.16-0.28,0.45-0.41,0.689l-0.271,0.46c-0.159,0.301-0.329,0.61-0.489,0.931l-0.16,0.31
	c-0.2,0.42-0.4,0.851-0.59,1.3c-0.07,0.16-0.13,0.33-0.2,0.49c-0.12,0.311-0.25,0.63-0.37,1s-0.15,0.41-0.22,0.62
	c-0.07,0.21-0.21,0.62-0.311,0.94c-0.1,0.319-0.14,0.449-0.2,0.67c-0.06,0.22-0.199,0.699-0.289,1.06
	c-0.091,0.36-0.11,0.42-0.17,0.65c-0.131,0.55-0.261,1.12-0.37,1.72c0,0.22-0.08,0.45-0.12,0.68c-0.08,0.4-0.15,0.811-0.21,1.23
	c-0.05,0.29-0.08,0.58-0.12,0.87s-0.101,0.79-0.15,1.189l-0.09,0.92c0,0.44-0.08,0.9-0.11,1.36c0,0.28,0,0.56-0.05,0.84
	c0,0.76-0.08,1.521-0.09,2.32c-0.48,28,1.16,32.109,1.16,32.109s3.39,8.931,12.75,9.57c1.374,0.101,2.755,0.026,4.109-0.22
	c12.49-2.16,41.79-7.19,52.12-5.271c6.21,1.15,17.71-0.55,25.9-2.1l2.15-0.41l1.5,4.76l4.75-1.3l4,2.33l2.55,1.46
	c4.74,16.08,24,10.601,24,10.601l4.52,2.619l46.36,1.2c0,0,10,6,16.41,7.88c0.762,0.23,1.541,0.401,2.33,0.511
	c4.297,0.344,8.612,0.425,12.92,0.239c3.55-0.09,6.3-0.239,6.3-0.239s-0.47-12.591-1.15-26.681c17.721-0.739,33.431-1.85,42.94-3.52
	c24.76-4.351,35.09-26.86,38.89-38.891c1.143,4.917,1.954,9.905,2.43,14.931c1.01,4.39,2.295,8.712,3.851,12.939
	c1.352,3.402,3.126,6.62,5.28,9.58c18.26-6.229,7.21-15.57,3.359-19.649c-3.85-4.08,2.65-7.431,2.65-7.431s5-3.35,4.56-6.47
	c-0.439-3.12-0.72-6.47,15.61-6.229C1032.35,708.05,1031.671,694.36,1031.671,694.36z M778.01,541.36c0.21,1.37,2.49,16.14,4.55,20
	c0.43,0.819,0.6,3.729,0.54,7.89c-9.68-0.77-19.76-1.18-19.76-1.18c0.29,0.35,0.471,0.777,0.52,1.229l-1.52-0.34l-2.21-0.54
	l17.829-27.12L778.01,541.36z M742.69,597.56l16.75,2.66l1.41,0.22c-0.48,2.612-0.771,5.256-0.87,7.91c0,0.25,0.38,0.551,0.92,0.9
	c-0.234,1.32-0.345,2.659-0.33,4c0.271,1.33,8.101,4.189,17.08,6.57c-0.12,0.479-0.24,0.939-0.36,1.369l0,0
	c-7.93-4.17-20.43-6.119-21.869-9.22c-1.44-3.1-44-18-44-18s-1.551-0.819-4.23-2.12l11.2,2.12l3.08-0.31
	c6.982,1.747,14.07,3.043,21.22,3.88V597.56z"/>
<path fill="#434175" d="M976.99,704.79c0,0-6.659,40.229-40.47,46.18s-146.66,4.761-146.66,4.761s-64.52-9.28-87.85-63.801
	c-23.33-54.52-38.33-76.189-18.33-77.14s127.85,36.43,134,36.9C823.831,652.16,982.94,568.84,976.99,704.79z"/>
<path opacity="0.05" enable-background="new    " d="M976.99,704.79c0,0-6.659,40.229-40.47,46.18s-146.66,4.761-146.66,4.761
	s-64.52-9.28-87.85-63.801c-23.33-54.52-38.33-76.189-18.33-77.14s127.85,36.43,134,36.9
	C823.831,652.16,982.94,568.84,976.99,704.79z"/>
<path fill="#565387" d="M674.35,749.54c0,0,3.37,8.88,12.64,9.51c1.36,0.096,2.728,0.022,4.07-0.22
	c12.38-2.14,41.43-7.14,51.66-5.24c6.16,1.15,17.55-0.55,25.66-2.08c5.399-1,9.34-2,9.34-2s-9.521-31.66-10.72-32.609
	c-1.2-0.95-42.851-25.95-42.851-25.95l-33-2.37h-0.1c0,0-6.11,0.41-11.181,6.57c-3.489,4.21-6.479,11.13-6.68,22.47
	C672.73,745.49,674.35,749.54,674.35,749.54z"/>
<path opacity="0.05" enable-background="new    " d="M674.35,749.54c0,0,3.37,8.88,12.64,9.51c-3.253-4.181-6.258-8.548-9-13.08
	l0.17-23.09c-1.47-17.29,6.62-28.36,13-34.27h-0.1c0,0-17.38,1.18-17.86,29C672.72,745.43,674.35,749.54,674.35,749.54z"/>
<path opacity="0.1" enable-background="new    " d="M817.48,699.07l30.71-24l48.33-47.62c0,0-5.22-0.25-13.09-0.59
	c-2,1.25-7.45,5.18-7.65,10c-0.24,5.819-13.069,0.399-19.729,3.729s-39.28,45.08-45,44.811c-5.72-0.271-10.23-2.9-12.62,1.149
	c0,0.09-0.11,0.17-0.17,0.26L817.48,699.07z"/>
<path opacity="0.1" enable-background="new    " d="M679.881,695.17c1.09,0.53,2.189,1,3.319,1.521c23.34,10,52.141,31,54.29,34.76
	c1.3,2.32,18,12.46,30.891,20.06c5.399-1,9.34-2,9.34-2s-9.521-31.66-10.72-32.609c-1.2-0.95-42.851-25.95-42.851-25.95l-33-2.37
	h-0.1C691.051,688.58,684.95,689.01,679.881,695.17z"/>
<path fill="#434175" d="M615.12,626.93c3.091,7.62,29,36.91,29,36.91s16.42,21.42,39.761,31.42c23.34,10,52.14,31,54.279,34.76
	c1.38,2.45,20,13.65,33.08,21.351l2.931,1.71l6.5,3.77l3.439,2c0,0,8-6.399,15.91-12.84c7.91-6.439,15.63-12.75,15.76-13.109
	c0.23-0.711,3.32-8.811,2.61-9.28c-0.37-0.25-2-3.55-5-7.37c-3.202-4.24-7.357-7.666-12.13-10c-11-5-15.71-16.38-15.71-16.38
	s-1-0.76-2.63-1.76c-2.82-1.78-7.351-4.341-10.7-4.771c-5.25-0.66-15-11.37-15-11.37s-6.67-4.29-9.29-9.76
	c-2.5-5.22-39.42-30.58-42.84-32.92l89.51,57.479l21.42,13.771l30.71-24l48.34-47.62c0,0-6.5-0.32-16-0.72
	c-23.49-1-65.21-2.61-70.479-1.42c-4.291,0.999-8.717,1.286-13.101,0.85c0,0-11.88,0.54-19.739-3.61
	c-7.86-4.149-20.25-6.09-21.681-9.159c-1.43-3.07-43.569-17.851-43.569-17.851s-57.37-30.47-77.851-12.37
	C612.171,602.74,612.02,619.32,615.12,626.93z"/>
<path fill="#EE8E9E" d="M800.1,452.19l7.38,24.52l9.521,55.23l35,2.38l10.13-16.801l10.149-16.77c0,0,6.3-22.32,10.83-43.91
	c4-19.1,6.62-37.64,2.26-39.65c-3.859-1.789-6.399-8.219-8-15.14c-0.21-0.85-0.399-1.72-0.58-2.59
	c-1.166-5.858-1.94-11.789-2.319-17.75c0,0-73.33-3.8-63.09,26.431c1.827,5.164,2.761,10.602,2.76,16.079
	c-0.011,1.367-0.094,2.732-0.25,4.09C812.837,437.849,807.835,446.51,800.1,452.19z"/>
<path fill="#E3E8F4" d="M784.86,448.14l2.62,41.66l5.95,35.47l6.67,16.431l5.95,89.88c0,0,57.41,6.64,71.37-0.12
	c1.006-0.43,1.88-1.12,2.529-2c16.86-25.43,11.33-99.19,11.33-99.19l6.431-47.63l-4.29-24.72l-10.351-1.1l-8-0.851
	c0,0-1.8,2.221-4.399,5.65c-7.061,9.32-20,27.65-19.17,35.3c1.18,10.48-1.431,21.19-5.48,22.86s-7.38,4.52-8.09,1.67
	c-0.71-2.851-1.43-3.57-0.72-7.62s-3.101-16.43-3.101-16.43s-6.42-14.521-6-20.71c0.42-6.19-0.71-13.341-2.62-15
	c-1.909-1.66-4.52-3.341-2.38-11c2.141-7.66-9.39-22.45-9.39-22.45L784.86,448.14z"/>
<path opacity="0.1" enable-background="new    " d="M860.69,552.19l2.38,71.189l13.75,7.62c1.007-0.43,1.88-1.12,2.53-2
	c16.87-25.47,11.34-99.22,11.34-99.22l6.43-47.62l-4.289-24.71l-10.36-1.101c4-19.1,6.62-37.64,2.27-39.649
	c-3.87-1.79-6.409-8.22-8.06-15.14l0,0l-7.4,50.399c0,0,0.62,4.54,0.84,9.22c0.17,3.48,0.11,7-0.6,8.87
	c-1.67,4.29-0.479,11.91-0.479,11.91c-4.29,7.56-6.431,21.57-7.48,35.1C860.15,535.05,860.69,552.19,860.69,552.19z"/>
<path fill="#565387" d="M876.91,400.46c0,0,12,1.49,15.801,6.49c3.8,5,13.81,5.69,13.81,5.69s11.43,3.81,11.19,4.76
	c-0.24,0.949,3.329,2.39,10.479,4.29c7.15,1.899,19,8.81,19,10.479s18.811,20.23,18.811,22.141c0,1.909,5.72,9,5,21.659
	c-0.721,12.66-1.431,28.57,1.43,31.19c2.859,2.62,0,12.859,0,12.859c-1.55,2.288-1.608,5.273-0.15,7.62
	c2.38,4.29-0.47,22.15-0.47,22.15l0.229,18.57c0,0-2.619,11.659,0.48,12.14s-0.48,5.71-0.48,5.71s-2.619,9.53,0.721,13.811
	c3.34,4.279,4.279,22.619,4.279,22.619l51,74c0,0,0.721,13.57-15.47,13.33c-16.189-0.239-16,3.101-15.479,6.19
	c0.52,3.09-4.521,6.43-4.521,6.43s-6.43,3.33-2.62,7.38c3.811,4.051,14.761,13.33-3.33,19.521c-2.141-2.94-3.901-6.139-5.239-9.521
	c-1.536-4.2-2.809-8.491-3.811-12.85c0,0-1.67-18.1-5-20.479c-3.33-2.381-2.859-13.811-2.859-13.811s4.76-9.28-1.9-13.09
	c-6.66-3.811-103.43-57.33-103.43-57.33l-2.38-71.19c0,0-1.671-52.609,8.329-70.229c0,0-1.189-7.62,0.48-11.9s-0.24-18.1-0.24-18.1
	L876.91,400.46z"/>
<path opacity="0.1" enable-background="new    " d="M814.51,429.02c0,0-23.931-4.93-30.36-1.6s-19,6-21,7.86
	c-2,1.859-6.67,0.479-10.95,11.67c-4.279,11.189-4.77,22.609-10.239,27.85c-5.471,5.24-8.33,8.811-8.57,12.62
	c-0.24,3.811,0.71,4.76-1.43,6c-2.141,1.24-5.24,6.19-4.29,8.1c0.949,1.91,49.609,43.75,49.609,43.75s2.391,16,4.53,20
	s-2.38,59.761-7.14,63.57c-4.761,3.811,32.14,3.46,32.14,3.46s1.66-36.55,3.09-38.46c1.431-1.91-1-41-1-41s-0.24-33.33,2.86-42.14
	c3.1-8.811,2.75-38.061,2.75-38.061s2.74-17.569,6.069-21.67C823.91,446.87,814.51,429.02,814.51,429.02z"/>
<path fill="#565387" d="M813.801,428.31c0,0-23.94-4.93-30.37-1.6s-19,5.95-20.95,7.86s-6.66,0.47-11,11.66
	c-4.34,11.189-4.76,22.619-10.24,27.859c-5.479,5.24-8.33,8.811-8.569,12.62c-0.24,3.81,0.72,4.76-1.42,5.95
	c-2.141,1.189-5.24,6.189-4.29,8.09c0.949,1.9,49.52,43.811,49.52,43.811s2.38,16,4.521,20c2.14,4-2.381,59.75-7.141,63.56
	s32.141,3.46,32.141,3.46s1.67-36.55,3.1-38.45c1.43-1.899-1-41-1-41s-0.23-33.33,2.86-42.14c3.09-8.811,2.75-38.101,2.75-38.101
	s2.739-17.569,6.06-21.659C823.091,446.14,813.801,428.31,813.801,428.31z"/>
<path opacity="0.1" enable-background="new    " d="M811.28,408.141c1.828,5.164,2.761,10.602,2.76,16.079
	c24.093,7.137,49.946-3.08,62.65-24.76c-1.166-5.858-1.941-11.789-2.32-17.75C874.37,381.71,801.051,377.91,811.28,408.141z"/>
<path fill="#EE8E9E" d="M775.1,370.52c0.026,30.111,24.458,54.499,54.568,54.471c30.11-0.026,54.498-24.458,54.472-54.568
	c-0.026-30.11-24.458-54.499-54.568-54.472c-25.744,0.023-47.965,18.051-53.292,43.238
	C775.493,362.915,775.097,366.712,775.1,370.52z"/>
<path fill="#565387" d="M740.1,496.7l-13.09,4.05c0,0,1.189,4.76-2.62,7.14c-3.811,2.38-3.33,7.15-3.33,7.15s-1.43,5.229-4.76,6.42
	s-5.48,9-5.48,9l-10.95,12.62c0,0-4.05,3.33-3.33,5c0.721,1.67-4.289,2.14-4.289,2.14l2.619,42.42l22.62,4.29l14-1.43l11.431-4.29
	l10-6l4.56-11.57l20-30.47L740.1,496.7z"/>
<path fill="#EE8E9E" d="M695.58,553.64c0,0-29-41.909-50.71-19.29c-21.71,22.62,8.811,59.28,15.95,58.091
	c7.141-1.19,41.19-3.091,41.19-3.091L695.58,553.64z"/>
<path fill="#30374E" d="M635.526,548.672l26.865-24.233c5.176-4.668,13.156-4.257,17.824,0.919l29.846,33.089
	c4.668,5.175,4.257,13.155-0.919,17.823l-26.866,24.232c-5.175,4.668-13.155,4.257-17.823-0.918l-29.846-33.089
	C629.939,561.319,630.35,553.34,635.526,548.672z"/>
<path opacity="0.1" enable-background="new    " d="M635.526,548.672l26.865-24.233c5.176-4.668,13.156-4.257,17.824,0.919
	l29.846,33.089c4.668,5.175,4.257,13.155-0.919,17.823l-26.866,24.232c-5.175,4.668-13.155,4.257-17.823-0.918l-29.846-33.089
	C629.939,561.319,630.35,553.34,635.526,548.672z"/>
<path fill="#30374E" d="M636.344,545.221l26.865-24.232c5.176-4.669,13.155-4.258,17.824,0.918l29.845,33.089
	c4.669,5.175,4.258,13.155-0.918,17.823l-26.866,24.232c-5.176,4.669-13.155,4.258-17.823-0.918l-29.846-33.089
	C630.758,557.868,631.169,549.889,636.344,545.221z"/>
<circle fill="#2271FF" cx="672.39" cy="560.74" r="13.57"/>
<circle opacity="0.1" enable-background="new    " cx="672.39" cy="560.74" r="13.57"/>
<circle fill="#2271FF" cx="673.15" cy="559.02" r="13.57"/>
<path fill="#EE8E9E" d="M676.78,562.41c-0.24,31.43,64.76,38.09,64.76,38.09l16.601,2.64l7.439,1.181l3.101-30.681
	c0,0-3.41-0.51-7.67-1.5c-6.29-1.47-14.44-4-16.15-7.55C742.01,558.64,677.01,530.99,676.78,562.41z"/>
<path opacity="0.1" enable-background="new    " d="M776.28,359.19c1.5,0.11,2.914,0.74,4,1.78c1.84,1.95,1.94,5.41,4.33,6.61
	c0.894,0.389,1.882,0.503,2.84,0.33c6.33-0.9,10-8,16.07-10c3.46-1.12,7.271-0.39,10.65,0.91c1.359,0.426,2.578,1.21,3.529,2.27
	c2,2.63,0.61,6.5,1.551,9.69c1.31,4.42,6.59,6.18,11.159,6.76c4.57,0.58,9.721,0.9,12.771,4.35c2.16,2.45,2.71,6,2.27,9.21
	c-0.27,1.121-0.27,2.289,0,3.41c1.261,3.57,7.44,3,9.051,0.221c1.18-2.05,0.819-3.75,3.6-4.32c1.88-0.39,4.09,0.4,5.83,1
	c4.847,1.672,9.955,2.458,15.08,2.32c12.718-27.299,0.897-59.739-26.401-72.457s-59.739-0.897-72.457,26.401
	C778.436,351.357,777.137,355.219,776.28,359.19z"/>
<path fill="#434175" d="M845.421,393.07c-0.27-1.121-0.27-2.289,0-3.41c0.43-3.23-0.11-6.77-2.271-9.21c-3-3.45-8.2-3.78-12.77-4.35
	c-4.57-0.57-9.851-2.33-11.16-6.75c-0.94-3.19,0.479-7.07-1.55-9.7c-0.946-1.06-2.163-1.841-3.521-2.26c-3.39-1.31-7.2-2-10.66-0.92
	c-6.069,2-9.739,9.12-16.069,10c-0.959,0.174-1.947,0.059-2.841-0.33c-2.39-1.2-2.489-4.66-4.329-6.6
	c-2.891-3.06-8.381-1.09-11.921-3.36c-2.31-1.49-3.199-4.38-3.84-7.05c-1.26-5.18-2.27-10.61-1.06-15.79
	c2.07-8.86,10-14.93,15-22.49c4.71-7.05,7.35-16,14.43-20.64c7.08-4.64,16.17-3.61,24.15-1.24c3.74,1.11,7.439,2.49,11.31,3
	c6.44,0.79,12.9-1,19.38-1.18c9.152-0.296,18.147,2.436,25.59,7.77c1.678,1.098,3.103,2.54,4.181,4.23c1.29,2.28,1.46,5,1.85,7.58
	c0.757,4.921,2.454,9.651,5,13.93c2,3.35,4.51,6.39,6.32,9.85c1.81,3.46,2.87,7.55,1.71,11.27c-0.61,2-1.82,3.73-2.271,5.74
	c-1.06,4.65,2,9.09,4.091,13.38c2.023,3.913,2.982,8.289,2.779,12.69c-0.236,4.429-2.301,8.561-5.699,11.41
	c-3.37,2.64-7.801,3.52-12.07,3.66c-5.225,0.176-10.438-0.606-15.38-2.31c-1.75-0.6-4-1.39-5.83-1c-2.78,0.57-2.42,2.27-3.601,4.32
	C852.85,396.109,846.68,396.641,845.421,393.07z"/>
<path opacity="0.1" enable-background="new    " d="M816.051,700.5l30.71-24l48.34-47.62c0,0-6.5-0.32-16-0.72
	c-1.73,1.76-3.27,4-3.37,6.5c-0.24,5.82-13.07,0.41-19.729,3.74c-6.66,3.33-39.28,45.069-45,44.8
	c-5.721-0.271-10.23-2.9-12.62,1.149c-0.051,0.094-0.107,0.185-0.17,0.271c-0.95,1.085-2.222,1.838-3.63,2.15L816.051,700.5z"/>
<path fill="#434175" d="M754.15,698.83l15.43,49.26l2.421,7.74l7.35-2l16.2-4.45l72.159-19.82c0,0,13.561-0.18,26-6.93
	c13.75-7.479,29.261-11.24,44.841-9.78c9.54,0.891,20.149-3.22,29-19.479c0,0,20-59-30.48-76c-50.479-17-52.88,9-52.88,9
	s-0.26,0.14-0.68,0.42c-2,1.25-7.45,5.18-7.65,10c-0.24,5.82-13.07,0.4-19.729,3.729c-6.66,3.33-39.28,45.08-45,44.811
	c-5.721-0.271-10.23-2.9-12.62,1.15c0,0.09-0.11,0.17-0.17,0.26c-1.761,2.43-7.061,3-10.57,3.09c-1.91,0.06-3.3,0-3.3,0l-0.45,0.14
	l-3.74,1.04L754.15,698.83z"/>
<path opacity="0.1" enable-background="new    " d="M758.14,603.14l7.439,1.181l3.101-30.681c0,0-3.41-0.51-7.67-1.5
	C762.14,576.39,759.58,592.96,758.14,603.14z"/>
<path opacity="0.1" enable-background="new    " d="M952.82,459.64c0,0,22.141-6.43,16.66,56.431
	C964,578.93,923.06,618.64,923.06,618.64s-47.14,20.71-68.33,17.38c-21.19-3.329-36.66-4-36.66-4
	c-6.669-3.371-13.968-5.315-21.43-5.71c-11.91-0.479-36.9-7.859-37.38-10.239c-0.48-2.38,6.189-37.38,3.33-40
	c0,0,33.33,1.37,36.67,3.779c3.34,2.41,8.09,0.681,11.66,0c3.569-0.68,14.529-10.21,36.189-1.869c0,0,7.38,0.71,10.24-1.19
	s7.439-0.479,7.439-0.479s4.49-1.671,5.181-2.671c0.689-1,6.42,0,6.42,0c1.261,0.616,2.781,0.094,3.397-1.167
	c0.078-0.16,0.14-0.329,0.183-0.503c0.748-1.948,1.88-3.728,3.33-5.229c0,0,6.43-36.19,18.569-49.76c0,0,3.57-3.101,2.62-6.91
	C903.54,506.26,924.28,452.01,952.82,459.64z"/>
<path fill="#565387" d="M952.28,454.8c0,0,22.141-6.43,16.67,56.431C963.48,574.09,922.47,613.84,922.47,613.84
	s-47.141,20.71-68.33,17.38c-21.19-3.33-36.66-4.05-36.66-4.05c-6.668-3.373-13.967-5.318-21.43-5.71
	c-11.9-0.479-36.9-7.86-37.38-10.24c-0.48-2.38,6.189-37.38,3.34-40c0,0,33.33,1.37,36.66,3.78s8.1,0.68,11.67,0
	c3.569-0.68,14.52-10.2,36.189-1.87c0,0,7.38,0.71,10.23-1.189c2.85-1.9,7.45-0.48,7.45-0.48s4.46-1.67,5.17-2.62s6.43,0,6.43,0
	c1.254,0.616,2.771,0.099,3.386-1.156c0.079-0.16,0.141-0.329,0.185-0.504c0.746-1.952,1.879-3.734,3.33-5.239
	c0,0,6.43-36.19,18.569-49.761c0,0,3.57-3.1,2.62-6.899S923.66,447.18,952.28,454.8z"/>
<path opacity="0.1" enable-background="new    " d="M780.28,691.01l31.44,38c0.12-0.109,0.2-0.189,0.2-0.22
	c0.239-0.72,3.33-8.81,2.619-9.29c-0.71-0.479-6.189-12.38-17.14-17.38c-6.689-3-11.07-8.49-13.46-12.25L780.28,691.01z"/>
<path opacity="0.1" enable-background="new    " d="M780.711,756.85l3.439,2c0,0,8-6.399,15.91-12.84
	c7.91-6.439,15.63-12.75,15.76-13.109c0.23-0.71,3.32-8.811,2.61-9.28c-0.37-0.25-2-3.55-5-7.37c-21.32-6-7.75,8.83-5.94,9.51
	c0,0-26-6-27.38,22.311C779.922,751.011,780.124,753.963,780.711,756.85z"/>
<path fill="#565387" d="M807.001,768.83l4.529,2.62l46,1.189c0,0,9.86,6,16.26,7.82c0.755,0.235,1.527,0.406,2.311,0.51
	c4.258,0.345,8.532,0.425,12.8,0.24c3.521-0.09,6.25-0.24,6.25-0.24s-2.18-58-3.82-64c-0.779-2.92-4.63-2.279-8.43-0.819
	c-2.854,1.157-5.607,2.553-8.229,4.17c0,0-19.521,1.89-22.62,3.569c-3.101,1.681-11.9-1-17.38,0c-5.48,1-15.23-6.449-15.23-6.449
	c-26.67-8.801-11.67,7.619-9.77,8.34c0,0-25.94-6-27.37,22.31C780.87,776.4,807.001,768.83,807.001,768.83z"/>
<path fill="#565387" d="M873.43,746.45c0.5,12,9.85,26.89,15.42,34.76c3.52-0.09,6.25-0.24,6.25-0.24s-2.18-58-3.82-64
	c-0.779-2.92-4.63-2.279-8.43-0.819C878.28,724.75,873.03,736.78,873.43,746.45z"/>
<path opacity="0.1" enable-background="new    " d="M873.43,746.45c0.5,12,9.85,26.89,15.42,34.76c3.52-0.09,6.25-0.24,6.25-0.24
	s-2.18-58-3.82-64c-0.779-2.92-4.63-2.279-8.43-0.819C878.28,724.75,873.03,736.78,873.43,746.45z"/>
<path opacity="0.05" enable-background="new    " d="M865.57,748.04c3.16,11.58,3.13,24.57,8.17,32.42
	c0.755,0.235,1.527,0.406,2.311,0.51c4.257,0.345,8.532,0.425,12.8,0.24c3.52-0.09,6.25-0.24,6.25-0.24s-2.18-58-3.82-64
	c-0.78-2.92-4.63-2.279-8.43-0.819c-2.855,1.157-5.608,2.553-8.23,4.17C874.62,720.32,861.53,733.22,865.57,748.04z"/>
<path opacity="0.1" enable-background="new    " d="M707.051,630.58c0,0,22.819,7.41,42.16,33.729L707.051,630.58z"/>
<g opacity="0.1">
	<path d="M892.51,344.9c-0.037,0.169-0.084,0.336-0.141,0.5c-0.219,0.684-0.482,1.352-0.79,2
		C891.815,346.541,892.127,345.704,892.51,344.9z"/>
	<path d="M763.39,333.35c0.396-1.668,0.99-3.283,1.77-4.81c-0.12,0.41-0.25,0.82-0.35,1.24c-1.21,5.18-0.2,10.61,1.06,15.79
		c0.65,2.67,1.53,5.56,3.841,7.05c3.55,2.27,9,0.29,11.92,3.35c1.84,1.95,1.939,5.41,4.34,6.61c0.893,0.389,1.882,0.504,2.84,0.33
		c6.32-0.9,10-8,16.07-10c3.46-1.12,7.26-0.39,10.649,0.92c1.357,0.419,2.574,1.2,3.521,2.26c2,2.63,0.61,6.51,1.55,9.69
		c1.311,4.42,6.59,6.18,11.16,6.75c4.57,0.57,9.72,0.9,12.77,4.36c2.16,2.44,2.71,6,2.271,9.21c-0.265,1.121-0.265,2.289,0,3.41
		c1.26,3.57,7.439,3,9,0.22c1.18-2.05,0.83-3.75,3.61-4.32c1.869-0.39,4.079,0.4,5.819,1c4.942,1.703,10.155,2.486,15.38,2.31
		c4.271-0.15,8.71-1,12.07-3.66c1.535-1.224,2.796-2.757,3.7-4.5c-0.783,3.173-2.572,6.008-5.101,8.08
		c-3.359,2.64-7.79,3.52-12.069,3.66c-5.222,0.177-10.432-0.606-15.37-2.31c-1.75-0.6-4-1.39-5.83-1
		c-2.78,0.57-2.431,2.27-3.601,4.32c-1.62,2.82-7.79,3.35-9.06-0.22c-0.265-1.121-0.265-2.289,0-3.41c0.439-3.23-0.1-6.77-2.26-9.21
		c-3.061-3.45-8.21-3.78-12.78-4.35c-4.57-0.57-9.85-2.33-11.15-6.75c-0.95-3.19,0.48-7.07-1.55-9.7
		c-0.951-1.058-2.171-1.839-3.53-2.26c-3.39-1.31-7.189-2-10.649-0.92c-6.08,2-9.75,9.12-16.07,10
		c-0.958,0.174-1.947,0.059-2.84-0.33c-2.4-1.2-2.5-4.66-4.34-6.6c-2.891-3.06-8.37-1.09-11.91-3.36c-2.32-1.49-3.2-4.38-3.85-7.05
		C763.18,343.96,762.171,338.53,763.39,333.35z"/>
</g>
<path opacity="0.1" enable-background="new    " d="M896.2,523.9c-4.359,5.89-9.34,11.34-13.199,17.569
	c-3.86,6.23-6.591,13.5-5.78,20.78c4-4.1,5.819-9.76,8.34-14.9c4.26-8.699,10.64-16.08,16-24.08c1-1.529,7.61-10.35,4.28-10.77
	C903.1,512.15,897.69,521.89,896.2,523.9z"/>
<image overflow="visible" width="1026" height="1011" xlink:href="../../../../../../Users/THINKPAD-RIOJERICO/Pictures/Logo_BPN-KemenATR_(2017).png"  transform="matrix(0.0937 0 0 0.0958 263.6721 443.7539)">
</image>
</svg>
