<?xml version="1.0" encoding="utf-8"?>
<!-- Generator: Adobe Illustrator 16.0.0, SVG Export Plug-In . SVG Version: 6.00 Build 0)  -->
<!DOCTYPE svg PUBLIC "-//W3C//DTD SVG 1.1//EN" "http://www.w3.org/Graphics/SVG/1.1/DTD/svg11.dtd">
<svg version="1.1" id="_x32_6e08365-e7f3-4f87-b2fd-e29738693ebb"
	 xmlns="http://www.w3.org/2000/svg" xmlns:xlink="http://www.w3.org/1999/xlink" x="0px" y="0px" width="999px" height="797.25px"
	 viewBox="0 0 999 797.25" enable-background="new 0 0 999 797.25" xml:space="preserve">
<title>press play</title>
<g>
	<path fill="#E8F1FF" d="M633.49,500.576l-419.823,4.681l-0.037,2.003l-0.018,0.96c85.786,42.008,181.833,68.105,279.347,81.32
		c19.863,2.696,39.894,4.877,59.966,6.047c-0.403-2.04-0.564-4.122-0.535-6.207c0.07-8.63,3.399-17.33,6.399-23.4
		c2.723-5.51,4.983-11.236,6.761-17.119c5.896-19.584,16.814-23.242,24.149-23.242c2.145,0,3.983,0.313,5.301,0.632
		c2.06,0.5,4.14,0.96,6.229,1.34c19.473,3.527,32.553,9.767,41.348,16.638c0.458,0.346,0.906,0.694,1.343,1.044
		c0.377-1.001,0.783-2.032,1.239-3.151c5.79-13.95-9.56-39.87-9.56-39.87C634.833,501.762,634.132,501.2,633.49,500.576
		 M872.261,497.913l-68.773,0.767c0.163,0.573,0.295,1.16,0.393,1.761c0.12,0.619,0.12,1,0.12,1s-0.018,0.058-0.052,0.169
		c0.042,0.345,0.052,0.541,0.052,0.541s-0.435,1.411-1.113,3.756c0.476,1.027,0.81,2.115,0.993,3.233
		c0.1,0.601,0.149,1.011,0.149,1.011s-0.026,0.077-0.075,0.226c0.036,0.29,0.046,0.454,0.046,0.454s-6.32,18.96-8.409,32.321
		c0.816-0.389,1.634-0.78,2.448-1.171C824.323,529.361,850.008,515.352,872.261,497.913 M427.598,0.01
		c-39.12,0-79.467,7.269-106.388,31.26c-30.71,27.36-25.71,56.99-19.351,90.71c5.92,31.37-29.279,58.81-59,73
		c-28.77,13.73-61.17,20.39-93.06,27.15c-21.66,4.59-43.79,9.48-62.3,20.3c-44.79,26.2-56.351,82.18-38.29,126.4
		c15.915,38.968,49.886,69.976,87.717,95.495l12.953-0.096v-3.02h-6.72v-40.2h0.18V421h13.173
		c1.674-5.261,6.294-18.388,12.897-26.17l-0.79-0.48c-5.504-3.346-15.183-10.64-15.19-19.734c-0.001-1.017,0.12-2.057,0.38-3.116
		l-0.24-0.21c-3.347-2.922-7.92-7.68-7.928-11.813c-0.001-0.633,0.104-1.251,0.338-1.847c0.481-1.223,1.242-1.724,2.167-1.724
		c0.254,0,0.521,0.038,0.798,0.109c0.213-0.069,0.439-0.102,0.676-0.102c2.702,0,6.792,4.266,9.328,7.261
		c1.011-0.817,2.264-1.301,3.581-1.365c-0.04-0.46-0.119-0.94-0.119-1.46c-0.032-0.573-0.052-1.172-0.052-1.777
		c0.001-3.313,0.615-6.776,3.257-6.776c0.254,0,0.527,0.032,0.82,0.1c0.204-0.052,0.422-0.08,0.656-0.08
		c0.333,0,0.699,0.055,1.099,0.173c4.13,1.22,1.311,6.15-1.17,9.45c-0.253,0.332-0.512,0.66-0.775,0.983
		c5.911,3.121,10.547,17.097,12.775,25.157c0.005,0.019,0.011,0.037,0.016,0.055c0.008-0.001,0.016-0.003,0.024-0.005
		c0.119,0.408,0.23,0.801,0.334,1.176c0.109-0.003,0.217-0.005,0.326-0.005c0.162,0,0.323,0.004,0.484,0.011
		c0.323-0.036,0.648-0.054,0.977-0.054c1.739,0,3.547,0.512,5.415,1.66c0.073-0.081,0.147-0.164,0.224-0.249
		c2.771-3.05,6.94-8.43,7.41-13.34c0.471-4.91,1.01-9.64,3.851-11.64l-0.801-0.78c-1.992-2.057-4.12-4.848-4.125-7.376
		c-0.003-1.419,0.663-2.755,2.395-3.833c0.83-0.513,1.54-0.742,2.146-0.742c0.245,0,0.474,0.038,0.686,0.109
		c0.27-0.074,0.523-0.109,0.76-0.109c3.062,0,3.475,5.851,3.358,10.251c-0.015,0.5-0.037,0.981-0.062,1.433
		c0.216-0.017,0.441-0.026,0.673-0.026c0.71,0,1.493,0.083,2.356,0.258c0.098-0.286,0.195-0.57,0.292-0.834
		c0.553-1.531,1.32-2.975,2.28-4.29c1.212-1.617,2.771-2.29,4.312-2.29c0.237,0,0.474,0.016,0.708,0.047
		c0.243-0.034,0.487-0.051,0.73-0.051c4.139,0,8.126,4.824,4.95,9.224c-1.9,2.413-4.396,4.291-7.239,5.45
		c-0.09,0.039-0.182,0.078-0.272,0.116c2.445,9.865-1.105,26.49-16.728,29.614l-0.106,0.019c1.14,7.14-3.343,14.534-7.464,19.622
		h13.651v40.2H200.4v0.01h-3.41v1.44v1.233l178.3-1.308c-5.917-4.123-9.789-10.978-9.789-18.736V217.79
		c0-12.603,10.217-22.82,22.819-22.82H692.6c12.604,0,22.82,10.217,22.82,22.82v65.79c0.087,0.04,0.174,0.08,0.26,0.121
		c9.06,4.23,16.39,10.89,22.76,18c2.66,2.97,5.22,6.12,6.41,9.75c0.564,1.737,0.795,3.515,0.794,5.308
		c0,3.483-0.871,7.022-1.854,10.422c-2,6.9-4.46,13.8-5.43,20.9c-0.256,1.872-0.397,3.775-0.397,5.678
		c-0.001,5.313,1.103,10.618,3.907,15.212c3.811,6.24,10.74,11.24,11.74,18.24c0.107,0.719,0.148,1.441,0.148,2.167
		c0,0.64-0.032,1.281-0.079,1.922c0.933,1.061,1.89,2.237,2.687,3.015c0.291,0.248,0.553,0.423,0.774,0.497
		c0.072,0.024,0.164,0.129,0.271,0.306c0.03,0.013,0.06,0.024,0.089,0.034c0.68,0.227,2.937,7.383,5.107,15.421
		c1.447,1.168,2.833,2.41,4.152,3.719c1.641,1.654,2.99,3.507,4.039,5.488c1.934,3.499,2.926,7.413,2.929,11.354
		c0.003,3.966-0.996,7.96-3.048,11.587c-0.991,1.697-2.246,3.421-2.249,5.311c0,0.093,0.003,0.187,0.009,0.28
		c0.038,0.566,0.183,1.093,0.407,1.591c1.377,2.346,4.487,4.084,6.143,6.438c0.391,0.547,0.693,1.135,0.909,1.747
		c0.221,0.5,0.381,1.019,0.48,1.548l134.344-0.985c46.545-63.205,51.076-149.712,7.167-214.869
		c-25.351-37.61-63.8-67.04-102.851-94.35C707.17,73.99,582.459,7.3,444.3,0.43C438.786,0.159,433.205,0.01,427.598,0.01"/>
	<path fill="#E8F1FF" d="M174.08,97.9c-17.397,0-31.5,14.103-31.5,31.5s14.103,31.5,31.5,31.5c17.396,0,31.5-14.103,31.5-31.5
		S191.477,97.9,174.08,97.9"/>
	<path fill="#E8F1FF" d="M108.09,34.9c-10.77,0-19.5,8.73-19.5,19.5s8.73,19.5,19.5,19.5s19.5-8.73,19.5-19.5
		S118.86,34.9,108.09,34.9"/>
	<path fill="#E8F1FF" d="M925.57,102.4c-6.627,0-12,5.373-12,12s5.373,12,12,12c6.628,0,12-5.373,12-12S932.198,102.4,925.57,102.4"
		/>
	<path fill="#E8F1FF" d="M759.158,784.064c-15.047,6.929-41.751,11.535-72.188,11.535c-29.41,0-55.337-4.302-70.628-10.843
		c-6.792,1.211-10.662,2.606-10.662,4.093c0,4.64,37.715,8.4,84.24,8.4c46.524,0,84.239-3.761,84.239-8.4
		C774.159,787.071,768.615,785.422,759.158,784.064"/>
	<polyline fill="#5F5D7E" points="214,487.31 213.63,507.26 210.67,668.97 185.33,728.31 98,729.31 98,496.5 189.14,489.28 
		214,487.31 	"/>
	<polyline fill="#555471" points="213.667,505.257 213.667,505.257 213.63,507.26 210.67,668.97 185.33,728.31 192,507.64 
		191.98,507.5 98,508.55 98,506.547 98,729.31 185.33,728.31 210.67,668.97 213.63,507.26 213.667,505.257 	"/>
	<polyline fill="#5F5D7E" points="214,487.31 213.63,507.26 210.67,668.97 185.33,728.31 192,507.64 191.98,507.5 189.14,489.28 
		214,487.31 	"/>
	<polyline fill="#4C4B65" points="191.668,505.502 98,506.547 98,508.55 191.98,507.5 191.668,505.502 	"/>
	<polyline fill="#555471" points="213.667,505.257 191.668,505.502 191.98,507.5 213.63,507.26 213.667,505.257 	"/>
	<polyline fill="#5F5D7E" points="999,496.5 999,727.97 978.67,727.97 897.329,668.64 897.329,489.97 970,483.14 974.46,485.19 
		978.67,487.13 999,496.5 	"/>
	<polyline fill="#555471" points="999,498.5 978.67,498.73 978.67,727.97 999,727.97 999,498.5 	"/>
	<polyline fill="#555471" points="978.67,496.727 897.329,497.634 897.329,499.63 978.67,498.73 978.67,496.727 	"/>
	<polyline fill="#4C4B65" points="999,496.5 978.67,496.727 978.67,498.73 999,498.5 999,496.5 	"/>
	<polyline fill="#5F5D7E" points="999,477.64 999,496.5 0,507.64 0,483.64 94,464.64 912,458.64 999,477.64 	"/>
	<path fill="#555471" d="M626.711,479.876L0,483.64v24l633.49-7.063C628.113,495.351,626.904,485.828,626.711,479.876 M999,477.64
		l-238.806,1.435c-0.526,3.693-1.024,7.211-1.471,10.372c12.462-1.384,23.668-1.777,29.605-1.887
		c0.135-0.004,0.27-0.005,0.403-0.005c6.898,0,12.892,4.599,14.755,11.125L999,496.5V477.64"/>
	<path fill="#474157" d="M388.32,194.97H692.6c12.604,0,22.82,10.217,22.82,22.82v226.05c0,12.604-10.217,22.82-22.82,22.82H388.32
		c-12.603,0-22.819-10.217-22.819-22.82V217.79C365.5,205.187,375.717,194.97,388.32,194.97"/>
	<polyline fill="#EDEDF4" points="393.659,219.48 687.78,219.48 687.78,441.11 393.659,441.11 393.659,219.48 	"/>
	<circle fill="#E6E8EC" cx="382.18" cy="330.29" r="4.82"/>
	<path fill="#E6E8EC" d="M700.81,322.86c4.391,0,7.95,3.56,7.95,7.95s-3.56,7.95-7.95,7.95s-7.95-3.559-7.95-7.95
		S696.419,322.86,700.81,322.86"/>
	<g>
		<defs>
			<path id="SVGID_1_" d="M768.847,449.901c1.186,2.631,4.605,4.446,6.363,6.969c0.272,0.387,0.502,0.795,0.688,1.217
				c-0.216-0.612-0.519-1.2-0.909-1.747C773.334,453.985,770.224,452.247,768.847,449.901 M762.608,410.571
				c0.021,0.076,0.041,0.151,0.062,0.228c1.527,1.27,3.043,2.549,4.37,3.922c1.502,1.538,2.758,3.241,3.76,5.058
				c-1.049-1.981-2.398-3.834-4.039-5.488C765.441,412.981,764.055,411.739,762.608,410.571 M756.365,394.313
				c0.396,0.386,0.751,0.675,1.046,0.802c-0.107-0.177-0.199-0.281-0.271-0.306C756.918,394.737,756.656,394.562,756.365,394.313"/>
		</defs>
		<clipPath id="SVGID_2_">
			<use xlink:href="#SVGID_1_"  overflow="visible"/>
		</clipPath>
		<g transform="matrix(1 0 0 1 6.103516e-005 3.051758e-005)" clip-path="url(#SVGID_2_)">
			
				<image overflow="visible" width="84" height="269" xlink:href="5455EBB7.jpg"  transform="matrix(0.24 0 0 -0.24 756.0803 458.4053)">
			</image>
		</g>
	</g>
	<g>
		<defs>
			<path id="SVGID_3_" d="M702.023,745.502c-0.989,0.415-1.997,0.83-3.019,1.241c39.557,1.615,70.371,11.072,72.916,22.741
				C771.81,757.541,741.722,747.614,702.023,745.502 M713.835,720.328l5.546,13.015c0.01-0.024,0.02-0.049,0.028-0.073
				L713.835,720.328 M700.732,700.067c2.154,4.567,6.477,11.394,9.076,15.389c0.007-0.002,0.015-0.004,0.021-0.006
				c0.192,0.3,0.374,0.582,0.546,0.845c0.847-0.246,1.437-0.385,1.546-0.411l-0.562-1.304c0,0-0.63,0.14-1.56,0.41l-0.561-0.841
				C706.867,710.539,703.043,704.554,700.732,700.067 M643.898,632.706l17.512,35.704c0,0,11.58,17.92,15.17,32.06v14.16
				c-1.05,4.219-2.885,8.201-5.409,11.74c-2.391,3.27-4.721,6.58-6.881,10c-0.659,1.06-1.39,2.149-2.119,3.17
				c-0.24,0-12.07,0.69-14.08,2.91c-1.216,1.344-3.316,3.446-3.737,5.573c0.22,0.57,0.425,1.129,0.609,1.67
				c0.16-0.026,0.325-0.054,0.486-0.079c0.343-2.183,2.513-4.355,3.751-5.734c1.974-2.198,13.45-2.888,13.981-2.919
				c0.743-1.033,1.446-2.094,2.108-3.181c2.141-3.44,4.461-6.761,6.83-10c2.482-3.532,4.3-7.471,5.381-11.622v-14.34
				c-3.579-14.184-15.07-32.148-15.07-32.148l-17.927-36.826L643.898,632.706 M581.171,618.596c0.285,8.846,1.341,19.2,4.339,26.704
				c6.29,15.7,16.359,41.12,16.359,41.12s12.08,25.92,12.841,36.38c0.489,6.851,1.21,15.83,0.71,22c0,0.38-0.061,0.74-0.101,1.101
				c-1.036,1.118-2.167,2.146-3.38,3.069c-1.76,1-7.55,7.23-7.55,8.72c0.013,1.429,0.14,2.853,0.38,4.261
				c-2.74,2.39-4.24,5-4.24,7.6c0,2.3,1.11,4.525,3.186,6.636c-1.222-1.656-1.865-3.375-1.865-5.136
				c0-2.674,1.481-5.247,4.222-7.657c-0.338-1.934-0.372-3.693-0.372-4.242l0,0l0,0c0-1.37,5.75-7.75,7.5-8.75l0,0
				c1.163-0.965,2.284-1.979,3.361-3.037c0.045-0.372,0.084-0.757,0.119-1.153l0,0c0.49-6.18-0.22-15.19-0.71-22.06
				c-0.75-10.5-12.75-36.5-12.75-36.5s-10-25.5-16.25-41.25c-3.064-7.724-4.086-18.512-4.33-27.503
				C582.143,618.801,581.653,618.699,581.171,618.596 M552.925,595.587c1.24,6.273,4.766,12.153,12.067,16.529
				c-6.511-4.476-9.585-10.297-10.584-16.444C553.912,595.644,553.421,595.616,552.925,595.587 M784.117,591.215
				c-0.069,0.175-0.138,0.345-0.203,0.51c3.545,5.711,5.801,11.158,6.057,15.694C790.033,602.824,787.79,597.175,784.117,591.215
				 M794.953,550.288c-0.007,0.083-0.014,0.165-0.021,0.249c0.006,0.499,0.028,0.971,0.068,1.413
				c0.023,0.256,0.038,0.523,0.046,0.801c0.009-0.576-0.009-1.115-0.057-1.611C794.99,550.871,794.97,550.583,794.953,550.288"/>
		</defs>
		<clipPath id="SVGID_4_">
			<use xlink:href="#SVGID_3_"  overflow="visible"/>
		</clipPath>
		<g transform="matrix(1 0 0 1 6.103516e-005 6.103516e-005)" clip-path="url(#SVGID_4_)">
			
				<image overflow="visible" width="291" height="272" xlink:href="5455EBB5.jpg"  transform="matrix(0.24 0 0 -0.24 587.1204 776.6445)">
			</image>
		</g>
		<g transform="matrix(1 0 0 1 0 6.103516e-005)" clip-path="url(#SVGID_4_)">
			
				<image overflow="visible" width="435" height="138" xlink:href="5455EBBB.jpg"  transform="matrix(0.24 0 0 -0.24 691.0403 776.6445)">
			</image>
		</g>
		<g transform="matrix(1 0 0 1 6.103516e-005 6.103516e-005)" clip-path="url(#SVGID_4_)">
			
				<image overflow="visible" width="292" height="272" xlink:href="5455EBBD.jpg"  transform="matrix(0.24 0 0 -0.24 656.2405 744.2451)">
			</image>
		</g>
		<g transform="matrix(1 0 0 1 6.103516e-005 6.103516e-005)" clip-path="url(#SVGID_4_)">
			
				<image overflow="visible" width="147" height="272" xlink:href="5455EBBF.jpg"  transform="matrix(0.24 0 0 -0.24 587.1204 712.085)">
			</image>
		</g>
		<g transform="matrix(1 0 0 1 0 0)" clip-path="url(#SVGID_4_)">
			
				<image overflow="visible" width="147" height="406" xlink:href="5455EBBC.jpg"  transform="matrix(0.24 0 0 -0.24 552.5598 679.6846)">
			</image>
		</g>
		<g transform="matrix(1 0 0 1 0 0)" clip-path="url(#SVGID_4_)">
			
				<image overflow="visible" width="292" height="137" xlink:href="5455EBB4.jpg"  transform="matrix(0.24 0 0 -0.24 621.6799 679.6846)">
			</image>
		</g>
		<g transform="matrix(1 0 0 1 0 0)" clip-path="url(#SVGID_4_)">
			
				<image overflow="visible" width="147" height="138" xlink:href="5455EBB6.jpg"  transform="matrix(0.24 0 0 -0.24 621.6799 647.5254)">
			</image>
		</g>
		<g transform="matrix(1 0 0 1 0 6.103516e-005)" clip-path="url(#SVGID_4_)">
			
				<image overflow="visible" width="147" height="272" xlink:href="5455EBB2.jpg"  transform="matrix(0.24 0 0 -0.24 760.1604 615.125)">
			</image>
		</g>
	</g>
	<g>
		<defs>
			<path id="SVGID_5_" d="M589.699,525.618c-7.335,0-18.253,3.658-24.149,23.242c-1.777,5.883-4.038,11.609-6.761,17.119
				c-3,6.07-6.329,14.771-6.399,23.4c-0.029,2.085,0.132,4.167,0.535,6.207c0.496,0.029,0.987,0.057,1.483,0.085
				c-0.268-1.647-0.387-3.32-0.383-4.994c-0.022-8.773,3.354-17.664,6.364-23.848c2.703-5.53,4.947-11.272,6.71-17.17
				c5.858-19.647,16.708-23.313,23.99-23.313c2.129,0,3.954,0.313,5.26,0.633c2.05,0.5,4.15,0.97,6.149,1.35
				c18.611,3.384,31.354,9.312,40.078,15.897c-8.795-6.871-21.875-13.11-41.348-16.638c-2.09-0.38-4.17-0.84-6.229-1.34
				C593.683,525.931,591.844,525.618,589.699,525.618 M802.887,505.906c-0.039,0.136-0.079,0.275-0.12,0.418
				c0.53,1.107,0.909,2.296,1.113,3.546c0.032,0.195,0.057,0.365,0.074,0.506c0.049-0.148,0.075-0.226,0.075-0.226
				s-0.05-0.41-0.149-1.011C803.697,508.021,803.363,506.934,802.887,505.906 M633.98,500.57l-0.489,0.006
				c0.642,0.624,1.343,1.186,2.109,1.674c0,0,15.35,25.92,9.56,39.87c-0.456,1.119-0.862,2.15-1.239,3.151
				c0.339,0.271,0.672,0.544,0.998,0.817c0.38-1.013,0.799-2.082,1.262-3.209c5.645-13.742-8.945-39.046-9.484-39.974
				c-0.011-0.004-0.016-0.006-0.016-0.006s0.003-0.002,0.009-0.005c-0.006-0.011-0.009-0.016-0.009-0.016
				C635.67,502.231,634.775,501.451,633.98,500.57 M803.488,498.68l-0.192,0.003c0.257,0.78,0.454,1.592,0.585,2.428
				c0.029,0.189,0.052,0.356,0.068,0.499c0.034-0.111,0.052-0.169,0.052-0.169s0-0.381-0.12-1
				C803.782,499.84,803.651,499.253,803.488,498.68"/>
		</defs>
		<clipPath id="SVGID_6_">
			<use xlink:href="#SVGID_5_"  overflow="visible"/>
		</clipPath>
		<g transform="matrix(1 0 0 1 6.103516e-005 0)" clip-path="url(#SVGID_6_)">
			
				<image overflow="visible" width="1051" height="407" xlink:href="306B1174.jpg"  transform="matrix(0.24 0 0 -0.24 552.0803 595.9248)">
			</image>
		</g>
	</g>
	<g>
		<defs>
			<path id="SVGID_7_" d="M767.511,468.351c0.355,0.129,0.644,0.375,0.852,0.686c-0.082-0.234-0.206-0.457-0.371-0.657
				C767.831,468.374,767.671,468.364,767.511,468.351 M627.715,466.66h-1.207c-0.321,2.99-0.306,5.783,0.281,7.93
				c0,0-0.181,2.146-0.078,5.286l1.125-0.007c-0.064-2.84,0.094-4.739,0.094-4.739C627.315,472.855,627.335,469.854,627.715,466.66"
				/>
		</defs>
		<clipPath id="SVGID_8_">
			<use xlink:href="#SVGID_7_"  overflow="visible"/>
		</clipPath>
		<g transform="matrix(1 0 0 1 6.103516e-005 3.051758e-005)" clip-path="url(#SVGID_8_)">
			
				<image overflow="visible" width="596" height="58" xlink:href="306B1173.jpg"  transform="matrix(0.24 0 0 -0.24 625.76 480.2451)">
			</image>
		</g>
	</g>
	<g>
		<defs>
			<path id="SVGID_9_" d="M788.733,487.555c-0.134,0-0.269,0.001-0.403,0.005c-5.938,0.109-17.144,0.503-29.605,1.887
				c-0.032,0.227-0.064,0.454-0.096,0.678c12.541-1.423,23.8-1.824,29.802-1.934c0.117-0.003,0.233-0.004,0.35-0.004
				c6.668,0,12.479,4.312,14.516,10.496l0.192-0.003C801.624,492.153,795.631,487.555,788.733,487.555 M627.836,479.869
				l-1.125,0.007c0.192,5.952,1.401,15.475,6.779,20.7l0.489-0.006C628.99,495.043,627.965,485.564,627.836,479.869"/>
		</defs>
		<clipPath id="SVGID_10_">
			<use xlink:href="#SVGID_9_"  overflow="visible"/>
		</clipPath>
		<g transform="matrix(1 0 0 1 6.103516e-005 3.051758e-005)" clip-path="url(#SVGID_10_)">
			
				<image overflow="visible" width="740" height="89" xlink:href="306B118C.jpg"  transform="matrix(0.24 0 0 -0.24 626.2405 500.8848)">
			</image>
		</g>
	</g>
	<g>
		<defs>
			<path id="SVGID_11_" d="M635.066,451.899c1.822,4.057,4.514,8.98,4.514,8.98c0.001,0,0.004-0.001,0.005-0.002
				C638.813,459.213,636.875,455.107,635.066,451.899 M631.703,447.596c-0.084,0-0.182,0.01-0.29,0.028
				c0.033,0.035,0.065,0.07,0.097,0.106c-1.419,3.143-4.217,11.627-5.002,18.93h1.207c0.857-7.202,3.543-15.391,4.905-18.473
				c-0.104-0.115-0.205-0.215-0.301-0.298c-0.11-0.112-0.243-0.2-0.39-0.26C631.869,447.607,631.793,447.596,631.703,447.596
				 M565.94,441.11h-1.551c0.096,4.424,0.521,11.722,2.251,13.26c0,0,1.2,6.769,8.021,8.571c-3.237-1.443-5.725-4.376-6.48-8.062
				C566.402,453.279,566.015,445.479,565.94,441.11 M698.533,279.364c-0.036,0.002-0.073,0.005-0.109,0.008
				c0.295,0.013,0.591,0.029,0.886,0.049C699.051,279.4,698.792,279.381,698.533,279.364 M695.627,279.271
				c-0.289,0-0.578,0.003-0.867,0.008h-0.07l-1.1,0.06l-0.78,0.05l-0.78,0.08l-0.83,0.08c-0.705,0.091-1.402,0.196-2.1,0.327
				c0.186,0.041,0.37,0.082,0.556,0.124c0.824-0.163,1.656-0.295,2.492-0.397l-0.208-0.042c1.366-0.17,2.74-0.266,4.116-0.287
				C695.913,279.272,695.77,279.271,695.627,279.271"/>
		</defs>
		<clipPath id="SVGID_12_">
			<use xlink:href="#SVGID_11_"  overflow="visible"/>
		</clipPath>
		<g transform="matrix(1 0 0 1 6.103516e-005 3.051758e-005)" clip-path="url(#SVGID_12_)">
			
				<image overflow="visible" width="565" height="784" xlink:href="306B118F.jpg"  transform="matrix(0.24 0 0 -0.24 564.0803 467.0449)">
			</image>
		</g>
	</g>
	<g>
		<defs>
			<path id="SVGID_13_" d="M651.031,396.442c-1.139,0-3.487,0.292-2.922,2.768c0,0-2.283-0.355-5.453-0.355
				c-4.35,0-10.368,0.669-14.446,3.845c-7.051,5.49-18.62,16.951-20.891,19.94c-1.767,2.328-12.794,6.808-17.593,8.678
				c-0.465,0.846-0.797,1.313-0.797,1.313s17.5-6.5,19.75-9.5s13.75-14.5,20.75-20c4.053-3.184,10.039-3.854,14.362-3.854
				c3.144,0,5.407,0.354,5.407,0.354l0,0l0,0c-0.558-2.485,1.772-2.778,2.9-2.778c0.107,0,0.204,0.003,0.286,0.006
				c-0.257-0.127-0.513-0.257-0.767-0.389C651.619,396.47,651.383,396.442,651.031,396.442 M561.914,365.49h-1.619
				c0.008,1.151,0.541,2.381,1.784,3.68c8.311,8.68,10.57,8.69,10.57,8.69s-2.77,21.43-3.28,25.419c-0.51,3.99-5,34.391-5,34.391
				s-0.024,1.42,0.02,3.44h1.551c-0.03-1.772-0.01-2.98-0.01-2.98s4.5-30.5,5-34.5s3.25-25.5,3.25-25.5l0,0
				c-0.011,0-2.27-0.01-10.5-8.71C562.362,368.026,561.847,366.713,561.914,365.49 M668.749,277.863
				c-1.66,0-3.295,0.436-4.739,1.267c-2.221,1.55-2.5,4.33-3.17,6.75c-1.204,4.05-3.741,7.574-7.2,10c-2.39,1.72-5.2,3-7.48,4.8
				c-2.279,1.8-4.06,4.5-3.449,7.16c0.51,2.23,2.59,3.89,5,4.9c-0.29,0.36-0.591,0.71-0.87,1.08c0.47,0.19,1,0.36,1.43,0.5
				c3,0.89,6.23,1,9.27,1.81c0.837,0.224,1.659,0.501,2.461,0.83c-2.704,5.086-4.116,10.759-4.11,16.52
				c0.023,13.031,7.166,25.007,18.62,31.22c0,0.34,0,0.67,0,1c0.31,10.44-0.48,23.14-5.82,25.29s-10.45,4.58-13.6,6.15l-0.916,0.486
				c0.32,0.155,0.643,0.306,0.966,0.455l0,0l1-0.53l0,0c3.13-1.57,8.06-4,13.51-6.17s6.09-14.89,5.78-25.37v-0.951
				c0-0.016-0.001-0.031-0.002-0.046c-11.888-6.562-19.495-19.645-18.382-34.067c0.386-4.998,1.782-9.678,3.973-13.852
				c-0.8-0.326-1.627-0.603-2.479-0.824c-3-0.78-6.221-0.93-9.21-1.82c-0.479-0.143-0.949-0.31-1.41-0.5
				c0.264-0.352,0.534-0.699,0.812-1.042c-2.389-1.03-4.474-2.732-4.942-4.928c-0.569-2.67,1.16-5.37,3.431-7.19
				c2.27-1.82,5.06-3.09,7.43-4.82c3.438-2.437,5.956-5.959,7.15-10c0.659-2.42,0.939-5.21,3.149-6.77
				c0.42-0.287,0.875-0.508,1.355-0.679c1.465-0.565,3.175-0.631,4.795-0.631c0.01,0,0.021,0,0.03,0
				c-0.337-0.005-0.674-0.009-1.011-0.01h-0.81C669.123,277.869,668.936,277.863,668.749,277.863"/>
		</defs>
		<clipPath id="SVGID_14_">
			<use xlink:href="#SVGID_13_"  overflow="visible"/>
		</clipPath>
		<g transform="matrix(1 0 0 1 6.103516e-005 3.051758e-005)" clip-path="url(#SVGID_14_)">
			
				<image overflow="visible" width="484" height="683" xlink:href="306B118D.jpg"  transform="matrix(0.24 0 0 -0.24 560.0002 441.3652)">
			</image>
		</g>
	</g>
	<g>
		<defs>
			<path id="SVGID_15_" d="M709.829,715.45c-0.007,0.002-0.015,0.004-0.021,0.006c0.008,0.012,0.015,0.022,0.022,0.034
				c0.187,0.285,0.364,0.556,0.531,0.809c0.005-0.001,0.009-0.002,0.014-0.004C710.203,716.032,710.022,715.75,709.829,715.45"/>
		</defs>
		<clipPath id="SVGID_16_">
			<use xlink:href="#SVGID_15_"  overflow="visible"/>
		</clipPath>
		<g transform="matrix(1 0 0 1 6.103516e-005 6.103516e-005)" clip-path="url(#SVGID_16_)">
			
				<image overflow="visible" width="5" height="6" xlink:href="306B1193.jpg"  transform="matrix(0.24 0 0 -0.24 709.5198 716.6445)">
			</image>
		</g>
	</g>
	<path fill="#FDC2CC" d="M711.93,718.63l-4,13l-17,14.75l-25,7.18c0,0-11.75-6.43-7.75-7.68c1.109-0.35,2.43-1.62,3.77-3.28
		c1.207-1.539,2.322-3.149,3.34-4.819c2.141-3.44,4.461-6.761,6.83-10c3.459-4.923,5.628-10.634,6.311-16.61
		c1.75-13.75-16-41.5-16-41.5l-32.25-66.25l45,5.5c0,0,24.25,83.25,24.25,87.25c0,3,6.84,13.85,10.4,19.32
		C711.079,717.4,711.93,718.63,711.93,718.63"/>
	<path fill="#5F5D7E" d="M686.97,746.5c47.011,0,85.12,10.991,85.12,24.55s-38.109,24.55-85.12,24.55s-85.12-10.991-85.12-24.55
		S639.959,746.5,686.97,746.5"/>
	<path fill="#2271FF" d="M719.93,734.63c-0.304,0.813-0.822,1.528-1.5,2.07c-6.18,5.67-29.29,14.1-43.57,18.68
		c-3.743,1.307-7.56,2.392-11.43,3.25c-3.5,0.25-10.75-2-15.75-5.07c-5-3.069-0.5-7.43,1.52-9.68c2.021-2.25,14-2.92,14-2.92
		c-5.75,9.57,8.49,1.17,8.49,1.17s28.75-20.5,31.75-22.75s8.5-3.5,8.5-3.5L719.93,734.63"/>
	<path fill="#184FB2" d="M677.5,737.984c-3.445,2.459-5.811,4.146-5.811,4.146s-5.78,3.409-8.488,3.409
		c-0.828,0-1.369-0.319-1.369-1.152c0-0.719,0.401-1.819,1.367-3.427c0,0-11.979,0.67-14,2.92c-1.347,1.501-3.798,3.94-3.797,6.31
		c0.001,1.183,0.612,2.348,2.277,3.37c4.746,2.914,11.519,5.089,15.188,5.089c0.197,0,0.385-0.006,0.563-0.019
		c3.87-0.858,7.687-1.943,11.43-3.25c0.013-0.004,0.025-0.008,0.039-0.013c0.833-0.704,1.701-1.386,2.602-2.047V737.984
		 M711.94,715.88c0,0-0.629,0.143-1.578,0.419c-1.856,0.541-4.937,1.592-6.922,3.081c-0.919,0.689-4.255,3.091-8.439,6.092v18.45
		c9.279-3.761,18.36-6.071,23.401-7.196c0.01-0.008,0.019-0.017,0.028-0.025c0.678-0.542,1.196-1.257,1.5-2.07L711.94,715.88"/>
	<path fill="#E5E5E5" d="M718.43,736.72c-0.01,0.002-0.02,0.004-0.028,0.006c-2.816,2.566-9.083,5.694-16.422,8.774
		c0.016,0.001,0.027,0.001,0.043,0.002C709.368,742.418,715.633,739.286,718.43,736.72"/>
	<g>
		<defs>
			<path id="SVGID_17_" d="M701.98,745.5c-0.989,0.415-1.999,0.83-3.021,1.241c0.017,0.001,0.029,0.002,0.046,0.002
				c1.021-0.411,2.029-0.826,3.019-1.241C702.007,745.501,701.995,745.501,701.98,745.5"/>
		</defs>
		<clipPath id="SVGID_18_">
			<use xlink:href="#SVGID_17_"  overflow="visible"/>
		</clipPath>
		<g transform="matrix(1 0 0 1 6.103516e-005 6.103516e-005)" clip-path="url(#SVGID_18_)">
			
				<image overflow="visible" width="16" height="8" xlink:href="306B1194.jpg"  transform="matrix(0.24 0 0 -0.24 698.4797 747.125)">
			</image>
		</g>
	</g>
	<path fill="#555471" d="M698.958,746.741c-1.302,0.524-2.624,1.045-3.958,1.559v0.021c1.349-0.52,2.688-1.047,4.004-1.577
		C698.988,746.743,698.975,746.742,698.958,746.741"/>
	<path fill="#1647A0" d="M718.402,736.726c-5.041,1.125-14.122,3.436-23.401,7.196v4.378
		C705.155,744.391,714.722,740.079,718.402,736.726"/>
	<path fill="#555471" d="M677.5,754.521c-0.894,0.295-1.764,0.577-2.602,0.846c-0.013,0.011-0.026,0.022-0.039,0.033
		c0.851-0.272,1.732-0.56,2.641-0.858V754.521"/>
	<path fill="#1647A0" d="M677.5,753.32c-0.9,0.661-1.769,1.343-2.602,2.047c0.838-0.269,1.708-0.551,2.602-0.846V753.32"/>
	<path fill="#555471" d="M695,758.81v4.33h-17.5v-4.081c-4.56,0.881-7.561,2.38-7.561,4.081c0,2.712,7.625,4.91,17.03,4.91
		s17.03-2.198,17.03-4.91C704,761.266,700.357,759.637,695,758.81"/>
	<polyline fill="#5F5D7E" points="677.5,633.64 695,633.64 695,763.14 677.5,763.14 677.5,633.64 	"/>
	<path fill="#555471" d="M677.5,642.771v3.078c6.01,3.58,14,8.131,17.5,9.21v-7.271C688.48,646.785,682.437,645.192,677.5,642.771"
		/>
	<path fill="#474157" d="M653.77,577.26c0,0,57.78-14.87,72.16-26s70.85,41.24,63.39,61s-34.62,34.07-34.62,34.07
		S679.59,658.55,666.8,633.06C654.01,607.57,653.77,577.26,653.77,577.26"/>
	<path fill="#403A4E" d="M783.914,591.725c-0.326,0.816-0.606,1.51-0.83,2.058c1.921,4.79,2.508,9.107,1.235,12.478
		c-7.46,19.76-34.62,34.07-34.62,34.07s-2.418,0.394-6.455,0.892c-0.349,1.609-1.11,3.432-2.745,4.599
		c-0.564,0.403-2.416,0.572-5.126,0.572c-14.093,0-51.374-4.572-51.374-4.572l-12.404-2.819
		c9.607,8.086,28.116,10.257,45.235,10.257c19.872,0,37.869-2.928,37.869-2.928s27.16-14.311,34.62-34.07
		c0.458-1.215,0.676-2.553,0.676-3.991C789.995,603.57,787.684,597.798,783.914,591.725"/>
	<path fill="#474157" d="M648.77,571.26c0,0,57.78-14.87,72.16-26s70.85,41.24,63.39,61s-34.62,34.07-34.62,34.07
		S674.59,652.55,661.8,627.06C649.01,601.57,648.77,571.26,648.77,571.26"/>
	<path fill="#FDC2CC" d="M595.18,434.9l-6.25-2.271c0,0,5.5-7.75,3.13-17.25c0,0-2.63-11.46-1.38-16.101
		c1.25-4.639,4.5-21.649,4.5-21.649s0.46-18-9.271-26.25c-9.729-8.25-16.479-15-12.729-7c1.638,3.68,3.474,7.269,5.5,10.75
		c0,0-23.25,5.57-15,14.29c8.25,8.72,10.5,8.71,10.5,8.71s-2.75,21.5-3.25,25.5s-5,34.5-5,34.5s-0.25,14.5,2.25,16.75
		c1.148,5.603,6.3,9.466,12,9C581.96,463.85,603.18,440.4,595.18,434.9"/>
	<path fill="#FDC2CC" d="M746.18,388.9v14l-14.5,4.729l-24.7,18.18l-6.55,4.82l-29.25-11.75l-18.5-19.5c0,0,0.899-0.49,2.46-1.3
		l1-0.53c3.13-1.57,8.06-4,13.51-6.17s6.09-14.89,5.78-25.37v-1c-0.25-7.35-1-13.36-1-13.36s3.05-0.58,7.49-1.24
		c12.31-1.83,35.279-4.3,33.26,3.24c-0.59,2.563-0.59,5.227,0,7.79c0.06,0.28,0.12,0.57,0.189,0.85
		c2.08,9.09,8.521,18.61,8.521,18.61l20,7.2l0.56,0.2L746.18,388.9"/>
	<path fill="#FDC2CC" d="M746.18,393.15v-4.25c1.571-0.271,3.178-0.271,4.75,0c1.75,0.5,5.07,5.75,6.57,6.25s10.68,34.75,9.68,37.75
		s-10.45,70.729-10.45,70.729l-19.05,21l-3.75-57.75l12.25-34.25V393.15"/>
	<path fill="#FDC2CC" d="M647.43,550.4c0,0-17.41,3.75-15.2,9.25s11.95,5.75,11.95,5.75L647.43,550.4"/>
	<path fill="#FDC2CC" d="M671.68,439.35L658.43,467.9l-15.75,11.5l-2.75-17.771c0,0-5.32-11.75-7.61-13.74
		c-0.11-0.112-0.243-0.2-0.39-0.26c-2-0.75-21,11.25-26.5,13.5s-25.25,2.75-25.25,2.75l8.75-31.25c0,0,17.5-6.5,19.75-9.5
		s13.75-14.5,20.75-20s19.77-3.5,19.77-3.5l0.2,0.08l3.28,1.42l9.5,23.25L671.68,439.35"/>
	<path fill="#FDC2CC" d="M636.93,724.15c-0.235,2.605-0.299,5.225-0.19,7.84c0.07,2.79,0.19,5.16,0.19,5.16l-5.75,12
		c0,0-19.75,6.5-16.5,3.75c1.13-0.95,1.71-3.42,2-6.69c0.49-6.18-0.22-15.19-0.71-22.06c-0.75-10.5-12.75-36.5-12.75-36.5
		s-10-25.5-16.25-41.25s-4-44.25-4-44.25s1-21.5,5.5-28s22-8.75,22-8.75l8.21,27.229c0,0,6.75,25.5,9.25,29.25s1.75,48.5,0.75,53.25
		c-0.51,2.43,0.35,12,1.31,20.72c0.98,8.295,3.023,16.428,6.08,24.2C636.666,721.333,636.961,722.735,636.93,724.15"/>
	<path fill="#E5E5E5" d="M636.78,731.99c-0.014,0.005-0.026,0.011-0.04,0.016c0.009,0.326,0.018,0.646,0.027,0.958l0.026-0.011
		C636.787,732.641,636.783,732.318,636.78,731.99"/>
	<path fill="#E3AEB7" d="M636.74,732.006c-6.72,2.65-12.794,6.714-17.81,11.914c-0.78,0.8-1.54,1.58-2.25,2.29l0,0
		c-0.035,0.396-0.074,0.781-0.119,1.153c0.756-0.742,1.489-1.507,2.199-2.293c0.106-0.11,0.214-0.221,0.322-0.33
		c4.977-5.116,10.979-9.121,17.617-11.75l0.067-0.026C636.757,732.652,636.748,732.332,636.74,732.006"/>
	<path fill="#2271FF" d="M645.949,755.01v0.141c-1,4.75-17.5,11.25-17.5,11.25s-10.5,1.75-16.5,3.25
		c-0.459,0.123-0.936,0.167-1.41,0.13c-4.63-0.351-4.84-9.261-4.84-10.63c0-1.37,5.75-7.75,7.5-8.75
		c1.979-1.642,3.837-3.423,5.561-5.33c5.132-5.314,11.346-9.465,18.22-12.17C636.98,732.9,646.75,750.08,645.949,755.01"/>
	<path fill="#B2B2B2" d="M636.98,732.88l-0.187,0.073c0,0.007,0.001,0.014,0.001,0.021c0.062-0.024,0.123-0.049,0.186-0.073
		c0,0,4.771,8.39,7.372,15.126c0-0.001,0.001-0.002,0.001-0.003C641.752,741.281,636.98,732.88,636.98,732.88"/>
	<g>
		<defs>
			<path id="SVGID_19_" d="M644.353,748.023c0,0.001-0.001,0.002-0.001,0.003c0.221,0.569,0.424,1.127,0.609,1.667h0.001
				C644.778,749.152,644.573,748.594,644.353,748.023"/>
		</defs>
		<clipPath id="SVGID_20_">
			<use xlink:href="#SVGID_19_"  overflow="visible"/>
		</clipPath>
		<g transform="matrix(1 0 0 1 6.103516e-005 6.103516e-005)" clip-path="url(#SVGID_20_)">
			
				<image overflow="visible" width="6" height="10" xlink:href="306B1197.jpg"  transform="matrix(0.24 0 0 -0.24 644.0002 750.0049)">
			</image>
		</g>
	</g>
	<path fill="#424158" d="M644.962,749.693L644.962,749.693c0.633,1.854,1.035,3.498,1.034,4.685
		C645.997,753.191,645.596,751.549,644.962,749.693"/>
	<path fill="#A0A0A0" d="M636.793,732.953l-0.026,0.011c0,0.007,0,0.014,0,0.021c0.009-0.003,0.019-0.007,0.027-0.011
		C636.794,732.967,636.793,732.96,636.793,732.953"/>
	<path fill="#9E7980" d="M636.767,732.964l-0.067,0.026c-6.638,2.629-12.641,6.634-17.617,11.75
		c5.016-5.103,11.038-9.105,17.685-11.756C636.767,732.978,636.767,732.971,636.767,732.964"/>
	<path fill="#184FB2" d="M636.98,732.9c-0.063,0.024-0.124,0.049-0.186,0.073c-0.009,0.004-0.019,0.008-0.027,0.011
		c-6.646,2.65-12.669,6.653-17.685,11.756c-0.081,0.083-0.162,0.166-0.242,0.25c-1.744,1.939-3.63,3.748-5.641,5.41l0,0
		c-1.75,1-7.5,7.38-7.5,8.75c0,1.369,0.21,10.279,4.84,10.63c0.109,0.009,0.218,0.013,0.327,0.013c0.365,0,0.729-0.048,1.083-0.143
		c6-1.5,16.5-3.25,16.5-3.25s16.5-6.5,17.5-11.25l0,0c-1,4.75-17.5,11.25-17.5,11.25s-10.5,1.75-16.5,3.25
		c-0.354,0.095-0.718,0.143-1.083,0.143c-0.109,0-0.218-0.004-0.327-0.013c5.44-3.73,18.631-12.681,20.41-12.88
		c1.53-0.172,8.223-2.058,12.898-2.058c0.765,0,1.476,0.05,2.102,0.167l0,0c0.031-0.192,0.046-0.404,0.047-0.632
		c0.001-1.187-0.401-2.83-1.035-4.685c-0.186-0.54-0.389-1.098-0.609-1.667C641.751,741.29,636.98,732.9,636.98,732.9"/>
	<path fill="#1647A0" d="M643.848,754.843c-4.676,0-11.368,1.886-12.898,2.058c-1.779,0.199-14.97,9.149-20.41,12.88
		c0.109,0.009,0.218,0.013,0.327,0.013c0.365,0,0.729-0.048,1.083-0.143c6-1.5,16.5-3.25,16.5-3.25s16.5-6.5,17.5-11.25v-0.141l0,0
		l0,0C645.323,754.893,644.613,754.843,643.848,754.843"/>
	<g>
		<defs>
			<path id="SVGID_21_" d="M675.428,365.013c0.001,0.016,0.002,0.031,0.002,0.046v-0.045
				C675.429,365.013,675.43,365.013,675.428,365.013"/>
		</defs>
		<clipPath id="SVGID_22_">
			<use xlink:href="#SVGID_21_"  overflow="visible"/>
		</clipPath>
		<g transform="matrix(1 0 0 1 6.103516e-005 3.051758e-005)" clip-path="url(#SVGID_22_)">
			
				<image overflow="visible" width="3" height="4" xlink:href="306B1195.jpg"  transform="matrix(0.24 0 0 -0.24 674.9602 365.5249)">
			</image>
		</g>
	</g>
	<path fill="#E3AEB7" d="M675.43,365.014v0.045c0.011,0.321,0.021,0.645,0.029,0.971c0.816,0.449,1.708,0.77,2.657,0.993
		c-0.064-0.256-0.135-0.512-0.21-0.766C677.062,365.874,676.237,365.458,675.43,365.014"/>
	<path fill="#FDC2CC" d="M728.43,333.69c0,19.744-16.006,35.75-35.75,35.75c-0.92,0-1.84,0-2.74-0.1
		c-19.686-1.519-34.413-18.708-32.894-38.394c1.519-19.686,18.708-34.413,38.394-32.894c18.62,1.437,32.997,16.963,33,35.638H728.43
		"/>
	<path fill="#E3AEB7" d="M653.543,437.271c-0.095,7.912-2.485,18.682-13.964,22.608c0,0-6.149-11.25-6.149-13.75
		c0-0.136-0.024-0.201-0.069-0.201c-0.149,0-0.533,0.724-1.041,1.961c0.096,0.083,0.196,0.183,0.301,0.298
		c0.355-0.805,0.621-1.261,0.74-1.261c0.045,0,0.069,0.065,0.069,0.203c0,0.846,0.704,2.694,1.636,4.77
		c1.81,3.208,3.747,7.313,4.519,8.979C651.551,456.782,653.637,445.248,653.543,437.271"/>
	<path fill="#E3AEB7" d="M656.14,397.55L656.14,397.55l-1,0.53c8.346,3.932,17.189,6.279,25.15,7.669
		c-0.271-0.354-0.508-0.73-0.718-1.126C672.119,403.279,663.936,401.094,656.14,397.55"/>
	<path fill="#2271FF" d="M756.93,615.63c-9.43,4.624-19.111,8.713-29,12.25c-17.25,6.25-55.25-2-60-3.25s-41.25-15.75-55.25-21.25
		c-9.333-3.667-14-2.889-17.037-2.111c-1.519,0.39-2.63,0.778-3.713,0.611c-3.25-0.5-5.5-6.75-6-8.5s9-17,14.25-24.75
		s21-6.25,23.25-6.75s18,0,18,0s-1-5,4.75-19s-9.5-40-9.5-40c-10.5-6.75-8.75-27.75-8.75-27.75c-2.5-9.25,5.5-30.5,5.5-28
		s6.149,13.75,6.149,13.75c19-6.5,13.101-31.75,13.101-31.75s-2.75-26.25-3.48-29.5c-0.729-3.25,3.48-2.75,3.48-2.75
		c0.813,0.42,1.633,0.82,2.46,1.2c13.16,6.2,27.56,8.46,37.78,9.24c4.575,0.388,9.171,0.491,13.76,0.31
		c45.67-7.37,37.58-19.12,37.28-19.54l2.22,0.79c16.5,12,11.5,51.75,11.5,51.75l-6.18,29.67l-4.591,22.101
		c0,0,16.25,98.5,17.75,103.5S756.93,615.63,756.93,615.63"/>
	<path fill="#1F65E5" d="M664.557,597.932c0.614,2.445,1.353,4.984,2.236,7.545c4.548,4.728,9.016,8.322,12.637,9.174
		L664.557,597.932"/>
	<g>
		<defs>
			<path id="SVGID_23_" d="M648.732,312.908c-0.277,0.343-0.548,0.69-0.812,1.042c0.461,0.19,0.932,0.357,1.41,0.5
				c2.989,0.89,6.21,1.04,9.21,1.82c0.852,0.221,1.679,0.498,2.479,0.824c0.197-0.376,0.401-0.748,0.611-1.116
				c-0.685-0.264-1.389-0.491-2.11-0.678c-3.021-0.82-6.22-0.93-9.21-1.82C649.779,313.322,649.248,313.13,648.732,312.908"/>
		</defs>
		<clipPath id="SVGID_24_">
			<use xlink:href="#SVGID_23_"  overflow="visible"/>
		</clipPath>
		<g transform="matrix(1 0 0 1 6.103516e-005 3.051758e-005)" clip-path="url(#SVGID_24_)">
			
				<image overflow="visible" width="60" height="21" xlink:href="306B1192.jpg"  transform="matrix(0.24 0 0 -0.24 647.5999 317.5249)">
			</image>
		</g>
	</g>
	<path fill="#E3AEB7" d="M678.116,367.022c0.19,0.755,0.336,1.522,0.434,2.297c0.309,2.873,0.372,5.767,0.189,8.65
		c-0.193,5.847-0.396,11.69-0.609,17.53c-0.101,3.038,0.04,6.484,1.442,9.123c0.61,0.11,1.216,0.215,1.816,0.313
		c-2.184-2.735-2.392-6.849-2.27-10.407c0.2-5.847,0.403-11.69,0.61-17.53c0.115-3.244,0.212-6.566-0.381-9.745
		C678.929,367.194,678.518,367.117,678.116,367.022"/>
	<path fill="#CC9CA4" d="M677.906,366.257c0.075,0.254,0.146,0.509,0.21,0.766c0.401,0.095,0.813,0.171,1.232,0.232
		c-0.025-0.138-0.053-0.276-0.081-0.414C678.81,366.656,678.354,366.46,677.906,366.257"/>
	<path fill="#E3AEB7" d="M661.63,315.978c-0.21,0.368-0.414,0.739-0.611,1.116c8.202,3.347,13.459,11.936,11.691,19.836
		c-0.971,4.31-3.73,8.39-3.311,12.77c0.016,0.231,0.046,0.462,0.09,0.69c0.811,4.9,5.33,8.77,7.5,13.41
		c0.362,0.798,0.668,1.619,0.917,2.457c0.447,0.203,0.903,0.399,1.361,0.584c-0.283-1.371-0.701-2.714-1.309-4.011
		c-2.27-4.85-7.1-8.87-7.59-14.11c-0.42-4.37,2.311-8.46,3.311-12.77C675.474,327.951,670.041,319.216,661.63,315.978"/>
	<path fill="#CC9CA4" d="M679.573,404.623c0.21,0.396,0.447,0.771,0.718,1.126c0.773,0.136,1.538,0.262,2.294,0.379
		c-0.452-0.356-0.849-0.757-1.195-1.191C680.788,404.838,680.183,404.733,679.573,404.623"/>
	<path fill="#1F65E5" d="M680.29,405.749c0.449,0.592,0.987,1.122,1.63,1.571c0.314,0.236,0.648,0.443,1,0.619
		c2.43,1.211,5.46,1.131,8,2.131c4.939,2.07,6.239,7.67,6.64,12.5c0.09,1.08,0.17,2.16,0.23,3.239
		c0.335,5.761,0.284,11.537-0.15,17.29c-0.22,2.96-0.38,6.351,2,8.45c1.186,0.915,2.547,1.576,4,1.94
		c5.001,1.557,10.186,2.444,15.42,2.64c4.19,0.15,8.64-0.09,12.33,1.7c2.87,1.39,4.87,3.82,7.1,5.939
		c2.866,2.683,6.149,4.882,9.721,6.511l0.307-1.301c-3.259-1.621-6.297-3.698-9.017-6.189c-2.24-2.11-4.24-4.55-7.11-5.94
		c-3.69-1.779-8.13-1.54-12.33-1.699c-5.234-0.191-10.42-1.079-15.42-2.641c-1.454-0.359-2.817-1.021-4-1.939
		c-2.39-2.101-2.23-5.45-2-8.45c0.519-6.835,0.491-13.7-0.08-20.53c-0.4-4.82-1.7-10.43-6.64-12.49c-2.521-1.06-5.561-0.93-8-2.13
		c-0.492-0.244-0.936-0.526-1.336-0.842C681.828,406.011,681.064,405.885,680.29,405.749"/>
	<path fill="#474157" d="M690.18,280.12c-6.257-1.454-12.657-2.202-19.08-2.23c-2.09,0-4.33,0.11-6,1.26
		c-2.21,1.55-2.49,4.35-3.15,6.77c-1.193,4.041-3.712,7.563-7.149,10c-2.37,1.73-5.16,3-7.431,4.82c-2.27,1.82-4,4.52-3.43,7.18
		s3.561,4.71,6.561,5.56s6.189,1,9.21,1.82c9.59,2.49,16.1,12,14.159,20.65c-1,4.31-3.729,8.39-3.31,12.77
		c0.49,5.23,5.32,9.26,7.59,14.11c2.07,4.42,1.93,9.38,1.771,14.16l-0.61,17.54c-0.16,4.621,0.24,10.18,4.8,12.441
		c2.44,1.199,5.48,1.069,8,2.129c4.94,2.061,6.24,7.67,6.641,12.49c0.571,6.83,0.598,13.695,0.08,20.53c-0.23,3-0.391,6.35,2,8.45
		c1.183,0.919,2.545,1.58,4,1.939c5,1.557,10.186,2.445,15.42,2.641c4.199,0.159,8.64-0.08,12.33,1.699
		c2.869,1.391,4.869,3.83,7.1,5.94c6.394,5.851,14.544,9.419,23.18,10.15c1.851,0.159,3.95,0.12,5.24-1.07s0.53-3.76-1.311-3.61
		c3.184,0.535,6.406-0.697,8.421-3.22c1.724-2.45,1.724-5.72,0-8.17c-2.091-3-6.53-5-6.771-8.56c-0.13-2,1.2-3.811,2.24-5.591
		c5.15-9.104,3.667-20.516-3.641-27.999c-4.689-4.851-11.72-8.531-13.359-14.75c-1.09-4.161,0.56-8.531-0.07-12.761
		c-1-7-7.93-12-11.74-18.24c-3.81-6.24-4.479-13.79-3.51-20.89s3.43-14,5.43-20.9c1.49-5.15,2.721-10.62,1.061-15.73
		c-1.19-3.63-3.75-6.78-6.41-9.75c-6.37-7.11-13.7-13.77-22.76-18c-9.061-4.23-20.101-5.87-29.72-2.74L690.18,280.12"/>
	<path fill="#403A4E" d="M671.1,277.89c-1.62,0-3.33,0.066-4.795,0.631c1.431-0.51,3.08-0.571,4.645-0.571
		c0.88,0,1.771,0.05,2.66,0.05c-1.45,0.021-2.867,0.436-4.1,1.2c-2.15,1.56-2.48,4.35-3.15,6.77c-1.187,4.042-3.702,7.566-7.14,10
		c-2.38,1.73-5.17,2.99-7.44,4.82c-2.27,1.83-4.04,4.47-3.42,7.19s3.52,4.62,6.51,5.5s6.21,1.04,9.21,1.82
		c9.591,2.49,16.11,11.98,14.17,20.65c-0.97,4.31-3.729,8.4-3.319,12.77c0.49,5.24,5.319,9.26,7.59,14.11
		c2.07,4.42,1.939,9.38,1.77,14.17c-0.199,5.84-0.403,11.683-0.609,17.53c-0.19,4.621,0.25,10.18,4.81,12.44
		c2.44,1.2,5.47,1.07,8,2.13c4.95,2.061,6.24,7.67,6.65,12.49c0.571,6.83,0.599,13.695,0.08,20.53c-0.21,2.97-0.38,6.35,2,8.45
		c1.183,0.919,2.546,1.58,4,1.939c5,1.561,10.186,2.448,15.42,2.641c4.2,0.159,8.649-0.08,12.33,1.699
		c2.88,1.391,4.87,3.83,7.109,5.94c6.075,5.568,13.754,9.075,21.94,10.02c-0.555,0.11-1.117,0.177-1.681,0.198
		c1.411-0.007,2.807-0.258,3.761-1.138c0.44-0.407,0.643-0.975,0.643-1.54c0.002-0.852-0.453-1.698-1.231-1.979l0,0l0,0
		c0.252,0.021,0.503,0.032,0.753,0.032c2.677,0,5.243-1.21,6.946-3.343c0.862-1.225,1.293-2.655,1.293-4.085
		c0-0.442-0.041-0.885-0.124-1.32c-0.184-0.975-0.573-1.918-1.169-2.765c-2.091-3-6.53-5-6.771-8.56
		c-0.006-0.094-0.009-0.188-0.009-0.28c0.003-1.89,1.258-3.613,2.249-5.311c2.052-3.627,3.051-7.621,3.048-11.587
		c-0.004-5.987-2.292-11.91-6.688-16.412c-4.689-4.851-11.72-8.531-13.359-14.75c-0.285-1.089-0.383-2.192-0.383-3.304
		c0-2.413,0.461-4.865,0.461-7.291c0-0.725-0.041-1.448-0.148-2.167c-1-7-7.93-12-11.74-18.24c-2.805-4.595-3.908-9.9-3.907-15.212
		c0-1.902,0.142-3.806,0.397-5.678c0.97-7.1,3.43-14,5.43-20.9c0.983-3.4,1.854-6.939,1.854-10.422
		c0.001-1.793-0.229-3.571-0.794-5.308c-1.19-3.63-3.75-6.78-6.41-9.75c-6.37-7.11-13.7-13.77-22.76-18
		c-5.301-2.475-11.281-4.063-17.256-4.328c-1.506,0.104-3.004,0.304-4.484,0.598l-1.792-0.367c-0.836,0.103-1.668,0.234-2.492,0.397
		c-0.186-0.042-0.37-0.083-0.556-0.124C683.188,278.583,677.154,277.917,671.1,277.89"/>
	<g>
		<defs>
			<path id="SVGID_25_" d="M636.689,502.896c-0.006,0.003-0.009,0.005-0.009,0.005s0.005,0.002,0.016,0.006
				C636.693,502.902,636.691,502.898,636.689,502.896"/>
		</defs>
		<clipPath id="SVGID_26_">
			<use xlink:href="#SVGID_25_"  overflow="visible"/>
		</clipPath>
		<g transform="matrix(1 0 0 1 6.103516e-005 0)" clip-path="url(#SVGID_26_)">
			
				<image overflow="visible" width="3" height="3" xlink:href="306B11B7.jpg"  transform="matrix(0.24 0 0 -0.24 636.3206 503.2852)">
			</image>
		</g>
	</g>
	<path fill="#1F65E5" d="M655.464,494.24c-3.181,0-18.351,8.419-18.775,8.655c0.002,0.003,0.004,0.007,0.007,0.011
		c0.163,0.06,1.62,0.565,3.879,0.565c3.322,0,8.379-1.095,13.605-6.321C656.283,495.047,656.448,494.24,655.464,494.24"/>
	<path fill="#403A4E" d="M696.627,279.27c-0.19,0-0.381,0.001-0.571,0.004c0.827,0.008,1.653,0.038,2.478,0.091
		c0.135-0.009,0.271-0.017,0.406-0.024C698.169,279.293,697.398,279.27,696.627,279.27"/>
	<g>
		<defs>
			<path id="SVGID_27_" d="M696.056,279.273c-1.376,0.021-2.75,0.116-4.116,0.287l0.208,0.042c1.492-0.183,2.999-0.27,4.511-0.27
				c0.589,0,1.177,0.013,1.766,0.04c0.036-0.003,0.073-0.005,0.109-0.008C697.709,279.312,696.883,279.281,696.056,279.273"/>
		</defs>
		<clipPath id="SVGID_28_">
			<use xlink:href="#SVGID_27_"  overflow="visible"/>
		</clipPath>
		<g transform="matrix(1 0 0 1 6.103516e-005 0)" clip-path="url(#SVGID_28_)">
			
				<image overflow="visible" width="31" height="4" xlink:href="306B11B1.jpg"  transform="matrix(0.24 0 0 -0.24 691.5198 279.8452)">
			</image>
		</g>
	</g>
	<path fill="#393446" d="M696.658,279.333c-1.512,0-3.019,0.087-4.511,0.27l1.792,0.367c1.48-0.294,2.979-0.494,4.484-0.598
		C697.835,279.346,697.247,279.333,696.658,279.333"/>
	<g>
		<defs>
			<path id="SVGID_29_" d="M666.305,278.521c-0.48,0.171-0.936,0.392-1.355,0.679c-2.21,1.56-2.49,4.35-3.149,6.77
				c-1.194,4.041-3.713,7.563-7.15,10c-2.37,1.73-5.16,3-7.43,4.82c-2.271,1.82-4,4.52-3.431,7.19
				c0.469,2.195,2.554,3.897,4.942,4.928c0.015-0.018,0.028-0.035,0.043-0.053c-2.343-1.042-4.375-2.791-4.835-4.935
				c-0.074-0.348-0.109-0.697-0.109-1.044c0.001-2.307,1.566-4.554,3.539-6.135c2.271-1.82,5.061-3.09,7.431-4.82
				c3.438-2.437,5.956-5.959,7.149-10c0.66-2.42,0.94-5.22,3.15-6.77C665.476,278.891,665.88,278.685,666.305,278.521"/>
		</defs>
		<clipPath id="SVGID_30_">
			<use xlink:href="#SVGID_29_"  overflow="visible"/>
		</clipPath>
		<g transform="matrix(1 0 0 1 0 3.051758e-005)" clip-path="url(#SVGID_30_)">
			
				<image overflow="visible" width="99" height="146" xlink:href="306B11B3.jpg"  transform="matrix(0.24 0 0 -0.24 642.8 313.2051)">
			</image>
		</g>
	</g>
	<path fill="#555471" d="M761.098,472.751c-0.001,0.009-0.003,0.016-0.004,0.024c0.523,0.065,1.049,0.12,1.576,0.165
		c0.42,0.05,0.842,0.075,1.264,0.075c0.135,0,0.271-0.003,0.405-0.008c-0.02,0-0.039,0-0.058,0c-0.479,0-0.958-0.027-1.422-0.067
		C762.27,472.891,761.683,472.827,761.098,472.751"/>
	<path fill="#E3AEB7" d="M751.513,470.24l-0.013,0.06l-0.002,0.011c3.065,1.218,6.289,2.051,9.596,2.465
		c0.001-0.009,0.003-0.016,0.004-0.024C757.793,472.32,754.573,471.473,751.513,470.24"/>
	<path fill="#1F65E5" d="M748.537,468.896l-0.021,0.084c0.976,0.485,1.97,0.929,2.981,1.331l0.002-0.011l0.013-0.06
		C750.502,469.834,749.51,469.385,748.537,468.896"/>
	<g>
		<defs>
			<path id="SVGID_31_" d="M648.775,312.855c-0.015,0.018-0.028,0.035-0.043,0.053c0.517,0.223,1.047,0.414,1.578,0.572
				c2.99,0.89,6.189,1,9.21,1.82c0.722,0.188,1.426,0.415,2.11,0.678c0.011-0.02,0.022-0.04,0.034-0.06
				c-0.636-0.238-1.287-0.446-1.954-0.619c-3.021-0.82-6.21-0.97-9.21-1.82C649.919,313.315,649.338,313.105,648.775,312.855"/>
		</defs>
		<clipPath id="SVGID_32_">
			<use xlink:href="#SVGID_31_"  overflow="visible"/>
		</clipPath>
		<g transform="matrix(1 0 0 1 6.103516e-005 3.051758e-005)" clip-path="url(#SVGID_32_)">
			
				<image overflow="visible" width="57" height="16" xlink:href="306B11BE.jpg"  transform="matrix(0.24 0 0 -0.24 648.3206 316.3252)">
			</image>
		</g>
	</g>
	<path fill="#CC9CA4" d="M679.349,367.255c0.593,3.179,0.496,6.501,0.381,9.745c-0.207,5.84-0.41,11.683-0.61,17.53
		c-0.122,3.558,0.086,7.671,2.27,10.407c0.072,0.013,0.146,0.024,0.218,0.036c-1.908-2.363-2.326-5.769-2.324-8.955
		c0-0.503,0.011-1.001,0.027-1.488l0.61-17.54c0.042-1.251,0.082-2.515,0.082-3.777c0-1.996-0.102-3.989-0.46-5.931
		C679.478,367.273,679.413,367.265,679.349,367.255"/>
	<path fill="#B78C93" d="M679.268,366.841c0.028,0.138,0.056,0.276,0.081,0.414c0.064,0.01,0.129,0.019,0.193,0.027
		c-0.022-0.12-0.045-0.239-0.069-0.359C679.404,366.896,679.336,366.869,679.268,366.841"/>
	<path fill="#CC9CA4" d="M661.664,315.918c-0.012,0.02-0.023,0.04-0.034,0.06c8.411,3.238,13.844,11.973,12.05,19.972
		c-1,4.31-3.73,8.4-3.311,12.77c0.49,5.24,5.32,9.26,7.59,14.11c0.607,1.296,1.025,2.64,1.309,4.011
		c0.068,0.028,0.136,0.055,0.205,0.083c-0.282-1.4-0.704-2.771-1.323-4.093c-2.27-4.85-7.1-8.88-7.59-14.11
		c-0.029-0.308-0.044-0.615-0.044-0.92c-0.001-4.035,2.424-7.843,3.354-11.85c0.231-1.031,0.343-2.073,0.343-3.115
		C674.215,325.741,669.076,318.7,661.664,315.918"/>
	<path fill="#B78C93" d="M681.389,404.937c0.347,0.435,0.743,0.835,1.195,1.191c0.079,0.013,0.157,0.024,0.235,0.036
		c-0.459-0.356-0.861-0.756-1.213-1.191C681.534,404.961,681.461,404.949,681.389,404.937"/>
	<path fill="#1C5BCE" d="M682.584,406.128c0.4,0.315,0.844,0.598,1.336,0.842c2.439,1.2,5.479,1.07,8,2.13
		c4.939,2.061,6.239,7.67,6.64,12.49c0.571,6.83,0.599,13.695,0.08,20.53c-0.23,3-0.39,6.35,2,8.45c1.183,0.919,2.546,1.58,4,1.939
		c5,1.562,10.186,2.449,15.42,2.641c4.2,0.159,8.64-0.08,12.33,1.699c2.87,1.391,4.87,3.83,7.11,5.94
		c2.72,2.491,5.758,4.568,9.017,6.189l0.021-0.084c-3.198-1.608-6.182-3.657-8.857-6.105c-2.23-2.11-4.23-4.55-7.1-5.94
		c-3.69-1.779-8.131-1.54-12.33-1.699c-5.234-0.195-10.42-1.084-15.42-2.641c-1.455-0.359-2.817-1.021-4-1.939
		c-1.728-1.518-2.123-3.688-2.123-5.907c0.001-0.852,0.059-1.711,0.123-2.543c0.247-3.257,0.37-6.521,0.369-9.785
		c0-3.585-0.15-7.17-0.449-10.745c-0.4-4.82-1.7-10.43-6.641-12.49c-2.52-1.06-5.56-0.93-8-2.129
		c-0.474-0.234-0.902-0.505-1.29-0.807C682.741,406.152,682.663,406.141,682.584,406.128"/>
	<path fill="#393446" d="M670.949,277.95c-1.564,0-3.214,0.062-4.645,0.571c-0.425,0.164-0.829,0.37-1.205,0.628
		c-2.21,1.55-2.49,4.35-3.15,6.77c-1.193,4.041-3.712,7.563-7.149,10c-2.37,1.73-5.16,3-7.431,4.82
		c-1.973,1.582-3.538,3.828-3.539,6.135c0,0.348,0.035,0.696,0.109,1.044c0.57,2.66,3.561,4.71,6.561,5.56s6.189,1,9.21,1.82
		c8.447,2.193,14.505,9.833,14.502,17.535c0,1.042-0.111,2.084-0.343,3.115c-0.93,4.007-3.354,7.815-3.354,11.85
		c0,0.305,0.015,0.612,0.044,0.92c0.49,5.23,5.32,9.26,7.59,14.11c1.528,3.263,1.852,6.821,1.853,10.383
		c0,1.263-0.04,2.526-0.082,3.777l-0.61,17.54c-0.017,0.487-0.027,0.985-0.027,1.488c-0.002,4.268,0.748,8.93,4.827,10.953
		c2.44,1.199,5.48,1.069,8,2.129c4.94,2.061,6.24,7.67,6.641,12.49c0.299,3.575,0.449,7.16,0.449,10.745
		c0.001,3.264-0.122,6.528-0.369,9.785c-0.064,0.832-0.122,1.691-0.123,2.543c0,2.219,0.396,4.39,2.123,5.907
		c1.183,0.919,2.545,1.58,4,1.939c5,1.557,10.186,2.445,15.42,2.641c4.199,0.159,8.64-0.08,12.33,1.699
		c2.869,1.391,4.869,3.83,7.1,5.94c6.394,5.851,14.544,9.419,23.18,10.15c0.464,0.04,0.943,0.067,1.422,0.067
		c0.019,0,0.038,0,0.058,0c0.563-0.021,1.126-0.088,1.681-0.198c-8.187-0.944-15.865-4.451-21.94-10.02
		c-2.239-2.11-4.229-4.55-7.109-5.94c-3.681-1.779-8.13-1.54-12.33-1.699c-5.234-0.192-10.42-1.08-15.42-2.641
		c-1.454-0.359-2.817-1.021-4-1.939c-2.38-2.101-2.21-5.48-2-8.45c0.519-6.835,0.491-13.7-0.08-20.53
		c-0.41-4.82-1.7-10.43-6.65-12.49c-2.53-1.06-5.56-0.93-8-2.13c-4.56-2.26-5-7.819-4.81-12.44c0.206-5.847,0.41-11.69,0.609-17.53
		c0.17-4.79,0.301-9.75-1.77-14.17c-2.271-4.85-7.1-8.87-7.59-14.11c-0.41-4.37,2.35-8.46,3.319-12.77
		c1.94-8.67-4.579-18.16-14.17-20.65c-3-0.78-6.22-0.94-9.21-1.82s-5.89-2.78-6.51-5.5s1.15-5.36,3.42-7.19
		c2.271-1.83,5.061-3.09,7.44-4.82c3.438-2.434,5.953-5.958,7.14-10c0.67-2.42,1-5.21,3.15-6.77c1.232-0.765,2.649-1.179,4.1-1.2
		C672.72,278,671.829,277.95,670.949,277.95"/>
	<path fill="#E3AEB7" d="M588.93,432.63c0,0-8,7.34-6.83,10.34c0.118,0.303,0.282,0.439,0.482,0.439
		C584.356,443.409,588.93,432.63,588.93,432.63"/>
	<path fill="#474157" d="M596.35,526.98c-5.771-1.41-21.68-2.711-29.25,22.68c-1.763,5.897-4.007,11.64-6.71,17.17
		c-7.26,14.91-16.641,45.57,24.609,52.32l99,22.5c0,0,53,6.5,56.5,4s3-8,3-8s-58.5,0-70-18s-12-42.5-12-42.5s1.44-37.83-59-48.82
		C600.5,527.95,598.4,527.48,596.35,526.98"/>
	<path fill="#1F65E5" d="M661.502,577.004c-0.001,0.097-0.003,0.146-0.003,0.146s0.001,0.027,0.002,0.08
		C661.502,577.178,661.502,577.102,661.502,577.004"/>
	<path fill="#E5E5E5" d="M629.121,629.178c0.004,0.058,0.008,0.115,0.012,0.173l14.765,3.355l-0.094-0.19L629.121,629.178
		 M564.992,612.116c3.995,2.746,9.282,4.984,16.179,6.479c-0.002-0.058-0.003-0.114-0.005-0.171
		c-5.7-1.236-10.299-2.979-13.979-5.099C566.42,612.938,565.689,612.533,564.992,612.116"/>
	<g>
		<defs>
			<path id="SVGID_33_" d="M643.804,632.516l0.094,0.19l0.605,0.138l-0.093-0.19L643.804,632.516 M581.166,618.425
				c0.002,0.057,0.003,0.113,0.005,0.171c0.481,0.104,0.972,0.205,1.469,0.302c-0.002-0.057-0.003-0.113-0.005-0.171
				C582.139,618.63,581.647,618.528,581.166,618.425 M554.408,595.672c0.999,6.147,4.073,11.969,10.584,16.444
				c0.696,0.417,1.428,0.821,2.194,1.21c-7.957-4.582-11.61-10.917-12.75-17.653C554.429,595.673,554.416,595.672,554.408,595.672"
				/>
		</defs>
		<clipPath id="SVGID_34_">
			<use xlink:href="#SVGID_33_"  overflow="visible"/>
		</clipPath>
		<g transform="matrix(1 0 0 1 6.103516e-005 6.103516e-005)" clip-path="url(#SVGID_34_)">
			
				<image overflow="visible" width="379" height="158" xlink:href="306B11BF.jpg"  transform="matrix(0.24 0 0 -0.24 554.0002 633.125)">
			</image>
		</g>
	</g>
	<g>
		<defs>
			<path id="SVGID_35_" d="M554.026,590.678c-0.004,1.674,0.115,3.347,0.383,4.994c0.008,0,0.021,0.001,0.028,0.001
				C554.158,594.025,554.031,592.354,554.026,590.678"/>
		</defs>
		<clipPath id="SVGID_36_">
			<use xlink:href="#SVGID_35_"  overflow="visible"/>
		</clipPath>
		<g transform="matrix(1 0 0 1 6.103516e-005 0)" clip-path="url(#SVGID_36_)">
			
				<image overflow="visible" width="4" height="23" xlink:href="306B11B2.jpg"  transform="matrix(0.24 0 0 -0.24 553.76 595.9248)">
			</image>
		</g>
	</g>
	<path fill="#E3AEB7" d="M644.41,632.653l0.093,0.19l27.092,6.157c-0.091-0.076-0.183-0.154-0.271-0.231L644.41,632.653"/>
	<path fill="#393446" d="M671.323,638.77c0.089,0.077,0.181,0.155,0.271,0.231l12.404,2.819c0,0,37.281,4.572,51.374,4.572
		c2.71,0,4.562-0.169,5.126-0.572c1.635-1.167,2.396-2.989,2.745-4.599c-0.014,0.001-0.025,0.003-0.04,0.004
		c-0.364,1.566-1.13,3.3-2.705,4.425c-0.564,0.403-2.416,0.572-5.127,0.572c-14.093,0-51.373-4.572-51.373-4.572L671.323,638.77"/>
	<path fill="#403A4E" d="M743.524,638.457c-0.005,0.666-0.064,1.677-0.319,2.769c0.015-0.001,0.026-0.003,0.04-0.004
		C743.487,640.101,743.528,639.081,743.524,638.457"/>
	<path fill="#E3AEB7" d="M582.635,618.727c0.002,0.058,0.003,0.114,0.005,0.171c0.768,0.15,1.554,0.291,2.359,0.423l44.134,10.03
		c-0.004-0.058-0.008-0.115-0.012-0.173l-44.122-10.027C584.191,619.019,583.405,618.877,582.635,618.727"/>
	<path fill="#403A4E" d="M591.092,526.519c-7.282,0-18.134,3.666-23.992,23.321c-1.763,5.897-4.007,11.641-6.71,17.17
		c-2.991,6.139-6.342,14.953-6.364,23.668c0.005,1.676,0.133,3.348,0.411,4.995c1.14,6.736,4.793,13.071,12.75,17.653
		c3.681,2.119,8.279,3.862,13.979,5.099c0.48,0.104,0.973,0.205,1.469,0.302c0.77,0.15,1.556,0.292,2.364,0.424l44.122,10.027
		l14.683,3.338l0.606,0.138l26.913,6.116l12.676,2.881c0,0,37.28,4.572,51.373,4.572c2.711,0,4.563-0.169,5.127-0.572
		c1.575-1.125,2.341-2.858,2.705-4.425c0.255-1.092,0.314-2.103,0.319-2.769c-0.003-0.399-0.024-0.637-0.024-0.637s-58.5,0-70-18
		s-12-42.5-12-42.5s0.001-0.03,0.002-0.09c-0.001-0.053-0.002-0.08-0.002-0.08s0.002-0.05,0.003-0.146
		c-0.026-3.661-1.802-38.103-59.003-48.504c-1.999-0.38-4.1-0.87-6.149-1.35C595.045,526.831,593.22,526.519,591.092,526.519"/>
	<path fill="#474157" d="M803.88,501.11c-1.186-7.569-7.791-13.093-15.45-12.92c-14.24,0.26-58.07,2.159-78.43,15.46
		c0,0-15.5,10-20,10s-65.5,52,25,98.5c0,0,48.5,13.8,67.5-18.601c0,0,13.5-34.8,12.5-46.85s9-44.55,9-44.55
		S803.98,501.76,803.88,501.11"/>
	<path fill="#E5E5E5" d="M795.591,543.151c-0.049,0.023-0.092,0.044-0.142,0.067c-0.188,1.296-0.331,2.53-0.42,3.682
		c0.002,0.098,0.003,0.195,0.003,0.293c0.007,0.13,0.012,0.263,0.015,0.397C795.158,546.215,795.346,544.722,795.591,543.151"/>
	<path fill="#D1D8E5" d="M803.954,510.376c-0.737,2.218-6.691,20.339-8.505,32.843c0.05-0.023,0.093-0.044,0.142-0.067
		C797.68,529.79,804,510.83,804,510.83S803.99,510.666,803.954,510.376"/>
	<g>
		<defs>
			<path id="SVGID_37_" d="M795.449,543.219c-0.162,0.077-0.327,0.155-0.489,0.232c-0.05,1.195-0.04,2.287,0.04,3.249
				c0.014,0.16,0.024,0.324,0.032,0.493c0-0.098-0.001-0.195-0.003-0.293C795.118,545.749,795.261,544.515,795.449,543.219"/>
		</defs>
		<clipPath id="SVGID_38_">
			<use xlink:href="#SVGID_37_"  overflow="visible"/>
		</clipPath>
		<g transform="matrix(1 0 0 1 6.103516e-005 6.103516e-005)" clip-path="url(#SVGID_38_)">
			
				<image overflow="visible" width="6" height="19" xlink:href="306B11B5.jpg"  transform="matrix(0.24 0 0 -0.24 794.4807 547.4453)">
			</image>
		</g>
	</g>
	<g>
		<defs>
			<path id="SVGID_39_" d="M802.767,506.324c-2.371,8.227-7.371,26.647-7.807,37.127c0.162-0.077,0.327-0.155,0.489-0.232
				c1.813-12.504,7.768-30.625,8.505-32.843c-0.018-0.141-0.042-0.311-0.074-0.506C803.676,508.62,803.297,507.432,802.767,506.324"
				/>
		</defs>
		<clipPath id="SVGID_40_">
			<use xlink:href="#SVGID_39_"  overflow="visible"/>
		</clipPath>
		<g transform="matrix(1 0 0 1 6.103516e-005 6.103516e-005)" clip-path="url(#SVGID_40_)">
			
				<image overflow="visible" width="40" height="158" xlink:href="306B11B6.jpg"  transform="matrix(0.24 0 0 -0.24 794.72 543.8447)">
			</image>
		</g>
	</g>
	<path fill="#E5E5E5" d="M795.046,552.751c-0.148,9.687-7.94,29.91-11.206,38.019c0.093,0.148,0.186,0.297,0.277,0.445
		C787.566,582.525,795.311,561.919,795.046,552.751"/>
	<g>
		<defs>
			<path id="SVGID_41_" d="M794.932,550.537c-1.058,11.718-8.737,33.134-11.47,40.469c0.152,0.239,0.304,0.48,0.452,0.719
				c0.065-0.165,0.134-0.335,0.203-0.51c-0.092-0.148-0.185-0.297-0.277-0.445c3.266-8.108,11.058-28.332,11.206-38.019
				c-0.008-0.277-0.022-0.545-0.046-0.801C794.96,551.508,794.938,551.036,794.932,550.537"/>
		</defs>
		<clipPath id="SVGID_42_">
			<use xlink:href="#SVGID_41_"  overflow="visible"/>
		</clipPath>
		<g transform="matrix(1 0 0 1 6.103516e-005 6.103516e-005)" clip-path="url(#SVGID_42_)">
			
				<image overflow="visible" width="51" height="175" xlink:href="306B11B4.jpg"  transform="matrix(0.24 0 0 -0.24 783.2004 592.085)">
			</image>
		</g>
	</g>
	<path fill="#393446" d="M783.462,591.006c-0.313,0.842-0.562,1.498-0.728,1.933c0.121,0.283,0.238,0.564,0.35,0.844
		c0.224-0.548,0.504-1.241,0.83-2.058C783.766,591.486,783.615,591.245,783.462,591.006"/>
	<path fill="#403A4E" d="M782.735,592.938c-0.151,0.398-0.234,0.611-0.234,0.611c-5.806,9.899-14.365,15.486-23.453,18.472
		c-0.053,0.094-0.104,0.187-0.156,0.277c9.147-2.743,17.771-7.907,23.609-17.099c0,0,0.213-0.508,0.584-1.418
		C782.973,593.503,782.856,593.222,782.735,592.938"/>
	<path fill="#1F65E5" d="M759.047,612.021c-5.924,1.945-12.069,2.785-17.826,2.994c5.706-0.19,11.795-0.954,17.67-2.717
		C758.943,612.208,758.994,612.115,759.047,612.021 M665.807,557.37c-1.078,16.315,9.445,36.145,49.193,55
		c0,0,8.645,2.27,20.059,2.645C723.645,614.608,715,612.15,715,612.15C678.787,593.544,666.831,574.055,665.807,557.37"/>
	<path fill="#403A4E" d="M788.72,497.938c-0.097,0-0.192,0.001-0.29,0.003c-14.24,0.239-58.07,2-78.43,14.27c0,0-15.5,9.23-20,9.23
		c-2.523,0-22.815,15.099-24.193,35.93c1.024,16.685,12.98,36.174,49.193,54.78c0,0,8.645,2.458,20.059,2.864
		c1.025,0.033,2.072,0.052,3.139,0.052c0.993,0,2.002-0.017,3.023-0.051c5.757-0.209,11.902-1.049,17.826-2.994
		c9.088-2.985,17.647-8.572,23.453-18.472c0,0,0.083-0.213,0.234-0.611c0.166-0.435,0.414-1.091,0.728-1.933l0,0
		c2.732-7.335,10.412-28.751,11.47-40.469c-0.012-0.9,0.029-1.89,0.115-2.946c-0.003-0.135-0.008-0.268-0.015-0.397
		c-0.008-0.169-0.019-0.333-0.032-0.493c-0.08-0.962-0.09-2.054-0.04-3.249c0.436-10.479,5.436-28.9,7.807-37.127
		C800.366,501.307,794.885,497.938,788.72,497.938"/>
	<rect x="739.5" y="612.14" fill="#5F5D7E" width="16" height="34.07"/>
	<path fill="#555471" d="M149.88,468.132c-14.645,0.477-24.68,1.452-24.68,2.578c0,1.596,20.165,2.89,45.04,2.89
		c24.874,0,45.039-1.294,45.039-2.89c0-0.953-7.196-1.799-18.29-2.325v1.575h-2.88H150.3h-0.42V468.132"/>
	<path fill="#2271FF" d="M208.04,359.25c-0.96,1.315-1.728,2.759-2.28,4.29c-0.14,0.38-0.28,0.8-0.42,1.21
		c-0.252-0.12-0.518-0.21-0.79-0.27c-1.166-0.292-2.371-0.396-3.57-0.31c0-0.46,0.061-1,0.07-1.46c0.15-5.27-0.47-12.62-5.5-9.51
		c-4.82,3-1.38,8,1.729,11.21l0.801,0.78c-2.841,2-3.38,6.73-3.851,11.64c-0.47,4.91-4.64,10.29-7.41,13.34
		c-0.279,0.31-0.529,0.59-0.779,0.85c-2.263-1.812-5.194-2.566-8.051-2.07c-0.109-0.43-0.239-0.88-0.369-1.36
		c-2.24-8.08-6.891-22.09-12.82-25.16l0.78-1c2.52-3.3,5.359-8.19,1.17-9.45c-4.19-1.26-4.57,4.25-4.34,8.37
		c0,0.52,0.079,1,0.119,1.46c-1.691,0.082-3.275,0.855-4.38,2.14l-0.649-0.76c-3.4-4-9.63-10.37-11.521-5.56
		c-1.76,4.48,3.73,10.29,7.59,13.66l0.24,0.21c-2.59,10.53,8.69,19.13,14.811,22.85l0.79,0.48c-8.4,9.9-13.591,28.45-13.591,28.45
		l23.521,4.2c0,0,15.6-13.45,13.6-26.09h0.16c15.59-3.121,19.13-19.741,16.7-29.61l0.28-0.11c2.838-1.165,5.325-3.046,7.22-5.46
		C221.66,360.14,212.5,353.3,208.04,359.25"/>
	<path fill="#1F65E5" d="M179.72,388.801c-0.109,0-0.217,0.001-0.326,0.005c0.012,0.042,0.023,0.084,0.035,0.126
		c0.256-0.051,0.516-0.091,0.776-0.12C180.043,388.805,179.882,388.801,179.72,388.801 M212.352,356.96
		c-1.541,0-3.099,0.672-4.312,2.29c-0.96,1.315-1.728,2.759-2.28,4.29c-0.097,0.264-0.195,0.548-0.292,0.834
		c0.159,0.032,0.319,0.067,0.483,0.105c0.271,0.063,0.535,0.154,0.792,0.271c0.138-0.41,0.284-0.817,0.438-1.221l0,0
		c0.553-1.531,1.32-2.975,2.28-4.29c1.029-1.359,2.302-2.049,3.6-2.233C212.825,356.977,212.589,356.96,212.352,356.96
		 M148.146,355.906c-0.924,0-1.686,0.5-2.167,1.724c-0.234,0.595-0.34,1.213-0.338,1.847c0.008,4.133,4.582,8.891,7.928,11.813
		l0.24,0.21l0,0c-0.26,1.059-0.381,2.099-0.38,3.116c0.007,9.095,9.686,16.388,15.19,19.734l0.79,0.48l0,0
		c-6.604,7.782-11.223,20.909-12.897,26.17h1.438c1.67-5.257,6.276-18.37,12.864-26.158c-0.241-0.145-0.494-0.299-0.756-0.462
		c0.002-0.003,0.005-0.007,0.008-0.01c-0.016-0.01-0.032-0.02-0.048-0.03c-6.103-3.76-17.437-12.347-14.798-22.881
		c-0.06-0.052-0.12-0.105-0.181-0.159c-3.86-3.37-9.351-9.18-7.59-13.66c0.358-0.912,0.873-1.423,1.494-1.625
		C148.668,355.944,148.401,355.906,148.146,355.906 M197.696,352.458c-0.606,0-1.316,0.229-2.146,0.742
		c-1.732,1.078-2.398,2.415-2.395,3.833c0.005,2.529,2.133,5.32,4.125,7.376l0.801,0.78l0,0c-2.841,2-3.38,6.73-3.851,11.64
		c-0.47,4.91-4.64,10.29-7.41,13.34c-0.077,0.085-0.151,0.167-0.224,0.249c0.285,0.175,0.572,0.366,0.861,0.571
		c0.236-0.25,0.492-0.524,0.763-0.82l0,0c2.77-3.05,6.93-8.4,7.41-13.34c0.477-4.919,1.002-9.638,3.848-11.669
		c-0.256-0.247-0.509-0.497-0.758-0.751c0.001-0.001,0.003-0.003,0.005-0.005c-3.108-3.23-6.542-8.207-1.725-11.205
		c0.504-0.312,0.963-0.519,1.382-0.633C198.17,352.496,197.941,352.458,197.696,352.458 M165.615,351.797
		c-2.642,0-3.256,3.462-3.257,6.776c0,0.605,0.02,1.205,0.052,1.777c0,0.52,0.079,1,0.119,1.46l0,0l0,0
		c-1.317,0.064-2.57,0.547-3.581,1.365c0.007,0.008,0.015,0.017,0.021,0.025c0.208,0.247,0.405,0.485,0.591,0.711
		c1.482-1.473,2.922-2.118,4.305-2.118c0.034,0,0.068,0,0.102,0.001c-0.047-0.478-0.086-0.956-0.118-1.435
		c-0.191-3.44,0.083-7.823,2.585-8.463C166.142,351.829,165.869,351.797,165.615,351.797"/>
	<path fill="#2271FF" d="M161.22,366.03l-2.72,8.05c0,0-1.53-1.08-3.46-2.78c-3.86-3.37-9.351-9.18-7.59-13.66
		c1.89-4.81,8.119,1.54,11.52,5.56C160.31,364.79,161.22,366.03,161.22,366.03"/>
	<path fill="#2271FF" d="M167.02,361.44c-0.837,1.097-1.731,2.148-2.68,3.15c-0.234-1.401-0.398-2.813-0.49-4.23
		c-0.229-4.12,0.21-9.59,4.34-8.37C172.32,353.21,169.5,358.14,167.02,361.44"/>
	<path fill="#2271FF" d="M202.5,362.71c-0.08,2.65-0.34,4.76-0.34,4.76c-1.212-0.942-2.357-1.964-3.431-3.06
		c-3.109-3.23-6.55-8.21-1.729-11.21C202.02,350.09,202.64,357.44,202.5,362.71"/>
	<path fill="#2271FF" d="M218.74,366.18c-1.9,2.413-4.396,4.291-7.239,5.45c-0.788,0.341-1.596,0.632-2.42,0.87l-3.24-4.55
		c0.343-1.503,0.791-2.98,1.34-4.42c0.553-1.531,1.32-2.975,2.28-4.29C213.96,353.3,223.1,360.14,218.74,366.18"/>
	<path fill="#1F65E5" d="M158.94,363.2c-0.27,0.31-0.56,0.66-0.8,1.03c-1.604,2.063-2.669,4.493-3.1,7.07
		c0.061,0.054,0.121,0.106,0.181,0.159c0.47-1.876,1.383-3.815,2.848-5.798c0.498-0.674,0.992-1.251,1.481-1.739
		C159.36,363.692,159.155,363.45,158.94,363.2"/>
	<path fill="#1F65E5" d="M163.85,360.36c0.031,0.479,0.07,0.957,0.118,1.435c0.778,0.017,1.537,0.238,2.277,0.628
		c0.264-0.323,0.522-0.651,0.775-0.983C166.103,360.757,164.993,360.379,163.85,360.36"/>
	<path fill="#2271FF" d="M180.5,393.4l-6.84,3c0,0-1.49-0.72-3.641-2.06c-7.189-4.43-21.64-15.56-11.95-28.68
		c9.69-13.12,17.771,10.42,20.95,21.92C180.03,391.03,180.5,393.4,180.5,393.4"/>
	<path fill="#1C5BCE" d="M198.725,364.405c-0.001,0.001-0.003,0.003-0.005,0.005c0.249,0.254,0.502,0.504,0.758,0.751
		c0.002-0.002,0.003-0.003,0.006-0.004c-0.255-0.245-0.507-0.494-0.754-0.747C198.728,364.408,198.727,364.407,198.725,364.405"/>
	<path fill="#1F65E5" d="M202.49,362.71c-1.425,0.062-2.773,0.668-3.765,1.695c0.002,0.001,0.003,0.003,0.005,0.005
		c0.248,0.253,0.499,0.502,0.754,0.747c0.788-0.561,1.753-0.916,2.944-1.013C202.453,363.692,202.474,363.211,202.49,362.71"/>
	<path fill="#1F65E5" d="M207.18,363.53L207.18,363.53c-0.154,0.404-0.3,0.812-0.438,1.221c2.052,0.937,3.633,3.555,4.486,6.995
		c0.091-0.038,0.182-0.077,0.272-0.116C210.83,367.8,209.29,364.77,207.18,363.53"/>
	<path fill="#2271FF" d="M194.5,401.359l-1.15,0.201c-22.93,3.489-7.56-8.88-7.56-8.88s1-0.95,2.43-2.51
		c2.77-3.05,6.93-8.4,7.41-13.34c0.72-7.43,1.55-14.4,10.32-12.35C214.6,366.49,216.25,397.01,194.5,401.359"/>
	<polyline fill="#474157" points="150.3,458.44 194.11,458.44 194.11,469.96 150.3,469.96 150.3,458.44 	"/>
	<polyline fill="#474157" points="143.34,421 200.58,421 200.58,461.2 143.34,461.2 143.34,421 	"/>
	<polyline fill="#D1D8E5" points="150.3,461.21 149.88,461.21 149.88,464.229 150.3,464.227 150.3,461.21 	"/>
	<path fill="#555471" d="M150.3,464.227l-0.42,0.003v3.902c0.139-0.005,0.28-0.009,0.42-0.014V464.227"/>
	<path fill="#4C4B65" d="M150.3,468.118c-0.14,0.005-0.281,0.009-0.42,0.014v1.828h0.42V468.118"/>
	<polyline fill="#403A4E" points="153.18,461.21 150.3,461.21 150.3,464.227 150.3,468.118 150.3,469.96 193.69,469.96 
		153.18,469.96 153.18,461.21 	"/>
	<path fill="#D1D8E5" d="M200.4,461.2h-3.41v0.01h3.41V461.2 M143.34,421.01h-0.18v40.2h6.72v-0.01h-6.54V421.01"/>
	<path fill="#403A4E" d="M200.4,421.01h-13.479c-3.179,3.922-6.142,6.471-6.142,6.471l-23.52-4.2c0,0,0.236-0.846,0.688-2.271
		H143.34v40.19h6.54v-2.76h3.3h43.81v2.76h3.41V421.01"/>
	<polyline fill="#BCC2CE" points="150.3,461.2 149.88,461.2 149.88,461.21 150.3,461.21 150.3,461.2 	"/>
	<polyline fill="#393446" points="153.18,461.2 150.3,461.2 150.3,461.21 153.18,461.21 153.18,461.2 	"/>
	<polyline fill="#393446" points="153.18,458.44 149.88,458.44 149.88,461.2 150.3,461.2 153.18,461.2 153.18,458.44 	"/>
	<polyline fill="#474157" points="153.18,458.44 196.99,458.44 196.99,469.96 153.18,469.96 153.18,458.44 	"/>
	<path fill="#D1D8E5" d="M179.06,387.63c-0.008,0.002-0.016,0.004-0.024,0.005c0.119,0.407,0.23,0.798,0.333,1.172
		c0.008,0,0.017,0,0.024-0.001C179.29,388.431,179.178,388.038,179.06,387.63"/>
	<path fill="#1C5BCE" d="M170.068,394.37c-0.002,0.003-0.005,0.007-0.008,0.01c0.262,0.164,0.515,0.318,0.756,0.462
		c0.003-0.004,0.006-0.007,0.009-0.011C170.583,394.687,170.331,394.533,170.068,394.37 M179.394,388.806
		c-0.008,0-0.016,0-0.024,0.001c0.012,0.043,0.024,0.087,0.036,0.129c0.008-0.001,0.015-0.003,0.023-0.004
		C179.417,388.89,179.406,388.849,179.394,388.806"/>
	<path fill="#1F65E5" d="M179.036,387.635c-3.287,0.756-6.297,3.318-8.968,6.734c0.263,0.164,0.516,0.317,0.757,0.462
		c2.577-3.042,5.455-5.27,8.581-5.895c-0.012-0.042-0.024-0.086-0.036-0.129l0,0C179.266,388.433,179.155,388.042,179.036,387.635"
		/>
	<path fill="#1F65E5" d="M188.22,390.17L188.22,390.17c-0.271,0.296-0.527,0.57-0.763,0.82c0.217,0.155,0.434,0.318,0.653,0.49
		c3.864,3.046,5.733,6.442,6.284,9.898l0.106-0.019C194.31,397.46,192.5,393.63,188.22,390.17"/>
	<path fill="#2271FF" d="M157.26,423.28c0,0,12.84-46,30.85-31.8c18.011,14.2-7.33,36-7.33,36L157.26,423.28"/>
	<path fill="#1F65E5" d="M163.74,371.43c-0.796,0-1.44,0.645-1.44,1.44c0,0.795,0.645,1.44,1.44,1.44
		c0.795,0,1.439-0.645,1.439-1.44C165.18,372.075,164.535,371.43,163.74,371.43"/>
	<path fill="#1F65E5" d="M163.62,378.16c-0.796,0-1.44,0.645-1.44,1.44s0.645,1.44,1.44,1.44c0.795,0,1.439-0.645,1.439-1.44
		S164.415,378.16,163.62,378.16"/>
	<path fill="#1F65E5" d="M205.39,372.75c-0.795,0-1.439,0.645-1.439,1.44s0.645,1.44,1.439,1.44s1.44-0.645,1.44-1.44
		S206.185,372.75,205.39,372.75"/>
	<path fill="#1F65E5" d="M171.78,407.2c-0.795,0-1.439,0.645-1.439,1.44c0,0.795,0.645,1.439,1.439,1.439
		c0.796,0,1.44-0.645,1.44-1.439C173.22,407.845,172.575,407.2,171.78,407.2"/>
	<path fill="#1F65E5" d="M202.39,383.92c-0.795,0-1.439,0.645-1.439,1.44s0.645,1.44,1.439,1.44s1.44-0.645,1.44-1.44
		S203.185,383.92,202.39,383.92"/>
	<path fill="#1F65E5" d="M187.51,398.8c-0.795,0-1.44,0.646-1.44,1.44s0.646,1.439,1.44,1.439s1.44-0.645,1.44-1.439
		S188.305,398.8,187.51,398.8"/>
	<path fill="#1F65E5" d="M168.66,374.31c-0.796,0-1.44,0.645-1.44,1.44s0.645,1.44,1.44,1.44c0.795,0,1.439-0.645,1.439-1.44
		S169.455,374.31,168.66,374.31"/>
	<path fill="#1F65E5" d="M201.43,377.08c-0.795,0-1.44,0.645-1.44,1.44s0.646,1.44,1.44,1.44s1.44-0.645,1.44-1.44
		S202.225,377.08,201.43,377.08"/>
	<path fill="#1F65E5" d="M196.51,388.24c-0.795,0-1.44,0.645-1.44,1.44c0,0.795,0.646,1.44,1.44,1.44s1.44-0.645,1.44-1.44
		C197.95,388.885,197.305,388.24,196.51,388.24"/>
	<path fill="#1F65E5" d="M181.38,406.12c-0.796,0-1.44,0.645-1.44,1.44c0,0.795,0.645,1.439,1.44,1.439
		c0.795,0,1.439-0.645,1.439-1.439C182.82,406.765,182.175,406.12,181.38,406.12"/>
	<path fill="#1F65E5" d="M178.26,399.04c-0.795,0-1.44,0.645-1.44,1.44c0,0.795,0.646,1.439,1.44,1.439s1.44-0.645,1.44-1.439
		C179.7,399.685,179.055,399.04,178.26,399.04"/>
	<path fill="#1F65E5" d="M170.82,383.08c-0.795,0-1.439,0.645-1.439,1.44s0.645,1.44,1.439,1.44c0.796,0,1.44-0.645,1.44-1.44
		S171.615,383.08,170.82,383.08"/>
	<polyline fill="#403A4E" points="196.99,458.44 153.18,458.44 153.18,462.65 196.99,462.65 196.99,458.44 	"/>
	<rect x="146.22" y="421" fill="#474157" width="57.24" height="40.2"/>
	<path fill="#1F65E5" d="M183.3,412.6c-0.795,0-1.44,0.645-1.44,1.44s0.646,1.44,1.44,1.44s1.44-0.645,1.44-1.44
		S184.095,412.6,183.3,412.6"/>
	<path fill="#1F65E5" d="M174.66,414.4c-0.796,0-1.44,0.645-1.44,1.439s0.645,1.439,1.44,1.439c0.795,0,1.439-0.645,1.439-1.439
		S175.455,414.4,174.66,414.4"/>
	<path fill="#2271FF" d="M311.89,574.63c0,0,7.13,9.33-3.29,23.41s-19,26-15.56,34.76c0,0,15.739-26.16,28.55-26.52
		C334.4,605.92,325.98,590.37,311.89,574.63"/>
	<path fill="#E5E5E5" d="M311.89,574.63c0.149,0.215,0.291,0.436,0.425,0.66C312.062,574.855,311.89,574.63,311.89,574.63
		 M311.89,574.63L311.89,574.63c9.217,10.297,16.008,20.513,16.017,26.447C327.909,595.15,321.115,584.936,311.89,574.63"/>
	<path fill="#1F65E5" d="M311.89,574.63L311.89,574.63c0,0,0.172,0.226,0.425,0.66c0.425,0.713,0.772,1.47,1.035,2.26
		c12.49,14.681,19.15,28.38,7.14,28.73c-10.208,0.319-22.272,16.992-26.754,23.711c-0.064,0.556-0.166,1.1-0.309,1.634
		c0.001,0.002,0.002,0.003,0.003,0.005c-0.038,0.138-0.079,0.274-0.123,0.41c-0.074,0.237-0.155,0.472-0.246,0.704
		c0.651-1.073,15.992-26.132,28.528-26.484c4.423-0.124,6.315-2.057,6.316-5.183C327.898,595.143,321.107,584.927,311.89,574.63"/>
	<path fill="#FFD037" d="M325.15,586.53c0,3.28-0.37,5.939-0.82,5.939c-0.449,0-0.819-2.659-0.819-5.939s0.46-1.74,0.91-1.74
		C324.869,584.79,325.15,583.24,325.15,586.53z"/>
	<path fill="#FFD037" d="M329.699,590.45c-2.88,1.569-5.39,2.52-5.609,2.12c-0.221-0.4,1.939-2,4.83-3.57c2.89-1.57,1.739-0.43,2,0
		C331.18,589.43,332.59,588.88,329.699,590.45z"/>
	<path fill="#2271FF" d="M274.2,574.63c0,0-7.131,9.33,3.29,23.41c10.42,14.08,19,26,15.55,34.76c0,0-15.73-26.16-28.54-26.52
		C251.69,605.92,260.11,590.37,274.2,574.63"/>
	<path fill="#E5E5E5" d="M258.183,601.093c-0.004,3.14,1.887,5.08,6.317,5.197c2.345,0.063,4.79,0.99,7.217,2.465
		c-2.427-1.478-4.872-2.409-7.217-2.475C260.078,606.156,258.186,604.221,258.183,601.093 M274.2,574.63
		c0,0-0.163,0.214-0.404,0.625C273.924,575.042,274.059,574.834,274.2,574.63"/>
	<path fill="#1C5BCE" d="M293.427,631.625c-0.037,0.139-0.077,0.277-0.119,0.415c0.043-0.136,0.084-0.272,0.123-0.41
		C293.429,631.628,293.428,631.627,293.427,631.625"/>
	<path fill="#1F65E5" d="M274.2,574.63c-0.014,0.016-0.027,0.03-0.041,0.046c-9.197,10.281-15.968,20.488-15.976,26.417
		c0.002,3.128,1.895,5.063,6.317,5.188c2.345,0.065,4.79,0.997,7.217,2.475c10.827,6.575,21.323,24.025,21.323,24.025
		c0.098-0.243,0.187-0.49,0.267-0.74c0.042-0.138,0.083-0.276,0.119-0.415c-3.225-5.008-16.64-24.995-27.827-25.345
		c-12.01-0.351-5.35-14.05,7.141-28.73c0.267-0.803,0.621-1.572,1.056-2.295C274.037,574.844,274.2,574.63,274.2,574.63
		L274.2,574.63"/>
	<path fill="#FFD037" d="M260.94,586.53c0,3.28,0.37,5.939,0.82,5.939s0.82-2.659,0.82-5.939s-0.46-1.74-0.91-1.74
		S260.94,583.24,260.94,586.53z"/>
	<path fill="#FFD037" d="M256.39,590.45c2.88,1.569,5.39,2.52,5.61,2.12c0.22-0.4-1.94-2-4.83-3.57c-2.891-1.57-1.74-0.43-2,0
		S253.5,588.88,256.39,590.45z"/>
	<path fill="#E8F1FF" d="M293.04,681.29c-41.201,0-74.601,5.126-74.601,11.45c0,6.323,33.399,11.45,74.601,11.45
		c41.2,0,74.6-5.127,74.6-11.45C367.64,686.416,334.24,681.29,293.04,681.29"/>
	<path fill="#65617D" d="M331.44,620.24l-0.36,2.91l-0.5,4.119l-0.199,1.711l-0.511,4.119l-0.21,1.721l-0.5,4.109L323.5,685.73
		c-0.511,4.18-7.341,7.43-15.57,7.43h-29.72c-8.24,0-15-3.25-15.561-7.43l-5.72-46.801l-0.5-4.109l-0.21-1.721l-0.51-4.119
		l-0.2-1.711l-0.5-4.119l-0.36-2.91c-0.29-2.36,3.4-4.36,8.07-4.36h60.66C328.03,615.88,331.73,617.88,331.44,620.24z"/>
	<polygon fill="#9D9CB5" points="331.079,623.15 330.579,627.26 255.51,627.26 255.01,623.15 	"/>
	<polygon fill="#9D9CB5" points="330.38,628.98 329.88,633.1 256.22,633.1 255.71,628.98 	"/>
	<polygon fill="#9D9CB5" points="329.659,634.81 329.159,638.93 256.93,638.93 256.43,634.81 	"/>
	<g>
		<defs>
			<path id="SVGID_43_" d="M580.925,274.229h-86.929v91.261h66.299c-0.043-6.541,16.885-10.56,16.885-10.56
				c-2.039-3.468-3.888-7.043-5.54-10.71c-1.193-2.526-1.331-3.58-0.653-3.58c0.267,0,0.659,0.163,1.162,0.462
				c0.049-0.208,0.179-0.306,0.385-0.306c1.071,0,4.185,2.656,8.392,6.296V274.229"/>
		</defs>
		<clipPath id="SVGID_44_">
			<use xlink:href="#SVGID_43_"  overflow="visible"/>
		</clipPath>
		<g transform="matrix(1 0 0 1 0 3.051758e-005)" clip-path="url(#SVGID_44_)">
			
				<image overflow="visible" width="1030" height="677" xlink:href="306B118E.jpg"  transform="matrix(0.0847 0 0 0.0903 493.8269 274.0488)">
			</image>
		</g>
		<g transform="matrix(1 0 0 1 0 0)" clip-path="url(#SVGID_44_)">
			
				<image overflow="visible" width="1030" height="340" xlink:href="306B11D6.jpg"  transform="matrix(0.0847 0 0 0.0903 493.8269 334.9795)">
			</image>
		</g>
	</g>
	<g>
		<defs>
			<path id="SVGID_45_" d="M570.987,340.641c-0.678,0-0.54,1.054,0.653,3.58c1.652,3.667,3.501,7.242,5.54,10.71
				c0,0-16.928,4.02-16.885,10.56h1.619c0.354-6.428,16.766-10.36,16.766-10.36c-2.026-3.481-3.862-7.07-5.5-10.75
				c-0.824-1.758-1.142-2.803-1.031-3.277C571.646,340.803,571.253,340.641,570.987,340.641"/>
		</defs>
		<clipPath id="SVGID_46_">
			<use xlink:href="#SVGID_45_"  overflow="visible"/>
		</clipPath>
		<g transform="matrix(1 0 0 1 0 3.051758e-005)" clip-path="url(#SVGID_46_)">
			
				<image overflow="visible" width="220" height="277" xlink:href="306B11E9.jpg"  transform="matrix(0.0847 0 0 0.0903 560.1672 340.5762)">
			</image>
		</g>
	</g>
	<g>
		<defs>
			<path id="SVGID_47_" d="M572.533,340.796c-0.206,0-0.336,0.098-0.385,0.306c-0.11,0.474,0.207,1.52,1.031,3.277
				c1.638,3.68,3.474,7.269,5.5,10.75c0,0-16.411,3.932-16.766,10.36h19.011v-18.398
				C576.718,343.452,573.605,340.796,572.533,340.796"/>
		</defs>
		<clipPath id="SVGID_48_">
			<use xlink:href="#SVGID_47_"  overflow="visible"/>
		</clipPath>
		<g transform="matrix(1 0 0 1 0 3.051758e-005)" clip-path="url(#SVGID_48_)">
			
				<image overflow="visible" width="226" height="276" xlink:href="306B11EA.jpg"  transform="matrix(0.0847 0 0 0.0903 561.8616 340.6665)">
			</image>
		</g>
	</g>
</g>
</svg>
